SplineFontDB: 3.0
FontName: AV-Merrow-Bold
FullName: AV Merrow Bold
FamilyName: AV Merrow
Weight: Bold
Copyright: Copyright 2018,  Avante Vangard Type Foundry (https://github.com/Avante-Vangard).
Version: 2018.001
ItalicAngle: 0
UnderlinePosition: -133
UnderlineWidth: 20
Ascent: 800
Descent: 200
InvalidEm: 0
sfntRevision: 0x07e20000
LayerCount: 2
Layer: 0 0 "Back" 1
Layer: 1 0 "Fore" 0
XUID: [1021 894 1065283359 5242439]
StyleMap: 0x0020
FSType: 0
OS2Version: 3
OS2_WeightWidthSlopeOnly: 0
OS2_UseTypoMetrics: 0
CreationTime: 1324052790
ModificationTime: 1540929971
PfmFamily: 33
TTFWeight: 700
TTFWidth: 5
LineGap: 0
VLineGap: 0
Panose: 2 11 8 3 4 0 3 2 2 4
OS2TypoAscent: 966
OS2TypoAOffset: 0
OS2TypoDescent: -254
OS2TypoDOffset: 0
OS2TypoLinegap: 0
OS2WinAscent: 966
OS2WinAOffset: 0
OS2WinDescent: 254
OS2WinDOffset: 0
HheadAscent: 966
HheadAOffset: 0
HheadDescent: -254
HheadDOffset: 0
OS2SubXSize: 700
OS2SubYSize: 650
OS2SubXOff: 0
OS2SubYOff: 140
OS2SupXSize: 700
OS2SupYSize: 650
OS2SupXOff: 0
OS2SupYOff: 477
OS2StrikeYSize: 50
OS2StrikeYPos: 250
OS2CapHeight: 663
OS2XHeight: 475
OS2Vendor: 'pyrs'
OS2CodePages: 20000001.00000000
OS2UnicodeRanges: 800000af.5000204a.00000000.00000000
Lookup: 1 0 0 "'smcp' Lowercase to Small Capitals in Latin lookup 0" { "'smcp' Lowercase to Small Capitals in Latin lookup 0 subtable"  } ['smcp' ('DFLT' <'dflt' > 'latn' <'dflt' > ) ]
Lookup: 1 0 0 "'c2sc' Capitals to Small Capitals in Latin lookup 1" { "'c2sc' Capitals to Small Capitals in Latin lookup 1 subtable"  } ['c2sc' ('DFLT' <'dflt' > 'latn' <'dflt' > ) ]
Lookup: 1 0 0 "'sups' Superscript lookup 2" { "'sups' Superscript lookup 2 subtable" ("superior") } ['sups' ('DFLT' <'dflt' > 'grek' <'dflt' > 'latn' <'dflt' > ) ]
Lookup: 1 0 0 "'onum' Oldstyle Figures lookup 3" { "'onum' Oldstyle Figures lookup 3 subtable" ("oldstyle") } ['onum' ('DFLT' <'dflt' > 'grek' <'dflt' > 'latn' <'dflt' > ) ]

StartChar: exclam
Encoding: 33 33 2
Width: 308
GlyphClass: 2
Flags: W
HStem: -10 142<109.705 209.295>
VStem: 87 145<10.6584 111.342> 105 94<234.282 637.817>
LayerCount: 2
Fore
SplineSet
160 132 m 0xc0
 180 132 197 125 211 112 c 0
 225 99 232 82 232 61 c 0
 232 41 225 24 210 10 c 0
 195 -3 178 -10 158 -10 c 0
 139 -10 122 -3 108 10 c 0
 94 24 87 41 87 61 c 0
 87 81 94 98 109 112 c 0
 124 125 141 132 160 132 c 0xc0
216 639 m 0
 215 614 212 574 207 521 c 0
 202 467 199 422 199 385 c 0
 199 310 204 260 214 233 c 1
 195 224 177 220 162 220 c 0
 125 220 106 237 105 270 c 0xa0
 104 291 104 326 104 377 c 0
 103 428 103 468 102 500 c 0
 101 530 100 564 97 601 c 0
 94 638 90 666 85 686 c 1
 114 691 137 694 154 694 c 0
 195 694 216 676 216 639 c 0
EndSplineSet
Validated: 1
Substitution2: "'c2sc' Capitals to Small Capitals in Latin lookup 1 subtable" exclam.sc
EndChar

StartChar: quotedbl
Encoding: 34 34 3
Width: 395
GlyphClass: 2
Flags: W
HStem: 471 265<60.6108 134.215 258.611 332.215>
VStem: 42 121<520.92 724.67> 240 121<520.92 724.67>
LayerCount: 2
Fore
SplineSet
240 695 m 0
 240 708 246 718 258 725 c 0
 271 732 286 736 304 736 c 0
 320 736 334 732 344 724 c 0
 356 717 361 705 361 688 c 0
 361 659 355 601 342 516 c 0
 335 486 317 471 288 471 c 0
 277 471 265 473 251 477 c 1
 253 489 254 503 254 519 c 0
 254 560 252 598 247 633 c 0
 242 668 240 688 240 695 c 0
42 695 m 0
 42 708 48 718 60 725 c 0
 73 732 88 736 106 736 c 0
 122 736 136 732 146 724 c 0
 158 717 163 705 163 688 c 0
 163 659 157 601 144 516 c 0
 137 486 119 471 90 471 c 0
 79 471 67 473 53 477 c 1
 55 489 56 503 56 519 c 0
 56 560 54 598 49 633 c 0
 44 668 42 688 42 695 c 0
EndSplineSet
Validated: 1
Substitution2: "'c2sc' Capitals to Small Capitals in Latin lookup 1 subtable" quotedbl.sc
EndChar

StartChar: numbersign
Encoding: 35 35 4
Width: 535
GlyphClass: 2
Flags: W
HStem: 197 74<379.249 508.326> 205 65<12.0396 129 199 309> 391 66<38.5234 157 229 336 409 491.008>
VStem: 111 70<29.8662 200.672> 180 70<461.977 620.578> 291 70<29.8662 200.356> 344 86<462.399 618.286>
LayerCount: 2
Fore
SplineSet
229 457 m 1x68
 344 457 l 2
 344 460 347 484 352 529 c 0
 357 574 359 604 360 619 c 1
 369 622 378 623 389 623 c 0
 416 623 430 610 430 585 c 0
 430 574 423 532 409 459 c 1
 448 460 492 462 539 465 c 1
 541 456 542 446 542 434 c 0
 542 400 525 383 492 383 c 0
 471 383 439 385 396 388 c 1
 379 271 l 1
 428 273 473 276 512 279 c 1
 513 267 514 255 514 244 c 0
 514 213 497 197 463 197 c 0xaa
 437 197 406 199 369 202 c 1
 364 138 361 104 361 100 c 0
 361 76 362 56 364 39 c 1
 350 32 337 28 326 28 c 0
 303 28 291 41 291 67 c 0
 291 88 297 134 309 205 c 1
 190 205 l 1
 184 139 181 105 181 104 c 0
 181 81 182 60 184 39 c 1
 171 32 158 28 146 28 c 0
 123 28 111 41 111 67 c 0x74
 111 80 117 126 129 203 c 1
 88 201 47 194 4 181 c 1
 -1 198 -3 212 -3 225 c 0
 -3 256 23 272 76 272 c 2
 141 272 l 1
 157 389 l 1
 113 386 71 379 31 367 c 1
 26 386 23 401 23 412 c 0
 23 443 49 458 101 458 c 2
 165 457 l 1
 175 564 180 618 180 619 c 0
 190 622 200 623 211 623 c 0
 237 623 250 610 250 585 c 0
 250 567 243 524 229 457 c 1x68
199 270 m 1x60
 320 270 l 1
 336 391 l 1
 218 391 l 1
 199 270 l 1x60
EndSplineSet
Validated: 1
EndChar

StartChar: dollar
Encoding: 36 36 5
Width: 535
GlyphClass: 2
Flags: W
HStem: -7 78<291 351.662> 594 75<179.656 234> 719 20G<250.5 265.5>
VStem: 52 92<442.548 560.057> 235 55<-76.095 -10 71 262 406 594 673 737.517> 396 92<112.231 225.334>
LayerCount: 2
Fore
SplineSet
235 -51 m 2
 235 -10 l 1
 182 -9 135 2 95 22 c 0
 55 41 35 64 35 91 c 0
 35 118 54 141 93 159 c 1
 104 136 123 117 150 101 c 0
 177 84 205 74 235 70 c 1
 235 278 l 1
 208 286 186 294 167 303 c 0
 149 311 130 323 111 338 c 0
 92 353 77 373 67 398 c 0
 57 423 52 452 52 486 c 0
 52 537 69 579 102 610 c 0
 136 641 180 661 234 669 c 1
 233 706 231 728 230 736 c 1
 240 738 248 739 253 739 c 0
 278 739 290 730 290 712 c 2
 290 673 l 1
 335 672 376 662 415 644 c 0
 454 627 473 603 473 574 c 0
 473 539 450 517 405 508 c 1
 396 529 381 548 360 563 c 0
 339 579 315 589 290 594 c 1
 290 389 l 1
 315 382 334 377 348 372 c 0
 361 367 378 360 399 350 c 0
 420 340 436 329 447 317 c 0
 458 306 467 290 476 271 c 0
 484 252 488 231 488 206 c 0
 488 139 470 88 433 54 c 0
 396 19 349 -1 291 -7 c 1
 292 -42 294 -65 295 -76 c 1
 275 -78 l 2
 248 -78 235 -69 235 -51 c 2
396 176 m 0
 396 199 387 217 369 230 c 0
 351 242 325 253 290 262 c 1
 290 71 l 1
 321 75 347 86 366 103 c 0
 386 120 396 145 396 176 c 0
144 497 m 0
 144 474 152 455 167 441 c 0
 183 427 206 415 235 406 c 1
 235 594 l 1
 208 590 186 580 169 564 c 0
 152 547 144 525 144 497 c 0
EndSplineSet
Validated: 1
Substitution2: "'onum' Oldstyle Figures lookup 3 subtable" dollaroldstyle
EndChar

StartChar: percent
Encoding: 37 37 6
Width: 819
GlyphClass: 2
Flags: W
HStem: -10 64<585.068 659.615> 266 63<582.102 657.435> 326 64<161.068 235.615> 602 63<158.102 233.435>
VStem: 42 95<414.46 581.017> 256 97<409.214 578.79> 466 95<78.46 245.139> 680 97<73.2135 242.903>
LayerCount: 2
Fore
SplineSet
622 -10 m 0xdf
 574 -10 536 5 508 36 c 0
 480 67 466 108 466 160 c 0
 466 212 480 253 508 284 c 0
 536 314 574 329 622 329 c 0
 669 329 707 314 735 284 c 0
 763 253 777 212 777 160 c 0
 777 108 763 67 735 36 c 0
 707 5 669 -10 622 -10 c 0xdf
680 153 m 0
 680 182 675 208 665 231 c 0
 654 254 640 266 622 266 c 0
 604 266 589 257 578 238 c 0
 567 220 561 197 561 170 c 0
 561 140 566 113 577 89 c 0
 587 66 602 54 621 54 c 0
 639 54 653 63 664 82 c 0
 675 101 680 124 680 153 c 0
237 -33 m 1
 189 -26 165 -12 165 7 c 0
 165 15 168 23 173 31 c 2
 467 497 l 2
 511 566 551 633 586 696 c 1
 633 693 656 679 656 654 c 0
 656 647 654 639 649 632 c 2
 356 166 l 2
 311 95 272 29 237 -33 c 1
198 326 m 0xbf
 150 326 112 341 84 372 c 0
 56 403 42 444 42 496 c 0
 42 548 56 589 84 619 c 0
 112 650 150 665 198 665 c 0
 245 665 283 650 311 619 c 0
 339 589 353 548 353 496 c 0
 353 444 339 403 311 372 c 0
 283 341 245 326 198 326 c 0xbf
256 489 m 0
 256 518 251 544 241 567 c 0
 230 590 216 602 198 602 c 0
 180 602 165 593 154 574 c 0
 143 556 137 533 137 506 c 0
 137 476 142 449 153 425 c 0
 163 402 178 390 197 390 c 0
 215 390 229 399 240 418 c 0
 251 437 256 460 256 489 c 0
EndSplineSet
Validated: 1
EndChar

StartChar: ampersand
Encoding: 38 38 7
Width: 631
GlyphClass: 2
Flags: W
HStem: -10 81<522.999 583.292> -10 72<200.202 357.067> 607 66<193.056 300.795>
VStem: 42 106<111.349 254.247> 79 96<453.759 588.948> 320 97<459.671 584.246> 424 99<168.906 286.775>
LayerCount: 2
Fore
SplineSet
320 524 m 0x2e
 320 547 314 566 303 582 c 0
 292 599 274 607 251 607 c 0
 200 607 175 580 175 527 c 0
 175 498 193 455 228 397 c 1
 258 417 281 437 296 456 c 0
 312 475 320 498 320 524 c 0x2e
194 285 m 1
 163 253 148 219 148 183 c 0
 148 146 160 117 185 95 c 0
 209 73 241 62 280 62 c 0x76
 309 62 336 70 359 85 c 1
 308 136 253 203 194 285 c 1
523 239 m 0
 523 191 512 148 491 111 c 1
 532 84 570 71 603 71 c 1xae
 604 63 605 55 605 46 c 0
 605 30 598 17 584 6 c 0
 569 -5 547 -10 516 -10 c 0
 489 -10 456 4 417 33 c 1
 372 4 322 -10 266 -10 c 0
 205 -10 153 6 108 37 c 0
 64 69 42 113 42 169 c 0x76
 42 209 52 243 71 270 c 0
 90 297 117 323 151 347 c 1
 136 370 120 395 103 423 c 0
 87 450 79 481 79 518 c 0x6e
 79 565 96 603 130 631 c 0
 165 659 209 673 262 673 c 0
 311 673 349 660 376 635 c 0
 403 610 417 581 417 546 c 0
 417 521 413 498 404 477 c 0
 395 456 382 437 363 419 c 0
 345 401 330 387 318 378 c 0
 305 369 288 356 265 341 c 1
 310 276 360 219 417 168 c 1
 422 188 424 207 424 224 c 0
 424 253 421 273 415 286 c 1
 431 294 447 298 462 298 c 0
 503 298 523 278 523 239 c 0
EndSplineSet
Validated: 1
EndChar

StartChar: quotesingle
Encoding: 39 39 8
Width: 261
GlyphClass: 2
Flags: W
HStem: 471 265<68.6108 142.215>
VStem: 50 121<520.92 724.67>
LayerCount: 2
Fore
SplineSet
50 695 m 0
 50 708 56 718 68 725 c 0
 81 732 96 736 114 736 c 0
 130 736 144 732 154 724 c 0
 166 717 171 705 171 688 c 0
 171 659 165 601 152 516 c 0
 145 486 127 471 98 471 c 0
 87 471 75 473 61 477 c 1
 63 489 64 503 64 519 c 0
 64 560 62 598 57 633 c 0
 52 668 50 688 50 695 c 0
EndSplineSet
Validated: 1
EndChar

StartChar: parenleft
Encoding: 40 40 9
Width: 352
GlyphClass: 2
Flags: W
HStem: 711 20G<259 275.5>
VStem: 76 104<93.6413 438.934>
LayerCount: 2
Fore
SplineSet
76 269 m 0
 76 324 83 381 98 439 c 0
 113 497 130 547 151 588 c 0
 171 630 192 664 213 691 c 0
 234 718 252 731 266 731 c 0
 285 731 301 721 315 701 c 1
 274 656 242 592 217 511 c 0
 192 430 180 349 180 269 c 0
 180 181 193 98 218 19 c 0
 244 -60 276 -122 315 -167 c 1
 301 -187 285 -197 266 -197 c 0
 252 -197 235 -184 214 -158 c 0
 193 -132 172 -98 151 -58 c 0
 130 -16 113 34 98 93 c 0
 83 152 76 211 76 269 c 0
EndSplineSet
Validated: 1
Substitution2: "'sups' Superscript lookup 2 subtable" parenleft.superior
Substitution2: "'c2sc' Capitals to Small Capitals in Latin lookup 1 subtable" parenleft.sc
EndChar

StartChar: parenright
Encoding: 41 41 10
Width: 341
GlyphClass: 2
Flags: W
HStem: 711 20G<64.5 81>
VStem: 160 104<95.4311 440.359>
LayerCount: 2
Fore
SplineSet
264 265 m 0
 264 210 257 153 242 94 c 0
 227 35 210 -15 189 -58 c 0
 169 -100 148 -135 127 -162 c 0
 106 -189 88 -203 74 -203 c 0
 55 -203 39 -193 25 -173 c 1
 66 -128 98 -64 123 20 c 0
 148 102 160 184 160 265 c 0
 160 353 147 436 122 515 c 0
 96 594 64 656 25 701 c 1
 39 721 55 731 74 731 c 0
 88 731 105 718 126 692 c 0
 147 666 168 632 189 592 c 0
 210 550 227 500 242 441 c 0
 257 382 264 323 264 265 c 0
EndSplineSet
Validated: 1
Substitution2: "'sups' Superscript lookup 2 subtable" parenright.superior
Substitution2: "'c2sc' Capitals to Small Capitals in Latin lookup 1 subtable" parenright.sc
EndChar

StartChar: asterisk
Encoding: 42 42 11
Width: 421
GlyphClass: 2
Flags: W
HStem: 593 71<51.0033 95.1562> 723 20G<197 223.5>
VStem: 154 111<622.52 734.916>
LayerCount: 2
Fore
SplineSet
265 697 m 0
 265 681 260 654 251 617 c 1
 294 648 324 671 339 686 c 1
 368 661 383 639 383 620 c 0
 383 591 342 567 260 546 c 1
 287 521 324 491 369 457 c 1
 362 444 352 432 339 423 c 0
 326 414 313 409 298 409 c 0
 282 409 268 417 255 432 c 0
 242 448 227 473 209 507 c 1
 206 501 196 483 180 454 c 0
 164 425 152 405 144 392 c 1
 125 399 108 408 93 419 c 0
 78 431 70 443 70 456 c 0
 70 475 100 506 159 549 c 1
 94 572 51 587 30 593 c 1
 33 611 40 627 51 642 c 0
 62 657 76 664 93 664 c 0
 104 664 117 660 133 651 c 0
 149 642 163 632 174 620 c 1
 165 674 159 712 154 734 c 1
 175 740 191 743 203 743 c 0
 244 743 265 728 265 697 c 0
EndSplineSet
Validated: 1
EndChar

StartChar: plus
Encoding: 43 43 12
Width: 535
GlyphClass: 2
Flags: W
HStem: 211 88<49.4248 219.095 315.228 482.575>
VStem: 215 105<33.3311 214.816 293.321 471.481> 223 89<66.7559 218 290 437.381>
LayerCount: 2
Fore
SplineSet
261 481 m 0xa0
 278 481 291 477 302 469 c 0
 313 461 319 451 319 438 c 0
 319 425 318 399 315 362 c 0
 313 325 312 300 312 289 c 1xa0
 381 289 441 292 492 299 c 1
 496 288 498 275 498 260 c 0
 498 247 493 235 483 225 c 0
 474 216 461 211 446 211 c 0
 433 211 410 212 376 214 c 0
 342 217 320 218 311 218 c 1
 311 150 314 87 320 28 c 1
 301 24 285 22 273 22 c 0
 258 22 244 26 232 33 c 0
 221 40 215 51 215 66 c 0xc0
 215 82 216 106 218 139 c 0
 221 172 222 198 222 219 c 1
 160 218 100 215 41 210 c 1
 38 223 37 236 37 248 c 0
 37 261 41 272 49 282 c 0
 58 292 71 297 89 297 c 0
 104 297 125 296 152 294 c 0
 180 291 204 290 223 290 c 1
 223 361 220 422 214 474 c 1
 228 479 244 481 261 481 c 0xa0
EndSplineSet
Validated: 1
Substitution2: "'sups' Superscript lookup 2 subtable" plus.superior
EndChar

StartChar: comma
Encoding: 44 44 13
Width: 243
GlyphClass: 2
Flags: W
HStem: -154 53<24.8906 81.3408>
VStem: 103 91<-67.2892 38.5>
LayerCount: 2
Fore
SplineSet
103 -29 m 0
 103 1 87 19 54 25 c 1
 47 38 44 50 44 63 c 0
 44 79 51 92 65 103 c 0
 79 114 96 120 116 120 c 0
 137 120 156 112 171 96 c 0
 186 80 194 55 194 22 c 0
 194 -22 180 -62 152 -99 c 0
 125 -136 92 -154 54 -154 c 0
 33 -154 23 -141 23 -116 c 0
 23 -109 23 -104 24 -101 c 2
 29 -101 l 2
 50 -101 68 -94 82 -79 c 0
 96 -64 103 -48 103 -29 c 0
EndSplineSet
Validated: 1
EndChar

StartChar: hyphen
Encoding: 45 45 14
Width: 260
GlyphClass: 2
Flags: W
HStem: 223 76<37.4248 240.575>
VStem: 25 230<236.377 289.531>
LayerCount: 2
Fore
SplineSet
255 269 m 0
 255 255 250 244 241 236 c 0
 232 227 219 223 203 223 c 0
 196 223 184 224 167 226 c 0
 150 227 136 228 125 228 c 0
 96 228 64 224 30 217 c 1
 27 233 25 246 25 257 c 0
 25 270 29 280 37 290 c 0
 46 298 59 303 77 303 c 0
 82 303 93 302 112 301 c 0
 131 300 147 299 160 299 c 0
 192 299 221 302 248 309 c 1
 253 295 255 282 255 269 c 0
EndSplineSet
Validated: 1
Substitution2: "'sups' Superscript lookup 2 subtable" hyphen.superior
EndChar

StartChar: period
Encoding: 46 46 15
Width: 238
GlyphClass: 2
Flags: W
HStem: -10 142<64.7046 164.295>
VStem: 42 145<10.6584 111.342>
LayerCount: 2
Fore
SplineSet
114 -10 m 0
 94 -10 77 -3 63 10 c 0
 49 23 42 40 42 61 c 0
 42 81 49 98 64 112 c 0
 79 125 96 132 116 132 c 0
 135 132 152 125 166 112 c 0
 180 98 187 81 187 61 c 0
 187 41 180 24 165 10 c 0
 150 -3 133 -10 114 -10 c 0
EndSplineSet
Validated: 1
EndChar

StartChar: slash
Encoding: 47 47 16
Width: 263
GlyphClass: 2
Flags: W
HStem: 722 20G<187.5 206.5>
VStem: 162 72<574.705 739.842>
LayerCount: 2
Fore
SplineSet
109 -115 m 1
 98 -117 87 -118 76 -118 c 0
 49 -118 36 -109 36 -90 c 0
 36 -89 37 -84 38 -76 c 0
 39 -69 42 -52 46 -24 c 0
 51 2 56 35 62 73 c 0
 68 111 77 169 90 248 c 0
 103 326 116 412 131 506 c 0
 144 583 154 660 162 737 c 1
 172 740 182 742 193 742 c 0
 220 742 234 733 234 714 c 0
 234 711 229 677 218 611 c 0
 193 457 167 292 140 116 c 0
 123 9 112 -68 109 -115 c 1
EndSplineSet
Validated: 1
EndChar

StartChar: zero
Encoding: 48 48 17
Width: 535
GlyphClass: 2
Flags: W
HStem: -10 74<215.603 332.81> 599 74<211.664 328.49>
VStem: 25 108<193.655 487.823> 412 108<175.292 472.413>
LayerCount: 2
Fore
SplineSet
272 -10 m 0
 197 -10 137 21 92 82 c 0
 47 144 25 227 25 331 c 0
 25 436 47 519 92 581 c 0
 137 642 197 673 272 673 c 0
 347 673 408 642 452 581 c 0
 498 519 520 436 520 331 c 0
 520 228 498 145 452 83 c 0
 408 21 347 -10 272 -10 c 0
412 315 m 0
 412 361 407 405 397 446 c 0
 388 488 372 524 350 554 c 0
 328 584 302 599 273 599 c 0
 232 599 199 576 172 530 c 0
 146 483 133 427 133 360 c 0
 133 311 138 264 147 220 c 0
 157 177 173 140 194 110 c 0
 216 79 242 64 272 64 c 0
 314 64 348 88 374 136 c 0
 399 184 412 244 412 315 c 0
EndSplineSet
Validated: 1
Substitution2: "'onum' Oldstyle Figures lookup 3 subtable" zerooldstyle
Substitution2: "'sups' Superscript lookup 2 subtable" zero.superior
Substitution2: "'c2sc' Capitals to Small Capitals in Latin lookup 1 subtable" zero.sc
EndChar

StartChar: one
Encoding: 49 49 18
Width: 535
GlyphClass: 2
Flags: W
HStem: -1 72<121.531 239 341.683 444.191> 653 20G<287.5 306.5>
VStem: 239 105<71 289.823 297.866 590> 241 96<71.9434 501.303>
LayerCount: 2
Fore
SplineSet
344 68 m 1xe0
 391 68 425 69 444 72 c 1
 447 63 448 54 448 45 c 0
 448 14 435 -2 409 -2 c 0
 404 -2 382 -2 342 -1 c 0
 303 -0 268 -0 239 -0 c 0
 182 -0 143 -0 122 -1 c 1
 119 11 117 21 117 29 c 0
 117 57 136 71 175 71 c 2
 239 71 l 1xe0
 239 83 239 118 240 177 c 0
 241 236 241 289 241 338 c 0
 241 432 240 516 238 590 c 1
 167 582 127 577 117 575 c 1
 115 585 114 594 114 602 c 0
 114 633 127 651 153 656 c 0
 225 667 274 673 301 673 c 0
 312 673 322 669 332 662 c 0
 340 655 345 643 345 626 c 0
 345 625 344 584 341 505 c 0
 338 426 337 356 337 295 c 0xd0
 337 184 339 109 344 68 c 1xe0
EndSplineSet
Validated: 1
Substitution2: "'onum' Oldstyle Figures lookup 3 subtable" oneoldstyle
Substitution2: "'sups' Superscript lookup 2 subtable" one.superior
Substitution2: "'c2sc' Capitals to Small Capitals in Latin lookup 1 subtable" one.sc
EndChar

StartChar: two
Encoding: 50 50 19
Width: 535
GlyphClass: 2
Flags: W
HStem: -2 78<160 464.375> 597 76<171.083 312.365>
VStem: 360 104<382.84 548.403>
LayerCount: 2
Fore
SplineSet
104 512 m 1
 89 514 77 519 68 528 c 0
 59 537 55 548 55 561 c 0
 55 587 77 612 121 636 c 0
 165 661 212 673 263 673 c 0
 318 673 365 657 405 625 c 0
 444 593 464 548 464 490 c 0
 464 453 458 418 445 385 c 0
 432 352 411 318 381 283 c 0
 351 248 321 217 290 188 c 0
 259 159 215 122 160 77 c 1
 173 76 199 76 238 76 c 0
 306 76 356 78 388 81 c 0
 419 84 451 92 482 104 c 1
 491 84 496 67 496 53 c 0
 496 32 488 19 471 12 c 0
 445 3 390 -2 305 -2 c 0
 202 -2 129 -1 87 -0 c 0
 55 -0 39 16 39 47 c 0
 39 54 39 58 40 61 c 0
 165 173 250 257 294 312 c 0
 338 368 360 421 360 471 c 0
 360 510 349 540 327 563 c 0
 304 586 277 597 245 597 c 0
 219 597 193 589 168 574 c 0
 142 558 121 537 104 512 c 1
EndSplineSet
Validated: 1
Substitution2: "'onum' Oldstyle Figures lookup 3 subtable" twooldstyle
Substitution2: "'sups' Superscript lookup 2 subtable" two.superior
Substitution2: "'c2sc' Capitals to Small Capitals in Latin lookup 1 subtable" two.sc
EndChar

StartChar: three
Encoding: 51 51 20
Width: 535
GlyphClass: 2
Flags: W
HStem: -10 74<122.261 296.535> 321 59<146.399 261.912> 598 75<170.291 298.775>
VStem: 333 108<440.942 563.662> 354 108<120.917 256.653>
LayerCount: 2
Fore
SplineSet
327 364 m 1xf0
 380 344 415 320 434 292 c 0
 453 264 462 230 462 190 c 0
 462 136 440 89 396 49 c 0
 352 10 291 -10 214 -10 c 0
 167 -10 128 -4 99 7 c 0
 70 19 55 35 55 55 c 0
 55 68 59 79 68 88 c 0
 77 97 88 102 102 104 c 1
 123 77 159 64 211 64 c 0
 256 64 292 77 317 102 c 0
 342 128 354 158 354 191 c 0xe8
 354 226 339 257 309 282 c 0
 278 307 236 320 182 320 c 0
 175 320 169 320 166 321 c 0
 162 322 158 323 155 326 c 0
 151 329 148 333 147 339 c 0
 146 345 145 353 145 363 c 0
 145 370 145 375 146 380 c 1
 208 380 255 392 286 416 c 0
 317 440 333 468 333 501 c 0
 333 527 324 550 307 569 c 0
 290 588 267 598 238 598 c 0
 216 598 194 591 173 578 c 0
 151 565 134 545 121 520 c 1
 106 520 93 525 84 534 c 0
 74 544 69 556 69 569 c 0
 69 592 88 615 127 638 c 0
 166 661 209 673 257 673 c 0
 315 673 360 658 393 628 c 0
 425 597 441 561 441 519 c 0
 441 487 432 457 413 429 c 0
 394 401 366 379 327 364 c 1xf0
EndSplineSet
Validated: 1
Substitution2: "'onum' Oldstyle Figures lookup 3 subtable" threeoldstyle
Substitution2: "'sups' Superscript lookup 2 subtable" three.superior
Substitution2: "'c2sc' Capitals to Small Capitals in Latin lookup 1 subtable" three.sc
EndChar

StartChar: four
Encoding: 52 52 21
Width: 535
GlyphClass: 2
Flags: W
HStem: -10 21G<376.5 399.5> 200 78<142.327 327 423 508.24> 653 20G<377 398.5>
VStem: 327 96<3.42554 200 284 545.296>
LayerCount: 2
Fore
SplineSet
329 546 m 1
 265 468 202 380 139 281 c 1
 168 279 199 278 230 278 c 0
 263 278 296 279 327 281 c 1
 327 352 328 441 329 546 c 1
324 661 m 0
 337 669 360 673 394 673 c 0
 403 673 416 672 432 671 c 0
 432 669 431 655 430 628 c 0
 429 601 427 565 426 518 c 0
 424 471 423 422 423 371 c 2
 423 284 l 1
 472 288 505 294 521 301 c 1
 526 286 529 271 529 255 c 0
 529 232 522 217 509 212 c 0
 493 205 464 202 422 201 c 1
 422 106 429 39 443 -2 c 1
 428 -7 410 -10 389 -10 c 0
 364 -10 348 -6 339 3 c 0
 330 12 325 26 325 47 c 0
 325 73 326 124 327 200 c 1
 186 200 97 202 60 207 c 0
 45 209 37 224 37 253 c 0
 37 263 38 273 39 284 c 1
 68 333 115 402 181 490 c 0
 247 578 295 635 324 661 c 0
EndSplineSet
Validated: 1
Substitution2: "'onum' Oldstyle Figures lookup 3 subtable" fouroldstyle
Substitution2: "'sups' Superscript lookup 2 subtable" four.superior
Substitution2: "'c2sc' Capitals to Small Capitals in Latin lookup 1 subtable" four.sc
EndChar

StartChar: five
Encoding: 53 53 22
Width: 535
GlyphClass: 2
Flags: W
HStem: -10 74<123.766 291.563> 365 71<178.143 280.108> 574 88<191 438.633> 650 20G<425.5 443.5>
VStem: 359 108<134.17 290.509>
LayerCount: 2
Fore
SplineSet
374 574 m 0xe8
 322 574 261 576 191 580 c 1
 177 430 l 1
 202 434 225 436 247 436 c 0
 319 436 374 417 411 378 c 0
 448 340 467 290 467 228 c 0
 467 160 445 103 400 58 c 0
 356 13 295 -10 218 -10 c 0
 167 -10 127 -4 99 8 c 0
 71 21 57 36 57 55 c 0
 57 82 73 98 104 104 c 1
 125 77 160 64 209 64 c 0
 256 64 293 79 319 109 c 0
 346 139 359 174 359 214 c 0
 359 255 344 291 313 320 c 0
 282 350 240 365 187 365 c 0
 160 365 133 363 108 360 c 1
 101 367 98 383 98 408 c 0
 98 418 102 503 111 664 c 1
 132 663 202 662 322 662 c 0xe8
 372 662 411 665 440 670 c 1xd8
 447 658 450 644 450 628 c 0
 450 592 425 574 374 574 c 0xe8
EndSplineSet
Validated: 1
Substitution2: "'onum' Oldstyle Figures lookup 3 subtable" fiveoldstyle
Substitution2: "'sups' Superscript lookup 2 subtable" five.superior
Substitution2: "'c2sc' Capitals to Small Capitals in Latin lookup 1 subtable" five.sc
EndChar

StartChar: six
Encoding: 54 54 23
Width: 535
GlyphClass: 2
Flags: W
HStem: -10 75<216.009 341.347> 326 75<221.898 338.335> 597 76<295.314 430.225>
VStem: 54 108<134.907 286.927> 384 108<114.356 277.408>
LayerCount: 2
Fore
SplineSet
276 326 m 0
 237 326 199 306 162 267 c 1
 163 239 165 214 168 193 c 0
 172 171 178 150 186 129 c 0
 194 108 206 93 222 82 c 0
 238 71 257 65 280 65 c 0
 313 65 338 78 356 103 c 0
 375 128 384 159 384 194 c 0
 384 234 374 266 353 290 c 0
 333 314 307 326 276 326 c 0
272 -10 m 0
 231 -10 196 -2 166 14 c 0
 137 30 114 52 98 80 c 0
 83 108 71 138 64 170 c 0
 57 202 54 237 54 275 c 0
 54 342 66 406 91 465 c 0
 116 524 155 574 208 614 c 0
 261 653 322 673 391 673 c 0
 420 673 435 658 435 629 c 0
 435 623 433 611 430 593 c 1
 417 596 402 597 387 597 c 0
 322 597 270 571 230 520 c 0
 190 468 168 405 163 332 c 1
 204 378 254 401 313 401 c 0
 362 401 404 384 439 349 c 0
 474 314 492 267 492 210 c 0
 492 153 472 102 432 57 c 0
 392 12 339 -10 272 -10 c 0
EndSplineSet
Validated: 1
Substitution2: "'onum' Oldstyle Figures lookup 3 subtable" sixoldstyle
Substitution2: "'sups' Superscript lookup 2 subtable" six.superior
Substitution2: "'c2sc' Capitals to Small Capitals in Latin lookup 1 subtable" six.sc
EndChar

StartChar: seven
Encoding: 55 55 24
Width: 535
GlyphClass: 2
Flags: W
HStem: -10 21G<122.5 150.5> 574 88<56.5513 379> 650 20G<51.5 71.5>
LayerCount: 2
Fore
SplineSet
59 32 m 1xc0
 113 89 172 173 236 286 c 0
 299 399 347 496 379 578 c 1
 283 575 197 574 121 574 c 0xc0
 70 574 45 592 45 628 c 0
 45 639 48 653 55 670 c 1xa0
 88 665 127 662 170 662 c 0
 343 662 447 663 482 664 c 1
 487 653 490 641 490 627 c 0
 490 614 488 601 484 589 c 0
 472 554 436 478 377 361 c 0
 318 245 264 144 217 59 c 0
 192 13 165 -10 136 -10 c 0
 109 -10 84 4 59 32 c 1xc0
EndSplineSet
Validated: 1
Substitution2: "'onum' Oldstyle Figures lookup 3 subtable" sevenoldstyle
Substitution2: "'sups' Superscript lookup 2 subtable" seven.superior
Substitution2: "'c2sc' Capitals to Small Capitals in Latin lookup 1 subtable" seven.sc
EndChar

StartChar: eight
Encoding: 56 56 25
Width: 535
GlyphClass: 2
Flags: W
HStem: -11 75<198.711 340.289> 599 75<202.806 335.236>
VStem: 47 105<110.346 261.764> 73 102<460.327 573.082> 364 102<447.36 572.732> 385 108<109.25 248.018>
LayerCount: 2
Fore
SplineSet
364 525 m 0xd8
 364 546 355 564 336 578 c 0
 317 592 295 599 269 599 c 0
 243 599 221 592 202 578 c 0
 184 564 175 546 175 525 c 0
 175 496 184 472 202 453 c 0
 220 433 247 415 282 398 c 1
 337 424 364 466 364 525 c 0xd8
269 64 m 0
 304 64 333 75 354 98 c 0
 375 120 385 146 385 176 c 0
 385 211 374 240 353 261 c 0
 332 282 296 304 246 327 c 1
 212 306 188 285 174 264 c 0
 159 242 152 213 152 176 c 0xe4
 152 146 163 120 184 98 c 0
 205 75 234 64 269 64 c 0
270 -11 m 0
 199 -11 144 8 105 45 c 0
 66 82 47 126 47 177 c 0xe4
 47 255 92 316 181 359 c 1
 109 404 73 460 73 525 c 0
 73 569 92 605 131 633 c 0
 169 660 215 674 269 674 c 0
 323 674 369 660 408 633 c 0
 447 605 466 569 466 525 c 0xd8
 466 459 429 409 356 375 c 1
 447 328 493 262 493 177 c 0
 493 126 474 82 435 45 c 0
 396 8 341 -11 270 -11 c 0
EndSplineSet
Validated: 1
Substitution2: "'onum' Oldstyle Figures lookup 3 subtable" eightoldstyle
Substitution2: "'sups' Superscript lookup 2 subtable" eight.superior
Substitution2: "'c2sc' Capitals to Small Capitals in Latin lookup 1 subtable" eight.sc
EndChar

StartChar: nine
Encoding: 57 57 26
Width: 535
GlyphClass: 2
Flags: W
HStem: -10 76<107.775 242.686> 262 75<199.665 316.102> 598 75<196.653 321.991>
VStem: 46 108<385.592 548.644> 376 108<376.073 528.093>
LayerCount: 2
Fore
SplineSet
262 337 m 0
 301 337 339 357 376 396 c 1
 375 424 373 449 370 470 c 0
 366 492 360 513 352 534 c 0
 344 555 332 570 316 581 c 0
 300 592 281 598 258 598 c 0
 225 598 200 585 182 560 c 0
 163 535 154 504 154 469 c 0
 154 429 164 397 185 373 c 0
 205 349 231 337 262 337 c 0
266 673 m 0
 307 673 342 665 372 649 c 0
 401 633 424 611 440 583 c 0
 455 555 467 525 474 493 c 0
 481 461 484 426 484 388 c 0
 484 321 472 257 447 198 c 0
 422 139 383 89 330 49 c 0
 277 10 216 -10 147 -10 c 0
 118 -10 103 5 103 34 c 0
 103 40 105 52 108 70 c 1
 121 67 136 66 151 66 c 0
 216 66 268 92 308 143 c 0
 348 195 370 258 375 331 c 1
 334 285 284 262 225 262 c 0
 176 262 134 279 99 314 c 0
 64 349 46 396 46 453 c 0
 46 510 66 561 106 606 c 0
 146 651 199 673 266 673 c 0
EndSplineSet
Validated: 1
Substitution2: "'onum' Oldstyle Figures lookup 3 subtable" nineoldstyle
Substitution2: "'sups' Superscript lookup 2 subtable" nine.superior
Substitution2: "'c2sc' Capitals to Small Capitals in Latin lookup 1 subtable" nine.sc
EndChar

StartChar: colon
Encoding: 58 58 27
Width: 238
GlyphClass: 2
Flags: W
HStem: -10 153<65.3213 164.679> 332 153<65.3213 164.679>
VStem: 42 145<11.3027 119.996 353.303 461.996>
LayerCount: 2
Fore
SplineSet
115 332 m 0
 94 332 77 339 63 354 c 0
 49 368 42 386 42 408 c 0
 42 429 49 448 64 462 c 0
 78 478 95 485 115 485 c 0
 135 485 152 478 166 462 c 0
 180 448 187 429 187 408 c 0
 187 386 180 368 166 354 c 0
 152 339 135 332 115 332 c 0
115 -10 m 0
 94 -10 77 -3 63 12 c 0
 49 26 42 44 42 66 c 0
 42 87 49 106 64 120 c 0
 78 136 95 143 115 143 c 0
 135 143 152 136 166 120 c 0
 180 106 187 87 187 66 c 0
 187 44 180 26 166 12 c 0
 152 -3 135 -10 115 -10 c 0
EndSplineSet
Validated: 1
EndChar

StartChar: semicolon
Encoding: 59 59 28
Width: 259
GlyphClass: 2
Flags: W
HStem: -154 53<24.8906 81.3408> 332 153<71.3213 170.679>
VStem: 44 150<25.6087 94.3594 356.571 457.702> 103 91<-67.2892 38.5>
LayerCount: 2
Fore
SplineSet
103 -29 m 0xd0
 103 1 87 19 54 25 c 1
 47 38 44 50 44 63 c 0xe0
 44 79 51 92 65 103 c 0
 79 114 96 120 116 120 c 0
 137 120 156 112 171 96 c 0
 186 80 194 55 194 22 c 0
 194 -22 180 -62 152 -99 c 0
 125 -136 92 -154 54 -154 c 0
 33 -154 23 -141 23 -116 c 0
 23 -109 23 -104 24 -101 c 2
 29 -101 l 2
 50 -101 68 -94 82 -79 c 0
 96 -64 103 -48 103 -29 c 0xd0
121 332 m 0
 100 332 83 339 69 353 c 0
 55 368 48 386 48 408 c 0
 48 429 55 447 70 462 c 0
 84 477 101 485 121 485 c 0
 141 485 158 477 172 462 c 0
 186 447 193 429 193 408 c 0
 193 386 186 368 172 353 c 0
 158 339 141 332 121 332 c 0
EndSplineSet
Validated: 1
EndChar

StartChar: less
Encoding: 60 60 29
Width: 535
GlyphClass: 2
Flags: W
VStem: 95 320
LayerCount: 2
Fore
SplineSet
415 436 m 1
 204 253 l 1
 415 59 l 1
 410 48 401 38 388 30 c 0
 376 22 364 18 351 18 c 0
 336 18 324 22 315 30 c 2
 95 253 l 1
 316 464 l 2
 325 473 336 477 351 477 c 0
 365 477 378 473 390 464 c 0
 402 456 410 447 415 436 c 1
EndSplineSet
Validated: 1
EndChar

StartChar: equal
Encoding: 61 61 30
Width: 535
GlyphClass: 2
Flags: W
HStem: 113 88<71.4248 267.824 272.971 461.529> 113 79<177 461.529> 121 71<111.339 423.057> 309 88<71.4248 267.824 272.971 461.529> 309 79<177 461.529> 317 71<111.339 423.057>
LayerCount: 2
Fore
SplineSet
476 162 m 0x80
 476 148 471 136 462 127 c 0
 452 118 439 113 424 113 c 0x80
 404 113 377 114 344 117 c 0
 310 120 286 121 271 121 c 0x20
 205 121 136 118 64 111 c 1
 61 127 59 140 59 150 c 0
 59 163 63 174 71 184 c 0
 80 194 93 199 111 199 c 0
 118 199 140 198 177 196 c 0
 214 193 244 192 269 192 c 0x40
 354 192 421 195 470 201 c 1
 474 189 476 176 476 162 c 0x80
476 358 m 0
 476 344 471 332 462 323 c 0
 452 314 439 309 424 309 c 0x10
 404 309 377 310 344 313 c 0
 310 316 286 317 271 317 c 0x04
 205 317 136 314 64 307 c 1
 61 323 59 336 59 346 c 0
 59 359 63 370 71 380 c 0
 80 390 93 395 111 395 c 0
 118 395 140 394 177 392 c 0
 214 389 244 388 269 388 c 0x08
 354 388 421 391 470 397 c 1x10
 474 385 476 372 476 358 c 0
EndSplineSet
Validated: 1
EndChar

StartChar: greater
Encoding: 62 62 31
Width: 535
GlyphClass: 2
Flags: W
VStem: 110 321
LayerCount: 2
Fore
SplineSet
110 59 m 1
 321 253 l 1
 110 436 l 1
 115 447 124 456 136 464 c 0
 148 473 161 477 175 477 c 0
 189 477 201 473 211 464 c 2
 431 253 l 1
 211 30 l 2
 202 22 190 18 175 18 c 0
 162 18 149 22 137 30 c 0
 125 37 116 47 110 59 c 1
EndSplineSet
Validated: 1
EndChar

StartChar: question
Encoding: 63 63 32
Width: 399
GlyphClass: 2
Flags: W
HStem: -10 142<142.705 242.295> 614 70<147.126 260.184>
VStem: 120 145<10.6584 111.342> 127 104<223.46 341.709> 276 106<474.88 598.997>
LayerCount: 2
Fore
SplineSet
192 -10 m 0xe8
 172 -10 155 -3 141 10 c 0
 127 23 120 40 120 61 c 0
 120 81 127 98 142 112 c 0
 157 125 174 132 194 132 c 0
 213 132 230 125 244 112 c 0
 258 98 265 81 265 61 c 0
 265 41 258 24 243 10 c 0
 228 -3 211 -10 192 -10 c 0xe8
127 275 m 0xd8
 127 293 131 311 140 329 c 0
 149 347 157 361 166 370 c 0
 174 380 187 394 204 413 c 0
 220 430 232 443 240 453 c 0
 248 463 256 477 264 494 c 0
 272 511 276 529 276 548 c 0
 276 570 270 586 258 598 c 0
 246 608 230 614 210 614 c 0
 188 614 167 607 148 593 c 0
 128 579 115 561 109 538 c 1
 59 546 34 564 34 591 c 0
 34 619 50 642 82 658 c 0
 114 676 152 684 196 684 c 0
 249 684 294 672 329 648 c 0
 364 625 382 591 382 547 c 0
 382 522 377 498 366 476 c 0
 356 453 346 436 336 425 c 0
 325 413 311 399 292 382 c 0
 279 370 269 360 262 353 c 0
 255 346 248 335 242 322 c 0
 234 308 231 294 231 281 c 0
 231 266 235 248 242 226 c 1
 223 215 205 209 188 209 c 0
 147 209 127 231 127 275 c 0xd8
EndSplineSet
Validated: 1
Substitution2: "'c2sc' Capitals to Small Capitals in Latin lookup 1 subtable" question.sc
EndChar

StartChar: at
Encoding: 64 64 33
Width: 855
GlyphClass: 2
Flags: W
HStem: -109 76<285.629 493.253> 54 76<350.228 422.433> 69 63<560.983 630.565> 369 74<376.427 475.456> 520 70<363.787 581.219>
VStem: 76 95<83.0455 307.016> 239 97<140.55 309.856> 681 97<224.044 420.266>
LayerCount: 2
Fore
SplineSet
354 54 m 0xdf
 321 54 293 66 272 91 c 0
 250 116 239 151 239 196 c 0
 239 264 258 322 295 370 c 0
 332 419 378 443 433 443 c 0
 495 443 548 428 593 397 c 1
 568 304 556 233 556 184 c 0
 556 149 567 132 588 132 c 0
 610 132 631 148 651 181 c 0
 671 214 681 257 681 312 c 0
 681 378 664 429 629 466 c 0
 594 502 541 520 469 520 c 0
 410 520 358 503 311 468 c 0
 264 433 229 391 206 340 c 0
 183 290 171 239 171 186 c 0
 171 123 190 71 228 29 c 0
 267 -12 323 -33 398 -33 c 0
 467 -33 511 -12 531 30 c 1
 570 17 589 0 589 -21 c 0
 589 -47 570 -68 532 -85 c 0
 494 -101 447 -109 390 -109 c 0
 287 -109 209 -81 156 -26 c 0
 103 29 76 98 76 180 c 0
 76 229 86 277 104 325 c 0
 124 373 150 417 184 456 c 0
 219 496 262 528 316 553 c 0
 368 578 426 590 489 590 c 0
 577 590 647 566 700 518 c 0
 752 471 778 410 778 337 c 0
 778 264 755 202 710 148 c 0
 665 96 618 69 570 69 c 0xbf
 525 69 496 95 483 146 c 1
 448 85 405 54 354 54 c 0xdf
461 200 m 1
 464 215 467 241 471 276 c 0
 475 312 478 335 479 344 c 1
 462 361 443 369 423 369 c 0
 398 369 377 355 361 328 c 0
 344 301 336 266 336 221 c 0
 336 194 340 172 348 155 c 0
 356 138 367 130 381 130 c 0xdf
 406 130 433 153 461 200 c 1
EndSplineSet
Validated: 1
EndChar

StartChar: A
Encoding: 65 65 34
Width: 573
GlyphClass: 2
Flags: W
HStem: -10 21G<511 533.5> 199 74<204 374>
VStem: 4 89<4.9215 45.3271>
LayerCount: 2
Fore
SplineSet
374 274 m 1
 364 301 354 330 344 360 c 0
 335 389 325 421 314 455 c 0
 303 489 296 512 292 525 c 1
 260 424 231 341 204 275 c 1
 247 274 279 273 302 273 c 0
 337 273 361 273 374 274 c 1
281 199 m 0
 264 199 228 200 173 201 c 1
 130 90 103 16 93 -21 c 1
 34 -14 4 -1 4 20 c 0
 4 29 18 67 47 134 c 0
 75 200 109 284 150 387 c 0
 191 490 223 581 246 660 c 1
 259 662 277 663 298 663 c 0
 315 663 329 660 338 653 c 0
 348 646 357 631 364 610 c 0
 415 450 453 340 476 280 c 0
 526 150 564 60 589 10 c 1
 564 -3 542 -10 525 -10 c 0
 497 -10 478 -1 467 17 c 0
 459 38 448 68 434 109 c 0
 419 149 408 180 400 201 c 1
 335 200 295 199 281 199 c 0
EndSplineSet
Validated: 1
Substitution2: "'c2sc' Capitals to Small Capitals in Latin lookup 1 subtable" a.sc
EndChar

StartChar: B
Encoding: 66 66 35
Width: 550
GlyphClass: 2
Flags: W
HStem: -10 77<185.99 345.197> 325 62<179.795 329.139> 596 77<176.383 330.315>
VStem: 75 99<125.453 322.381 388.009 592.551> 374 114<427.214 556.17> 398 114<118.078 270.483>
LayerCount: 2
Fore
SplineSet
230 596 m 0xf8
 217 596 199 595 175 592 c 1
 178 541 179 474 179 389 c 1
 196 388 211 387 224 387 c 0
 324 387 374 421 374 490 c 0
 374 561 326 596 230 596 c 0xf8
270 67 m 0
 306 67 336 78 361 101 c 0
 386 123 398 153 398 192 c 0xf4
 398 235 384 268 358 291 c 0
 330 314 297 325 257 325 c 0
 221 325 195 323 178 320 c 1
 178 291 176 252 174 202 c 0
 170 152 168 119 165 103 c 1
 176 93 191 85 212 78 c 0
 232 71 251 67 270 67 c 0
59 53 m 1
 70 129 75 240 75 387 c 0
 75 511 71 602 62 661 c 1
 113 669 169 673 229 673 c 0
 305 673 367 660 416 633 c 0
 464 606 488 562 488 501 c 0xf8
 488 434 459 388 401 362 c 1
 475 331 512 274 512 191 c 0
 512 128 490 78 448 43 c 0
 404 8 352 -10 290 -10 c 0
 189 -10 112 11 59 53 c 1
EndSplineSet
Validated: 1
Substitution2: "'c2sc' Capitals to Small Capitals in Latin lookup 1 subtable" b.sc
EndChar

StartChar: C
Encoding: 67 67 36
Width: 609
GlyphClass: 2
Flags: W
HStem: -10 79<274.693 451.71> 594 79<263.902 425.058>
VStem: 42 114<214.521 467.521>
LayerCount: 2
Fore
SplineSet
517 155 m 1
 532 148 544 138 555 127 c 0
 566 115 571 103 571 90 c 0
 571 63 552 39 513 20 c 0
 474 -0 424 -10 365 -10 c 0
 268 -10 190 22 131 85 c 0
 72 148 42 230 42 332 c 0
 42 439 72 522 131 583 c 0
 190 643 269 673 370 673 c 0
 424 673 469 663 506 642 c 0
 543 621 561 595 561 564 c 0
 561 548 555 534 542 522 c 0
 529 510 509 502 482 498 c 1
 472 529 454 553 429 570 c 0
 403 586 376 594 348 594 c 0
 291 594 245 571 210 525 c 0
 174 479 156 421 156 351 c 0
 156 270 174 203 210 150 c 0
 247 96 298 69 364 69 c 0
 394 69 423 76 451 90 c 0
 479 105 501 126 517 155 c 1
EndSplineSet
Validated: 1
Substitution2: "'c2sc' Capitals to Small Capitals in Latin lookup 1 subtable" c.sc
EndChar

StartChar: D
Encoding: 68 68 37
Width: 638
GlyphClass: 2
Flags: W
HStem: -10 80<184.964 377.87> 596 77<173.248 345.987>
VStem: 72 104<169.063 592.677> 482 114<195.144 450.525>
LayerCount: 2
Fore
SplineSet
56 53 m 1
 65 114 71 226 72 389 c 0
 72 506 68 596 59 661 c 1
 101 669 155 673 220 673 c 0
 274 673 322 667 365 656 c 0
 408 645 448 626 483 601 c 0
 519 576 547 541 566 496 c 0
 586 451 596 396 596 333 c 0
 596 233 568 151 513 86 c 0
 458 22 379 -10 276 -10 c 0
 181 -10 108 11 56 53 c 1
172 592 m 1
 175 549 176 498 176 439 c 0
 176 301 171 190 162 105 c 1
 194 82 234 70 281 70 c 0
 318 70 351 77 378 92 c 0
 405 107 426 127 440 152 c 0
 455 177 465 203 472 230 c 0
 479 257 482 286 482 315 c 0
 482 408 460 478 416 525 c 0
 373 572 310 596 229 596 c 0
 216 596 197 595 172 592 c 1
EndSplineSet
Validated: 1
Substitution2: "'c2sc' Capitals to Small Capitals in Latin lookup 1 subtable" d.sc
EndChar

StartChar: E
Encoding: 69 69 38
Width: 491
GlyphClass: 2
Flags: W
HStem: -2 80<179.497 456.358> 317 79<175 357.67> 583 83<173.34 445.25>
VStem: 68 114<78 310.805> 70 105<79.3037 317 396 581.755>
LayerCount: 2
Fore
SplineSet
171 583 m 1xe8
 174 557 175 495 175 396 c 1
 250 396 l 2
 303 396 341 397 364 400 c 1
 367 394 368 383 368 368 c 0
 368 349 365 337 358 330 c 0
 351 323 341 319 326 318 c 0
 309 317 287 317 259 317 c 2
 175 317 l 1xe8
 175 184 177 105 182 78 c 1
 210 77 233 76 251 76 c 0
 358 76 427 83 458 98 c 1
 463 83 466 65 466 45 c 0
 466 30 463 19 457 13 c 0
 444 3 387 -2 286 -2 c 0
 195 -2 140 -1 120 0 c 0
 99 1 85 5 78 14 c 0
 71 22 68 36 68 57 c 0xf0
 68 70 68 97 69 139 c 0
 70 181 70 213 70 236 c 2
 70 430 l 2
 70 523 65 599 56 657 c 1
 129 663 203 666 279 666 c 0
 378 666 433 661 446 651 c 0
 452 645 455 634 455 619 c 0
 455 599 452 581 447 565 c 1
 410 579 352 586 273 586 c 0
 241 586 207 585 171 583 c 1xe8
EndSplineSet
Validated: 1
Substitution2: "'c2sc' Capitals to Small Capitals in Latin lookup 1 subtable" e.sc
EndChar

StartChar: F
Encoding: 70 70 39
Width: 455
GlyphClass: 2
Flags: W
HStem: -10 21G<119.5 143.5> 306 79<175 357.67> 586 80<173.34 445.25>
VStem: 70 105<3.42554 306 385 581.249>
LayerCount: 2
Fore
SplineSet
175 306 m 1
 175 196 l 2
 175 107 181 42 194 0 c 1
 175 -7 155 -10 132 -10 c 0
 107 -10 90 -6 82 3 c 0
 72 12 68 26 68 47 c 0
 68 58 68 84 69 126 c 0
 70 168 70 201 70 224 c 2
 70 432 l 2
 70 524 65 599 56 657 c 1
 129 663 203 666 279 666 c 0
 378 666 433 661 446 651 c 0
 452 645 455 634 455 619 c 0
 455 599 452 581 447 565 c 1
 410 579 352 586 273 586 c 0
 241 586 207 585 171 583 c 1
 174 562 175 518 175 449 c 2
 175 385 l 1
 250 385 l 2
 303 385 341 386 364 389 c 1
 367 383 368 372 368 357 c 0
 368 338 365 326 358 318 c 0
 351 312 341 308 326 307 c 0
 309 306 287 306 259 306 c 2
 175 306 l 1
EndSplineSet
Validated: 1
Substitution2: "'c2sc' Capitals to Small Capitals in Latin lookup 1 subtable" f.sc
EndChar

StartChar: G
Encoding: 71 71 40
Width: 621
GlyphClass: 2
Flags: W
HStem: -10 79<270.688 451.913> 594 79<265.344 424.628>
VStem: 42 114<212.714 466.996> 462 116<209 307.026> 469 102<87.8952 277>
LayerCount: 2
Fore
SplineSet
571 85 m 0xe8
 571 61 551 39 512 19 c 0
 472 -0 423 -10 365 -10 c 0
 268 -10 190 21 130 84 c 0
 72 147 42 230 42 332 c 0
 42 439 72 522 130 582 c 0
 190 643 269 673 370 673 c 0
 424 673 469 662 506 641 c 0
 543 620 561 595 561 564 c 0
 561 529 535 507 482 498 c 1
 471 530 453 554 428 570 c 0
 403 586 377 594 349 594 c 0
 292 594 246 571 210 524 c 0
 174 478 156 420 156 351 c 0
 156 270 174 203 209 149 c 0
 244 96 293 69 356 69 c 0
 402 69 440 80 469 101 c 1xe8
 468 186 465 256 462 311 c 1
 477 313 494 314 511 314 c 0
 556 314 578 302 578 277 c 2xf0
 574 209 l 2
 572 164 571 122 571 85 c 0xe8
EndSplineSet
Validated: 1
Substitution2: "'c2sc' Capitals to Small Capitals in Latin lookup 1 subtable" g.sc
EndChar

StartChar: H
Encoding: 72 72 41
Width: 628
GlyphClass: 2
Flags: HMW
HStem: -3.00098 21G<112.667 136.333> 321.999 73.998 645.996 20G
VStem: 63 105.001 448.001 105.001
LayerCount: 2
Fore
SplineSet
63 231 m 2
 63 431 l 2
 63 524 61 600 56 661 c 1
 76 664 94 666 109 666 c 0
 154 666 176 653 176 628 c 0
 176 624 175 610 174 585 c 0
 173 561 171 531 170 496 c 0
 169 461 168 428 168 397 c 1
 204 396 251 396 310 396 c 0
 369 396 415 396 448 397 c 1
 448 431 l 2
 448 524 446 600 441 661 c 1
 461 664 479 666 494 666 c 0
 539 666 561 653 561 628 c 0
 561 624 560 610 559 587 c 0
 558 564 556 536 555 501 c 0
 554 467 553 435 553 404 c 2
 553 203 l 2
 553 114 559 49 572 7 c 1
 553 0 533 -3 510 -3 c 0
 485 -3 469 1 460 10 c 0
 451 19 446 33 446 54 c 0
 446 65 446 91 447 133 c 0
 448 175 448 208 448 231 c 2
 448 323 l 1
 414 322 367 322 307 322 c 0
 248 322 202 322 168 323 c 1
 168 203 l 2
 168 114 174 49 187 7 c 1
 168 0 148 -3 125 -3 c 0
 100 -3 84 1 74 10 c 0
 66 19 61 33 61 54 c 0
 61 65 61 91 62 133 c 0
 63 175 63 208 63 231 c 2
EndSplineSet
Validated: 1
Substitution2: "'c2sc' Capitals to Small Capitals in Latin lookup 1 subtable" h.sc
EndChar

StartChar: I
Encoding: 73 73 42
Width: 243
GlyphClass: 2
Flags: HMW
HStem: -3.00098 21G<112.667 136.333> 645.999 20G
VStem: 63 105.001
LayerCount: 2
Fore
SplineSet
63 231 m 2
 63 431 l 2
 63 524 61 600 56 661 c 1
 76 664 94 666 109 666 c 0
 154 666 176 653 176 628 c 0
 176 624 175 610 174 587 c 0
 173 564 171 536 170 501 c 0
 169 467 168 435 168 404 c 2
 168 203 l 2
 168 114 174 49 187 7 c 1
 168 0 148 -3 125 -3 c 0
 100 -3 84 1 74 10 c 0
 66 19 61 33 61 54 c 0
 61 65 61 91 62 133 c 0
 63 175 63 208 63 231 c 2
EndSplineSet
Validated: 1
Substitution2: "'c2sc' Capitals to Small Capitals in Latin lookup 1 subtable" i.sc
EndChar

StartChar: J
Encoding: 74 74 43
Width: 243
GlyphClass: 2
Flags: W
HStem: -119 78<-10.1003 28.4496> 646 20G<113.5 143.5>
VStem: 74 105<-0.9904 627.852>
LayerCount: 2
Fore
SplineSet
12 -119 m 0
 -17 -119 -32 -93 -32 -41 c 1
 -11 -36 5 -31 18 -25 c 0
 31 -18 42 -12 49 -5 c 0
 57 2 63 13 66 26 c 0
 70 40 72 53 73 65 c 0
 74 77 74 95 74 118 c 2
 74 431 l 2
 74 524 72 600 67 661 c 1
 87 664 105 666 122 666 c 0
 165 666 187 653 187 628 c 0
 187 625 186 612 185 591 c 0
 184 570 182 543 181 512 c 0
 180 480 179 450 179 421 c 2
 179 111 l 2
 179 68 173 31 161 -1 c 0
 149 -33 134 -57 115 -73 c 0
 96 -89 78 -101 61 -108 c 0
 44 -115 27 -119 12 -119 c 0
EndSplineSet
Validated: 1
Substitution2: "'c2sc' Capitals to Small Capitals in Latin lookup 1 subtable" j.sc
EndChar

StartChar: K
Encoding: 75 75 44
Width: 525
GlyphClass: 2
Flags: W
HStem: -10 77<436.883 509.505> -3 21G<112.5 136.5> 646 20G<101.5 131.5 408.5 427.5>
VStem: 63 105<10.4255 301 397 627.853>
LayerCount: 2
Fore
SplineSet
63 231 m 2x70
 63 431 l 2
 63 524 61 600 56 661 c 1
 76 664 94 666 109 666 c 0
 154 666 176 653 176 628 c 0
 176 625 175 613 174 592 c 0
 173 572 171 544 170 509 c 0
 169 474 168 436 168 397 c 1
 214 432 262 476 313 529 c 0
 364 582 399 627 418 665 c 1
 437 659 452 652 462 645 c 0
 472 638 477 627 477 613 c 0
 477 603 472 590 462 574 c 0
 451 559 433 538 408 513 c 0
 382 488 360 466 342 449 c 0
 323 432 294 406 254 370 c 1
 263 355 275 333 291 304 c 0
 307 276 319 255 328 240 c 0
 336 225 347 207 361 185 c 0
 374 163 386 146 395 135 c 0
 404 124 414 113 425 100 c 0
 436 88 447 79 458 74 c 0
 468 69 478 67 489 67 c 0
 499 67 508 68 516 70 c 1
 522 58 525 47 525 38 c 0
 525 23 518 11 504 2 c 0
 491 -6 472 -10 449 -10 c 0xb0
 418 -10 388 4 359 30 c 0
 330 58 306 87 287 118 c 0
 268 149 235 207 190 292 c 0
 189 295 188 297 187 298 c 0
 186 299 185 301 184 303 c 0
 183 306 181 308 180 310 c 2
 168 301 l 1
 168 203 l 2
 168 114 174 49 187 7 c 1
 168 0 148 -3 125 -3 c 0
 100 -3 84 1 74 10 c 0
 66 19 61 33 61 54 c 0
 61 65 61 91 62 133 c 0
 63 175 63 208 63 231 c 2x70
EndSplineSet
Validated: 1
Substitution2: "'c2sc' Capitals to Small Capitals in Latin lookup 1 subtable" k.sc
EndChar

StartChar: L
Encoding: 76 76 45
Width: 440
GlyphClass: 2
Flags: HMW
HStem: -2.00195 80 645.998 20G
VStem: 61 113.999 62 105.999
LayerCount: 2
Fore
SplineSet
63 224 m 2xd0
 63 431 l 2
 63 525 61 602 56 663 c 1
 71 665 90 666 111 666 c 0
 154 666 176 653 176 628 c 0
 176 624 175 610 174 587 c 0
 173 564 171 536 170 501 c 0
 169 467 168 435 168 404 c 2
 168 318 l 2xd0
 168 186 170 106 175 78 c 1
 202 77 223 76 239 76 c 0
 337 76 400 84 429 99 c 1
 436 84 440 68 440 50 c 0
 440 28 431 14 414 7 c 0
 397 1 369 -2 330 -2 c 2
 243 -2 l 2
 184 -2 139 -1 110 -0 c 0
 91 1 78 5 72 14 c 0
 64 23 61 37 61 57 c 0xe0
 61 68 61 92 62 131 c 0
 63 170 63 201 63 224 c 2xd0
EndSplineSet
Validated: 1
Substitution2: "'c2sc' Capitals to Small Capitals in Latin lookup 1 subtable" l.sc
EndChar

StartChar: M
Encoding: 77 77 46
Width: 792
GlyphClass: 2
Flags: W
HStem: -3 21G<121.5 141.5 390.5 415 668.5 695.5> 647 20G<116.5 146 650.5 683>
VStem: 75 91<10.4255 503.647> 613 104<10.4255 502.517>
LayerCount: 2
Fore
SplineSet
717 436 m 2
 717 203 l 2
 717 113 723 47 736 5 c 1
 727 -0 709 -3 682 -3 c 0
 655 -3 636 1 627 10 c 0
 618 19 613 33 613 54 c 2
 613 504 l 1
 569 395 513 227 445 2 c 1
 434 -1 422 -2 408 -2 c 0
 373 -2 352 7 344 24 c 0
 324 68 294 147 255 260 c 0
 216 374 186 456 166 506 c 1
 166 203 l 2
 166 113 172 47 185 5 c 1
 167 -0 150 -3 133 -3 c 0
 110 -3 94 1 86 10 c 0
 77 19 73 33 73 54 c 0
 73 65 73 91 74 133 c 0
 75 175 75 208 75 231 c 2
 75 483 l 2
 75 558 69 616 56 659 c 1
 83 664 106 667 127 667 c 0
 165 667 194 651 214 619 c 0
 239 578 264 528 289 466 c 0
 313 406 332 354 345 312 c 0
 358 270 376 210 399 131 c 1
 455 342 517 505 585 621 c 0
 602 652 631 667 670 667 c 0
 696 667 718 664 735 659 c 1
 723 619 717 545 717 436 c 2
EndSplineSet
Validated: 1
Substitution2: "'c2sc' Capitals to Small Capitals in Latin lookup 1 subtable" m.sc
EndChar

StartChar: N
Encoding: 78 78 47
Width: 618
GlyphClass: 2
Flags: W
HStem: -3 21G<124.5 145.5 499.5 524> 647 20G<105 132.5 490 518>
VStem: 75 90<10.4255 516.351> 462 91<181.911 586.872>
LayerCount: 2
Fore
SplineSet
560 1 m 1
 547 -2 532 -3 516 -3 c 0
 483 -3 460 6 449 24 c 0
 418 75 370 156 306 269 c 0
 241 382 193 464 160 517 c 1
 165 256 l 2
 167 121 174 38 185 5 c 1
 170 -0 154 -3 137 -3 c 0
 112 -3 96 1 86 10 c 0
 78 19 73 33 73 54 c 0
 73 65 73 91 74 133 c 0
 75 175 75 208 75 231 c 2
 75 431 l 2
 75 542 69 618 56 659 c 1
 73 664 93 667 117 667 c 0
 148 667 172 657 189 638 c 0
 220 604 266 536 327 436 c 0
 388 334 436 249 470 178 c 1
 465 254 462 335 462 420 c 0
 462 519 460 600 455 663 c 1
 470 665 484 666 496 666 c 0
 540 666 562 653 562 628 c 0
 562 624 561 610 560 588 c 0
 559 564 557 536 556 502 c 0
 554 467 553 435 553 404 c 2
 553 233 l 2
 553 139 555 62 560 1 c 1
EndSplineSet
Validated: 1
Substitution2: "'c2sc' Capitals to Small Capitals in Latin lookup 1 subtable" n.sc
EndChar

StartChar: O
Encoding: 79 79 48
Width: 716
GlyphClass: 2
Flags: W
HStem: -10 79<272.618 453.662> 594 79<264.68 446.45>
VStem: 42 114<213.852 472.005> 561 114<191.282 457.19>
LayerCount: 2
Fore
SplineSet
357 -10 m 0
 261 -10 185 21 128 83 c 0
 71 145 42 228 42 331 c 0
 42 436 71 519 128 581 c 0
 185 642 261 673 357 673 c 0
 454 673 532 642 589 581 c 0
 646 519 675 436 675 331 c 0
 675 228 646 145 589 83 c 0
 531 21 454 -10 357 -10 c 0
561 314 m 0
 561 362 555 406 543 447 c 0
 530 487 508 522 477 551 c 0
 445 580 406 594 359 594 c 0
 297 594 248 572 211 529 c 0
 174 485 156 429 156 360 c 0
 156 310 162 264 175 222 c 0
 187 180 209 144 241 114 c 0
 272 84 311 69 358 69 c 0
 423 69 473 92 508 137 c 0
 543 182 561 241 561 314 c 0
EndSplineSet
Validated: 1
Substitution2: "'c2sc' Capitals to Small Capitals in Latin lookup 1 subtable" o.sc
EndChar

StartChar: P
Encoding: 80 80 49
Width: 510
GlyphClass: 2
Flags: W
HStem: -3 21G<119 144.5> 233 79<192.364 330.273> 596 77<171.849 328.134>
VStem: 69 105<10.4255 265 320.551 592.462> 379 114<363.176 545.476>
LayerCount: 2
Fore
SplineSet
258 312 m 0
 296 312 326 324 347 349 c 0
 368 373 379 406 379 447 c 0
 379 504 367 543 343 564 c 0
 319 585 282 596 231 596 c 0
 217 596 197 595 170 592 c 1
 173 556 174 494 174 406 c 2
 174 329 l 1
 196 318 224 312 258 312 c 0
69 231 m 2
 69 431 l 2
 69 523 65 600 56 661 c 1
 107 669 159 673 212 673 c 0
 399 673 493 599 493 452 c 0
 493 381 473 326 433 289 c 0
 392 252 345 233 290 233 c 0
 245 233 207 244 174 265 c 1
 174 196 l 2
 174 109 180 46 193 5 c 1
 177 -0 157 -3 132 -3 c 0
 106 -3 89 1 80 10 c 0
 71 19 67 33 67 54 c 0
 67 65 67 91 68 133 c 0
 69 175 69 208 69 231 c 2
EndSplineSet
Validated: 1
Substitution2: "'c2sc' Capitals to Small Capitals in Latin lookup 1 subtable" p.sc
EndChar

StartChar: Q
Encoding: 81 81 50
Width: 712
GlyphClass: 2
Flags: W
HStem: -184 88<438.894 571.86> 594 79<262.705 444.65>
VStem: 42 112<210.333 473.442> 559 112<191.293 454.405>
LayerCount: 2
Fore
SplineSet
559 314 m 0
 559 362 553 406 540 447 c 0
 528 487 506 522 474 551 c 0
 443 580 404 594 357 594 c 0
 295 594 246 572 209 529 c 0
 172 485 154 429 154 360 c 0
 154 310 160 264 172 222 c 0
 185 180 207 144 238 114 c 0
 270 84 309 69 356 69 c 0
 421 69 471 92 506 137 c 0
 541 182 559 241 559 314 c 0
311 -9 m 1
 228 0 162 35 114 95 c 0
 66 155 42 234 42 331 c 0
 42 436 70 520 126 581 c 0
 182 642 259 673 356 673 c 0
 453 673 530 642 587 581 c 0
 643 520 671 436 671 331 c 0
 671 234 646 155 597 94 c 0
 547 33 480 -1 395 -8 c 1
 402 -35 416 -56 436 -72 c 0
 457 -88 480 -96 505 -96 c 0
 525 -96 545 -90 564 -79 c 0
 584 -68 600 -55 613 -40 c 1
 638 -60 650 -84 650 -111 c 0
 650 -135 638 -153 613 -166 c 0
 588 -178 556 -184 515 -184 c 0
 493 -184 472 -181 451 -175 c 0
 431 -169 411 -160 392 -147 c 0
 373 -134 356 -116 342 -92 c 0
 327 -69 317 -41 311 -9 c 1
EndSplineSet
Validated: 1
Substitution2: "'c2sc' Capitals to Small Capitals in Latin lookup 1 subtable" q.sc
EndChar

StartChar: R
Encoding: 82 82 51
Width: 539
GlyphClass: 2
Flags: W
HStem: -10 77<431.5 517.913> -3 21G<118.5 144.5> 596 77<170.986 331.934>
VStem: 69 105<10.4255 592.462> 379 115<389.419 553.956>
LayerCount: 2
Fore
SplineSet
450 95 m 0x78
 465 76 483 67 503 67 c 0
 510 67 518 68 526 70 c 1
 532 56 535 44 535 35 c 0
 535 20 527 8 511 1 c 0
 494 -6 474 -10 451 -10 c 0xb8
 412 -10 378 9 348 47 c 0
 327 73 306 109 283 154 c 0
 260 200 243 240 230 274 c 1
 215 280 207 291 207 306 c 0
 207 319 210 332 215 345 c 1
 226 342 238 341 252 341 c 0
 288 341 318 352 343 373 c 0
 367 395 379 427 379 470 c 0
 379 517 367 550 344 568 c 0
 321 587 284 596 235 596 c 0
 217 596 195 595 170 592 c 1
 173 555 174 488 174 393 c 2
 174 198 l 2
 174 110 180 46 193 5 c 1
 178 -0 158 -3 131 -3 c 0
 106 -3 90 1 81 10 c 0
 72 19 67 33 67 54 c 0
 67 65 67 91 68 133 c 0
 69 175 69 208 69 231 c 2
 69 431 l 2
 69 523 65 600 56 661 c 1
 107 669 160 673 213 673 c 0
 400 673 494 605 494 470 c 0
 494 419 480 376 452 343 c 0
 425 309 388 286 343 274 c 1
 386 181 422 122 450 95 c 0x78
EndSplineSet
Validated: 1
Substitution2: "'c2sc' Capitals to Small Capitals in Latin lookup 1 subtable" r.sc
EndChar

StartChar: S
Encoding: 83 83 52
Width: 529
GlyphClass: 2
Flags: W
HStem: -10 79<174.053 351.561> 596 77<186.63 346.332>
VStem: 55 92<444.533 558.507> 399 92<110.649 226.099>
LayerCount: 2
Fore
SplineSet
408 508 m 1
 398 533 379 554 352 571 c 0
 325 588 296 596 267 596 c 0
 233 596 205 588 182 571 c 0
 159 554 147 530 147 497 c 0
 147 477 153 460 166 447 c 0
 179 433 195 422 216 415 c 0
 236 407 258 400 283 393 c 0
 307 386 331 379 356 370 c 0
 380 361 402 351 422 339 c 0
 443 327 459 310 472 287 c 0
 485 264 491 237 491 206 c 0
 491 167 484 132 471 104 c 0
 458 74 439 52 415 36 c 0
 392 20 366 8 339 1 c 0
 312 -6 282 -10 250 -10 c 0
 195 -10 145 0 102 20 c 0
 59 40 38 64 38 91 c 0
 38 118 57 141 96 159 c 1
 109 134 132 112 165 95 c 0
 198 78 231 69 264 69 c 0
 303 69 335 78 360 96 c 0
 386 113 399 140 399 176 c 0
 399 197 390 215 374 230 c 0
 356 245 335 256 310 263 c 0
 285 270 257 280 227 291 c 0
 197 302 169 314 144 327 c 0
 119 340 98 360 80 387 c 0
 64 414 55 447 55 486 c 0
 55 545 77 591 122 624 c 0
 167 657 222 673 288 673 c 0
 316 673 344 670 372 663 c 0
 400 656 424 644 445 629 c 0
 466 613 476 595 476 574 c 0
 476 539 453 517 408 508 c 1
EndSplineSet
Validated: 1
Substitution2: "'c2sc' Capitals to Small Capitals in Latin lookup 1 subtable" s.sc
EndChar

StartChar: T
Encoding: 84 84 53
Width: 485
GlyphClass: 2
Flags: HMW
HStem: -3.00098 21G<241.667 265.333> 580.999 80
VStem: 190 107.001
LayerCount: 2
Fore
SplineSet
192 231 m 2
 192 431 l 2
 192 468 191 518 190 581 c 1
 95 581 33 580 3 577 c 1
 1 585 0 597 0 613 c 0
 0 631 4 643 11 649 c 0
 18 656 29 659 44 660 c 0
 61 661 100 661 161 661 c 2
 279 661 l 2
 391 661 459 662 482 664 c 1
 484 656 485 644 485 629 c 0
 485 611 482 599 475 592 c 0
 468 586 456 583 441 582 c 0
 422 581 376 581 302 581 c 1
 299 509 297 450 297 404 c 2
 297 203 l 2
 297 114 303 49 316 7 c 1
 297 0 277 -3 254 -3 c 0
 229 -3 212 1 204 10 c 0
 194 19 190 33 190 54 c 0
 190 65 190 91 191 133 c 0
 192 175 192 208 192 231 c 2
EndSplineSet
Validated: 1
Substitution2: "'c2sc' Capitals to Small Capitals in Latin lookup 1 subtable" t.sc
EndChar

StartChar: U
Encoding: 85 85 54
Width: 643
GlyphClass: 2
Flags: W
HStem: -10 87<226.345 362.591> -3 21G<513 538.5> 646 20G<109 132.5 503 532.5>
VStem: 69 109<125.488 417.082> 78 108<212.499 613.709> 463 105<10.3801 75 132.549 627.944>
LayerCount: 2
Fore
SplineSet
61 658 m 1xac
 78 663 98 666 120 666 c 0
 145 666 164 662 176 655 c 0
 187 647 193 634 193 615 c 0
 193 588 191 526 186 432 c 0xac
 181 336 178 263 178 210 c 0
 178 165 190 131 213 110 c 0
 236 88 264 77 295 77 c 0xb4
 324 77 354 84 386 99 c 0
 417 114 443 131 462 152 c 1
 462 184 l 2
 462 200 462 229 463 271 c 0
 463 312 463 366 463 431 c 0
 463 524 461 601 456 662 c 1
 477 665 495 666 511 666 c 0
 554 666 576 653 576 628 c 0
 576 627 575 614 574 591 c 0
 573 568 571 531 570 482 c 0
 569 432 568 374 568 309 c 0
 568 206 569 137 571 102 c 0
 573 67 578 34 587 5 c 1
 572 -0 552 -3 525 -3 c 0x74
 501 -3 484 1 475 10 c 0
 466 18 461 33 461 56 c 2
 461 75 l 1
 435 50 404 29 368 14 c 0
 331 -2 298 -10 267 -10 c 0
 206 -10 158 5 122 35 c 0
 87 64 69 117 69 192 c 0xb4
 69 231 70 285 74 352 c 0
 76 419 78 469 78 501 c 0
 78 564 72 617 61 658 c 1xac
EndSplineSet
Validated: 1
Substitution2: "'c2sc' Capitals to Small Capitals in Latin lookup 1 subtable" u.sc
EndChar

StartChar: V
Encoding: 86 86 55
Width: 578
GlyphClass: 2
Flags: W
HStem: -3 21G<252.5 270.5> 653 14G<60 84 502.5 522.5>
VStem: 461 109<480.909 663.62>
LayerCount: 2
Fore
SplineSet
457 666 m 1
 475 671 493 673 512 673 c 0
 533 673 548 669 557 662 c 0
 566 655 570 642 570 624 c 0
 570 551 547 453 500 330 c 0
 453 207 406 114 357 52 c 0
 340 30 324 15 310 8 c 0
 297 1 280 -3 261 -3 c 0
 244 -3 231 -2 222 0 c 1
 201 107 164 230 113 368 c 0
 62 506 19 593 -17 628 c 1
 18 654 48 667 72 667 c 0
 96 667 114 655 127 630 c 0
 154 575 184 498 218 397 c 0
 251 296 279 204 300 120 c 1
 344 184 382 265 414 363 c 0
 445 461 461 546 461 617 c 0
 461 640 460 657 457 666 c 1
EndSplineSet
Validated: 1
Substitution2: "'c2sc' Capitals to Small Capitals in Latin lookup 1 subtable" v.sc
EndChar

StartChar: W
Encoding: 87 87 56
Width: 948
GlyphClass: 2
Flags: W
HStem: -3 21G<237 254 631 648> 653 20G<60 85 469.5 489.5 863.5 883.5>
VStem: 428 109<563.439 663.62> 822 109<476.3 663.62>
LayerCount: 2
Fore
SplineSet
818 666 m 1
 836 671 854 673 873 673 c 0
 894 673 909 669 918 662 c 0
 927 655 931 642 931 624 c 0
 931 551 909 452 865 330 c 0
 821 206 776 114 730 52 c 0
 714 30 699 15 686 8 c 0
 673 1 657 -3 639 -3 c 0
 623 -3 611 -2 603 0 c 1
 580 118 543 248 491 391 c 1
 470 325 446 261 418 198 c 0
 390 136 363 87 336 52 c 0
 320 30 305 15 292 8 c 0
 279 1 263 -3 245 -3 c 0
 229 -3 217 -2 209 0 c 1
 189 107 155 230 106 368 c 0
 58 506 17 593 -17 628 c 1
 18 654 48 667 72 667 c 0
 98 667 116 655 127 630 c 0
 152 573 179 494 209 395 c 0
 239 296 264 204 283 120 c 1
 323 184 357 265 386 363 c 0
 414 461 428 546 428 617 c 0
 428 640 427 657 424 666 c 1
 442 671 460 673 479 673 c 0
 500 673 515 669 524 662 c 0
 533 655 537 642 537 624 c 0
 537 618 536 608 535 595 c 1
 587 462 634 304 677 120 c 1
 717 184 751 265 780 363 c 0
 808 461 822 546 822 617 c 0
 822 640 821 657 818 666 c 1
EndSplineSet
Validated: 1
Substitution2: "'c2sc' Capitals to Small Capitals in Latin lookup 1 subtable" w.sc
EndChar

StartChar: X
Encoding: 88 88 57
Width: 605
GlyphClass: 2
Flags: W
HStem: -10 21G<91 136 499 527.5> 653 20G<115.5 133.5 441.5 481.5>
LayerCount: 2
Fore
SplineSet
21 44 m 0
 21 89 97 189 250 343 c 1
 242 354 225 379 198 418 c 0
 171 456 151 484 138 503 c 0
 124 522 107 543 86 568 c 0
 65 593 48 611 33 624 c 1
 56 645 74 659 86 665 c 0
 97 670 109 673 122 673 c 0
 145 673 166 661 185 637 c 0
 198 620 219 590 247 545 c 0
 274 500 298 460 317 423 c 1
 344 460 371 501 396 548 c 0
 421 594 437 635 446 672 c 1
 517 668 552 650 552 617 c 0
 552 591 532 552 492 499 c 0
 452 446 408 397 359 350 c 1
 396 295 426 251 448 219 c 0
 470 187 496 152 527 114 c 0
 557 76 581 51 599 38 c 1
 570 6 542 -10 513 -10 c 0
 485 -10 462 3 444 29 c 0
 387 105 337 185 292 270 c 1
 201 154 146 61 126 -10 c 1
 56 -7 21 11 21 44 c 0
EndSplineSet
Validated: 1
Substitution2: "'c2sc' Capitals to Small Capitals in Latin lookup 1 subtable" x.sc
EndChar

StartChar: Y
Encoding: 89 89 58
Width: 507
GlyphClass: 2
Flags: W
HStem: -3 21G<254.5 278.5> 647 20G<72.5 91.5 406.5 439.5>
VStem: 205 105<10.4255 327.135> 408 95<602.454 640.33>
LayerCount: 2
Fore
SplineSet
503 616 m 0
 503 593 481 548 438 483 c 0
 395 418 353 359 310 307 c 1
 310 203 l 2
 310 114 316 49 329 7 c 1
 310 0 290 -3 267 -3 c 0
 242 -3 225 1 216 10 c 0
 207 19 203 33 203 54 c 0
 203 65 203 91 204 133 c 0
 205 175 205 208 205 231 c 2
 205 303 l 1
 111 478 40 581 -9 614 c 1
 2 628 15 640 32 651 c 0
 49 662 65 667 80 667 c 0
 103 667 123 656 139 633 c 0
 188 560 234 478 277 386 c 1
 308 433 336 487 363 547 c 0
 390 607 405 649 408 672 c 1
 471 669 503 651 503 616 c 0
EndSplineSet
Validated: 1
Substitution2: "'c2sc' Capitals to Small Capitals in Latin lookup 1 subtable" y.sc
EndChar

StartChar: Z
Encoding: 90 90 59
Width: 564
GlyphClass: 2
Flags: W
HStem: -6 73<137.994 427.837> 591 76<85.0707 411.751>
LayerCount: 2
Fore
SplineSet
531 648 m 1
 542 636 547 623 547 608 c 0
 547 592 541 577 530 562 c 2
 135 68 l 1
 145 67 164 67 192 67 c 0
 322 67 429 80 514 106 c 1
 522 82 526 63 526 50 c 0
 526 37 523 27 516 20 c 0
 509 13 501 9 492 6 c 0
 483 4 469 2 452 -0 c 0
 410 -4 354 -6 285 -6 c 0
 186 -6 104 -2 40 6 c 1
 28 22 22 39 22 56 c 0
 22 77 30 98 47 119 c 2
 414 588 l 1
 388 590 356 591 318 591 c 0
 221 591 136 582 61 564 c 1
 54 583 51 599 51 614 c 0
 51 636 61 650 80 657 c 0
 109 664 152 667 210 667 c 0
 331 667 438 661 531 648 c 1
EndSplineSet
Validated: 1
Substitution2: "'c2sc' Capitals to Small Capitals in Latin lookup 1 subtable" z.sc
EndChar

StartChar: bracketleft
Encoding: 91 91 60
Width: 380
GlyphClass: 2
Flags: W
HStem: -190 73<225 332.573> 647 73<225 331.528>
VStem: 127 98<-118 648>
LayerCount: 2
Fore
SplineSet
225 648 m 1
 225 -118 l 1
 244 -117 265 -117 286 -117 c 0
 308 -117 324 -121 333 -128 c 0
 342 -135 346 -145 346 -159 c 0
 346 -166 344 -177 339 -190 c 1
 127 -190 l 1
 127 720 l 1
 338 720 l 1
 343 709 346 699 346 689 c 0
 346 673 341 662 332 656 c 0
 322 650 307 647 286 647 c 0
 260 647 240 647 225 648 c 1
EndSplineSet
Validated: 1
Substitution2: "'sups' Superscript lookup 2 subtable" bracketleft.superior
Substitution2: "'c2sc' Capitals to Small Capitals in Latin lookup 1 subtable" bracketleft.sc
EndChar

StartChar: backslash
Encoding: 92 92 61
Width: 263
GlyphClass: 2
Flags: W
HStem: 722 20G<57.5 76.5>
VStem: 30 72<574.705 739.842>
LayerCount: 2
Fore
SplineSet
155 -115 m 1
 152 -68 141 9 124 116 c 0
 97 292 71 457 46 611 c 0
 35 677 30 711 30 714 c 0
 30 733 44 742 71 742 c 0
 82 742 92 740 102 737 c 1
 110 660 120 583 133 506 c 0
 148 412 161 326 174 248 c 0
 187 169 196 111 202 73 c 0
 208 35 213 2 218 -24 c 0
 222 -52 225 -69 226 -76 c 0
 227 -84 228 -89 228 -90 c 0
 228 -109 215 -118 188 -118 c 0
 177 -118 166 -117 155 -115 c 1
EndSplineSet
Validated: 1
EndChar

StartChar: bracketright
Encoding: 93 93 62
Width: 354
GlyphClass: 2
Flags: W
HStem: -190 73<39.4263 146> 647 73<40.4263 146>
VStem: 146 98<-118 648>
LayerCount: 2
Fore
SplineSet
146 -118 m 1
 146 648 l 1
 131 647 111 647 85 647 c 0
 64 647 49 650 40 656 c 0
 30 662 25 673 25 689 c 0
 25 699 28 709 33 720 c 1
 244 720 l 1
 244 -190 l 1
 32 -190 l 1
 27 -177 25 -166 25 -159 c 0
 25 -145 30 -134 39 -128 c 0
 48 -120 63 -117 85 -117 c 0
 106 -117 127 -117 146 -118 c 1
EndSplineSet
Validated: 1
Substitution2: "'sups' Superscript lookup 2 subtable" bracketright.superior
Substitution2: "'c2sc' Capitals to Small Capitals in Latin lookup 1 subtable" bracketright.sc
EndChar

StartChar: asciicircum
Encoding: 94 94 63
Width: 488
GlyphClass: 2
Flags: W
HStem: 408 277
LayerCount: 2
Fore
SplineSet
424 408 m 0
 399 408 339 458 244 558 c 1
 210 522 175 488 140 456 c 0
 104 424 79 408 65 408 c 0
 51 408 36 416 21 431 c 1
 36 457 69 498 120 554 c 0
 170 609 211 653 244 685 c 1
 275 654 316 611 367 554 c 0
 418 498 451 457 467 431 c 1
 450 416 436 408 424 408 c 0
EndSplineSet
Validated: 1
EndChar

StartChar: underscore
Encoding: 95 95 64
Width: 535
GlyphClass: 2
Flags: W
HStem: -152 72<9.28345 240.75 260.859 274 348.968 524.671> -144 57<36.1077 498.522>
LayerCount: 2
Fore
SplineSet
535 -110 m 0x80
 535 -122 532 -132 525 -140 c 0
 518 -148 510 -152 499 -152 c 0x80
 489 -152 466 -151 430 -148 c 0
 394 -145 367 -144 348 -144 c 2
 205 -144 l 2x40
 129 -144 62 -147 3 -152 c 1
 1 -142 0 -132 0 -122 c 0
 0 -111 3 -102 9 -93 c 0
 15 -84 24 -80 36 -80 c 0x80
 38 -80 59 -81 99 -84 c 0
 139 -86 174 -87 203 -87 c 2
 345 -87 l 2x40
 430 -87 492 -85 532 -80 c 1
 534 -86 535 -96 535 -110 c 0x80
EndSplineSet
Validated: 1
EndChar

StartChar: grave
Encoding: 96 96 65
Width: 228
GlyphClass: 2
Flags: W
HStem: 523 199
VStem: -43 219
LayerCount: 2
Fore
SplineSet
9 722 m 1
 36 693 64 668 93 646 c 0
 122 624 144 608 156 598 c 0
 170 588 176 578 176 567 c 0
 176 552 165 537 144 523 c 1
 123 538 96 555 62 574 c 0
 27 592 1 608 -16 621 c 0
 -34 634 -43 647 -43 661 c 0
 -43 684 -26 705 9 722 c 1
EndSplineSet
Validated: 1
EndChar

StartChar: a
Encoding: 97 97 66
Width: 478
GlyphClass: 2
Flags: W
HStem: -10 71<166.691 263.412> 412 73<173.012 280.566>
VStem: 38 109<79.7308 172.125> 303 110<99.4255 214 275 396.118>
LayerCount: 2
Fore
SplineSet
303 143 m 0
 303 174 304 197 305 214 c 1
 285 211 270 209 262 208 c 0
 252 207 240 205 225 202 c 0
 210 199 198 196 192 193 c 0
 184 190 177 186 169 181 c 0
 161 176 155 170 152 164 c 0
 149 156 147 148 147 139 c 0
 147 112 154 93 167 80 c 0
 180 67 197 61 218 61 c 0
 252 61 281 74 305 99 c 1
 304 108 303 122 303 143 c 0
307 275 m 1
 307 298 307 315 306 327 c 0
 305 339 302 353 298 368 c 0
 293 383 286 394 276 401 c 0
 265 408 251 412 234 412 c 0
 212 412 191 405 172 390 c 0
 152 376 138 356 129 331 c 1
 70 332 40 349 40 384 c 0
 40 413 60 437 101 456 c 0
 141 475 187 485 238 485 c 0
 299 485 344 472 372 447 c 0
 401 422 415 376 415 311 c 0
 415 309 415 293 414 264 c 0
 413 235 413 206 413 178 c 0
 413 102 419 45 432 7 c 1
 413 -0 394 -4 375 -4 c 0
 338 -4 315 11 308 42 c 1
 268 7 223 -10 173 -10 c 0
 134 -10 102 2 76 26 c 0
 51 50 38 85 38 132 c 0
 38 169 46 197 62 215 c 0
 78 233 99 246 126 255 c 0
 166 268 226 274 307 275 c 1
EndSplineSet
Validated: 1
Substitution2: "'sups' Superscript lookup 2 subtable" a.superior
Substitution2: "'smcp' Lowercase to Small Capitals in Latin lookup 0 subtable" a.sc
EndChar

StartChar: b
Encoding: 98 98 67
Width: 522
GlyphClass: 2
Flags: W
HStem: -10 74<199.729 330.035> 412 73<216.025 332.83> 723 20G<92.5 127.5>
VStem: 67 103<92.6953 381.349 433 688.61> 380 109<130.046 358.224>
LayerCount: 2
Fore
SplineSet
380 248 m 0
 380 303 370 344 350 372 c 0
 331 398 306 412 277 412 c 0
 238 412 202 395 169 362 c 1
 170 322 170 278 170 229 c 0
 170 184 169 145 167 112 c 1
 199 80 234 64 273 64 c 0
 309 64 336 82 354 118 c 0
 371 154 380 197 380 248 c 0
313 485 m 0
 365 485 407 465 440 426 c 0
 473 387 489 329 489 251 c 0
 489 178 470 116 431 66 c 0
 392 15 337 -10 264 -10 c 0
 185 -10 117 13 60 60 c 1
 65 99 67 170 67 273 c 0
 67 332 65 418 62 532 c 0
 59 644 55 714 51 739 c 1
 64 742 81 743 104 743 c 0
 151 743 174 725 174 689 c 0
 174 681 173 652 171 602 c 0
 169 552 168 496 168 433 c 1
 211 468 259 485 313 485 c 0
EndSplineSet
Validated: 1
Substitution2: "'sups' Superscript lookup 2 subtable" b.superior
Substitution2: "'smcp' Lowercase to Small Capitals in Latin lookup 0 subtable" b.sc
EndChar

StartChar: c
Encoding: 99 99 68
Width: 464
GlyphClass: 2
Flags: W
HStem: -10 72<209.729 352.331> 410 75<202.054 319.045>
VStem: 38 110<129.787 345.264> 353 78<350.581 377.63>
LayerCount: 2
Fore
SplineSet
283 62 m 0
 301 62 320 67 339 76 c 0
 358 85 373 99 382 116 c 1
 415 99 431 80 431 60 c 0
 431 37 415 20 384 8 c 0
 353 -4 318 -10 279 -10 c 0
 250 -10 222 -5 194 4 c 0
 167 14 141 28 117 47 c 0
 93 66 74 91 60 123 c 0
 45 155 38 192 38 233 c 0
 38 316 62 378 110 421 c 0
 158 464 213 485 274 485 c 0
 311 485 347 476 380 459 c 0
 414 441 431 416 431 385 c 0
 431 371 424 360 410 351 c 0
 396 342 377 337 353 334 c 1
 348 358 336 377 317 390 c 0
 298 403 279 410 260 410 c 0
 228 410 201 395 180 364 c 0
 159 333 148 293 148 244 c 0
 148 181 160 134 186 106 c 0
 210 76 243 62 283 62 c 0
EndSplineSet
Validated: 1
Substitution2: "'sups' Superscript lookup 2 subtable" c.superior
Substitution2: "'smcp' Lowercase to Small Capitals in Latin lookup 0 subtable" c.sc
EndChar

StartChar: d
Encoding: 100 100 69
Width: 529
GlyphClass: 2
Flags: W
HStem: -10 74<208.331 321.382> -3 21G<404.5 433> 412 73<203.212 345.148> 723 20G<390.5 410>
VStem: 38 109<139.347 350.027> 357 102<90.0399 399.69 457 688.171>
LayerCount: 2
Fore
SplineSet
266 64 m 0xbc
 297 64 328 79 357 108 c 1
 356 231 355 325 355 391 c 1
 327 405 299 412 271 412 c 0
 233 412 203 397 180 368 c 0
 158 339 147 300 147 253 c 0
 147 197 158 152 182 116 c 0
 204 82 233 64 266 64 c 0xbc
38 238 m 0
 38 312 59 372 100 417 c 0
 141 462 190 485 249 485 c 0
 288 485 324 476 357 457 c 1
 357 576 353 670 345 739 c 1
 364 742 382 743 399 743 c 0
 421 743 438 738 450 729 c 0
 462 720 468 706 468 689 c 0
 468 672 467 611 464 506 c 0
 461 401 459 307 459 224 c 0
 459 113 465 41 478 7 c 1
 461 0 443 -3 423 -3 c 0x7c
 386 -3 365 11 361 39 c 1
 322 6 281 -10 238 -10 c 0
 184 -10 137 13 98 60 c 0
 58 107 38 166 38 238 c 0
EndSplineSet
Validated: 1
Substitution2: "'sups' Superscript lookup 2 subtable" d.superior
Substitution2: "'smcp' Lowercase to Small Capitals in Latin lookup 0 subtable" d.sc
EndChar

StartChar: e
Encoding: 101 101 70
Width: 485
GlyphClass: 2
Flags: W
HStem: -10 72<210.482 352.331> 197 65<150 303.947> 412 73<201.267 317.679>
VStem: 338 109<292.096 391.377>
LayerCount: 2
Fore
SplineSet
223 197 m 0
 205 197 181 198 150 199 c 1
 157 152 172 117 196 95 c 0
 219 73 248 62 283 62 c 0
 301 62 320 67 339 76 c 0
 358 85 373 99 382 116 c 1
 415 99 431 80 431 60 c 0
 431 37 415 20 384 8 c 0
 353 -4 318 -10 279 -10 c 0
 216 -10 161 11 112 52 c 0
 63 93 38 153 38 231 c 0
 38 313 62 376 109 419 c 0
 156 463 211 485 275 485 c 0
 326 485 368 471 400 443 c 0
 431 415 447 382 447 343 c 0
 447 312 441 286 430 265 c 0
 418 245 401 230 378 221 c 0
 355 212 332 205 309 202 c 0
 286 199 257 197 223 197 c 0
266 412 m 0
 235 412 208 400 186 376 c 0
 164 352 151 314 147 262 c 1
 190 262 221 263 241 265 c 0
 306 273 338 298 338 341 c 0
 338 360 331 377 318 391 c 0
 304 405 287 412 266 412 c 0
EndSplineSet
Validated: 1
Substitution2: "'sups' Superscript lookup 2 subtable" e.superior
Substitution2: "'smcp' Lowercase to Small Capitals in Latin lookup 0 subtable" e.sc
EndChar

StartChar: f
Encoding: 102 102 71
Width: 338
GlyphClass: 2
Flags: HMW
HStem: -2.99902 21G<142.003 165.669> 400 74<80.3364 85.002 78.002 85.0029> 641 75<245.667 268>
VStem: 83.0029 105
LayerCount: 2
Fore
SplineSet
188 508 m 2
 188 474 l 1
 244 474 287 476 316 479 c 1
 319 472 321 461 321 447 c 0
 321 430 317 419 309 413 c 0
 301 406 288 403 271 402 c 0
 252 401 224 401 188 401 c 1
 188 203 l 2
 188 115 194 50 207 7 c 1
 192 0 175 -3 156 -3 c 0
 128 -3 109 1 99 10 c 0
 88 18 83 32 83 51 c 0
 83 87 83 142 84 218 c 0
 85 292 85 353 85 400 c 1
 76 400 50 398 8 394 c 1
 5 405 4 417 4 431 c 0
 4 445 8 455 15 460 c 0
 22 465 33 469 46 472 c 0
 58 473 71 474 85 474 c 1
 86 557 101 618 128 658 c 0
 155 696 204 716 273 716 c 0
 300 716 322 712 340 702 c 0
 358 694 367 681 367 665 c 0
 367 647 355 628 330 608 c 1
 306 630 281 641 255 641 c 0
 236 641 221 634 209 619 c 0
 195 600 188 563 188 508 c 2
EndSplineSet
Validated: 1
Substitution2: "'sups' Superscript lookup 2 subtable" f.superior
Substitution2: "'smcp' Lowercase to Small Capitals in Latin lookup 0 subtable" f.sc
EndChar

StartChar: g
Encoding: 103 103 72
Width: 542
GlyphClass: 2
Flags: W
HStem: -250 85<143.06 358.045> -42 83<167.424 385.48> 117 74<192.255 313.463> 413 73<176.378 301.334> 422 81<418.64 517.597>
VStem: 30 99<-148.864 -71.2738> 39 108<229.696 383.707> 66 101<14.5 80.3193> 339 109<216.562 371.592> 403 91<-128.253 -50.8556>
LayerCount: 2
Fore
SplineSet
254 117 m 0xea80
 237 117 219 119 201 122 c 1
 178 98 167 78 167 61 c 0xe980
 167 48 187 41 227 41 c 2
 341 41 l 2
 443 41 494 3 494 -73 c 0
 494 -126 468 -168 417 -201 c 0
 366 -234 304 -250 231 -250 c 0
 164 -250 114 -238 80 -216 c 0
 47 -192 30 -164 30 -131 c 0xec40
 30 -93 54 -58 102 -25 c 1
 78 -11 66 5 66 24 c 0xe9
 66 37 72 54 85 76 c 0
 98 98 115 118 136 137 c 1
 105 150 81 171 64 200 c 0
 47 229 39 262 39 301 c 0
 39 354 58 398 97 433 c 0
 136 468 185 486 244 486 c 0xf2
 296 486 339 474 374 450 c 1
 402 485 433 503 467 503 c 0
 506 503 525 486 525 451 c 0
 525 441 523 430 519 417 c 1
 504 420 492 422 482 422 c 0
 461 422 440 417 418 408 c 1
 438 375 448 340 448 301 c 0
 448 245 429 200 391 167 c 0
 353 134 307 117 254 117 c 0xea80
339 293 m 0
 339 327 330 356 313 378 c 0
 296 402 272 413 243 413 c 0
 179 413 147 378 147 309 c 0xf280
 147 275 156 247 172 224 c 0
 190 202 213 191 243 191 c 0
 278 191 302 199 317 216 c 0
 332 233 339 258 339 293 c 0
335 -42 m 2
 237 -42 l 2
 202 -42 177 -41 161 -38 c 1
 140 -67 129 -92 129 -113 c 0
 129 -148 165 -165 238 -165 c 0
 292 -165 333 -157 361 -142 c 0
 389 -127 403 -108 403 -86 c 0xe440
 403 -69 397 -58 386 -52 c 0
 375 -45 358 -42 335 -42 c 2
EndSplineSet
Validated: 1
Substitution2: "'sups' Superscript lookup 2 subtable" g.superior
Substitution2: "'smcp' Lowercase to Small Capitals in Latin lookup 0 subtable" g.sc
EndChar

StartChar: h
Encoding: 104 104 73
Width: 529
GlyphClass: 2
Flags: W
HStem: -2 21G<98.5 127.5 408.5 430.5> 413 72<215.081 323.824> 723 20G<95 126.5>
VStem: 55 115<5.01625 282.652 653.977 734.021> 55 109<6.5527 379.215 432 687.854> 347 105<21.5077 385.15>
LayerCount: 2
Fore
SplineSet
351 304 m 0xf4
 351 341 344 368 329 386 c 0
 314 404 295 413 272 413 c 0
 235 413 199 395 162 360 c 1
 163 335 163 282 164 199 c 0xec
 164 116 166 50 170 2 c 1
 152 -1 135 -2 120 -2 c 0
 77 -2 55 11 55 38 c 0
 55 42 56 58 56 86 c 0
 58 114 58 157 59 215 c 0
 60 272 60 339 60 414 c 0
 60 571 57 679 51 738 c 1
 70 741 87 743 103 743 c 0
 150 743 174 725 174 688 c 0
 174 685 173 674 172 653 c 0
 170 632 168 602 166 563 c 0
 164 523 163 479 163 432 c 1
 209 467 261 485 318 485 c 0
 359 485 392 473 417 449 c 0
 442 425 455 386 455 333 c 0
 455 329 455 319 454 303 c 0
 454 287 454 266 453 240 c 0
 452 213 452 186 452 157 c 0
 452 102 461 53 478 9 c 1
 457 0 439 -4 422 -4 c 0
 395 -4 375 2 364 13 c 0
 353 24 347 46 347 77 c 0
 347 102 348 146 349 206 c 0
 350 268 351 300 351 304 c 0xf4
EndSplineSet
Validated: 1
Substitution2: "'sups' Superscript lookup 2 subtable" h.superior
Substitution2: "'smcp' Lowercase to Small Capitals in Latin lookup 0 subtable" h.sc
EndChar

StartChar: i
Encoding: 105 105 74
Width: 249
GlyphClass: 2
Flags: W
HStem: -4 21G<131.5 156.5> 520 142<70.6584 171.295>
VStem: 49 145<540.658 640.996> 71 106<19.1641 424.805>
LayerCount: 2
Fore
SplineSet
116 478 m 0xd0
 164 478 188 460 188 425 c 0
 188 421 187 407 185 384 c 0
 183 361 181 333 179 299 c 0
 178 265 177 233 177 202 c 0
 177 113 186 48 203 7 c 1
 186 -0 167 -4 146 -4 c 0
 117 -4 97 2 86 14 c 0
 76 26 71 46 71 75 c 0
 71 86 71 111 72 152 c 0
 73 193 73 225 73 247 c 0
 73 344 70 419 64 474 c 1
 80 477 97 478 116 478 c 0xd0
121 520 m 0
 101 520 84 527 70 540 c 0
 56 553 49 570 49 591 c 0xe0
 49 611 56 628 71 641 c 0xd0
 86 655 103 662 123 662 c 0
 142 662 159 655 173 641 c 0
 187 628 194 611 194 591 c 0xe0
 194 571 187 554 172 540 c 0
 157 527 140 520 121 520 c 0
EndSplineSet
Validated: 1
Substitution2: "'sups' Superscript lookup 2 subtable" i.superior
Substitution2: "'smcp' Lowercase to Small Capitals in Latin lookup 0 subtable" i.sc
EndChar

StartChar: j
Encoding: 106 106 75
Width: 255
GlyphClass: 2
Flags: W
HStem: -252 74<-57.0161 62.0634> 520 142<81.7046 181.295>
VStem: 59 145<540.658 641.342> 86 104<-152.951 425.192>
LayerCount: 2
Fore
SplineSet
131 520 m 0xe0
 111 520 94 527 80 540 c 0
 66 553 59 570 59 591 c 0
 59 611 66 628 81 642 c 0
 96 655 113 662 133 662 c 0
 152 662 169 655 183 642 c 0
 197 628 204 611 204 591 c 0
 204 571 197 554 182 540 c 0
 167 527 150 520 131 520 c 0xe0
126 479 m 0
 173 479 197 461 197 426 c 0
 197 409 195 377 192 328 c 0
 188 280 186 234 186 191 c 0
 186 184 187 147 188 82 c 0
 189 17 190 -33 190 -70 c 0
 190 -130 174 -175 141 -206 c 0
 108 -237 60 -252 -1 -252 c 0
 -34 -252 -63 -247 -88 -236 c 0
 -113 -225 -125 -212 -125 -195 c 0
 -125 -175 -111 -154 -83 -133 c 1
 -57 -163 -26 -178 10 -178 c 0
 61 -178 86 -140 86 -64 c 0xd0
 86 -40 86 5 85 70 c 0
 84 135 83 189 83 232 c 0
 83 345 80 426 74 474 c 1
 91 477 109 479 126 479 c 0
EndSplineSet
Validated: 1
Substitution2: "'sups' Superscript lookup 2 subtable" j.superior
Substitution2: "'smcp' Lowercase to Small Capitals in Latin lookup 0 subtable" j.sc
EndChar

StartChar: k
Encoding: 107 107 76
Width: 493
GlyphClass: 2
Flags: W
HStem: -10 78<377.73 451.319> -2 21G<98.5 127.5> 412 73<204.35 316.885> 723 20G<95 126.5>
VStem: 55 115<5.01625 282.017 647.025 734.021> 55 109<6.64362 383.425 439 687.713> 334 106<289.4 395.822>
LayerCount: 2
Fore
SplineSet
267 412 m 0xba
 236 412 201 397 162 367 c 1
 163 342 163 287 164 202 c 0xb6
 164 117 166 51 170 2 c 1
 152 -1 135 -2 120 -2 c 0x7a
 77 -2 55 11 55 38 c 0
 55 43 56 59 56 87 c 0
 58 115 58 158 59 215 c 0
 60 272 60 339 60 414 c 0
 60 571 57 679 51 738 c 1
 70 741 87 743 103 743 c 0
 150 743 174 725 174 688 c 0
 174 682 173 668 172 646 c 0
 170 623 168 594 166 556 c 0
 164 520 163 480 163 439 c 1
 207 470 252 485 297 485 c 0
 344 485 379 472 404 448 c 0
 428 422 440 392 440 355 c 0
 440 317 428 283 402 252 c 0
 378 221 343 202 299 195 c 1
 324 152 348 119 371 96 c 0
 390 77 407 68 420 68 c 0
 433 68 446 70 459 74 c 1
 466 57 470 45 470 36 c 0
 470 21 462 9 445 1 c 0
 429 -6 409 -10 385 -10 c 0
 358 -10 332 4 307 32 c 0
 272 73 237 131 204 206 c 1
 193 211 187 220 187 233 c 0
 187 242 189 252 194 265 c 1
 208 261 223 259 239 259 c 0
 268 259 292 268 308 285 c 0
 326 302 334 322 334 345 c 0
 334 364 328 380 316 392 c 0
 305 406 288 412 267 412 c 0xba
EndSplineSet
Validated: 1
Substitution2: "'sups' Superscript lookup 2 subtable" k.superior
Substitution2: "'smcp' Lowercase to Small Capitals in Latin lookup 0 subtable" k.sc
EndChar

StartChar: l
Encoding: 108 108 77
Width: 241
GlyphClass: 2
Flags: HMW
HStem: -3.99902 21G<116.667 141> 723 20G<95 126.667>
VStem: 58 104.999
LayerCount: 2
Fore
SplineSet
103 743 m 0
 150 743 174 725 174 688 c 0
 174 684 173 669 171 642 c 0
 169 615 167 576 165 525 c 0
 164 474 163 418 163 356 c 0
 163 228 164 146 167 109 c 0
 170 72 177 39 190 9 c 1
 171 0 151 -4 131 -4 c 0
 102 -4 83 2 73 15 c 0
 63 27 58 48 58 77 c 0
 59 202 60 294 60 353 c 0
 60 555 57 683 51 738 c 1
 70 741 87 743 103 743 c 0
EndSplineSet
Validated: 1
Substitution2: "'sups' Superscript lookup 2 subtable" l.superior
Substitution2: "'smcp' Lowercase to Small Capitals in Latin lookup 0 subtable" l.sc
EndChar

StartChar: m
Encoding: 109 109 78
Width: 828
GlyphClass: 2
Flags: HMW
HStem: -1.99902 21G<108.333 137.667 397.001 426.334> 413.001 72.001
VStem: 65 109<24.6675 186.334> 353.001 115 361.001 99 649 104.999
LayerCount: 2
Fore
SplineSet
51 467 m 1xec
 55 470 l 1
 73 475 89 478 103 478 c 0
 122 478 137 475 148 469 c 0
 159 463 165 450 168 429 c 1
 215 466 269 485 328 485 c 0
 386 485 426 464 448 421 c 1
 495 464 551 485 616 485 c 0
 657 485 690 473 715 449 c 0
 741 425 754 386 754 333 c 0
 754 331 753 307 752 260 c 0
 751 213 751 178 751 157 c 0
 751 102 760 53 777 9 c 1
 756 0 737 -4 720 -4 c 0
 693 -4 673 2 662 13 c 0
 651 24 645 46 645 77 c 0
 645 100 646 140 647 196 c 0
 648 252 649 288 649 304 c 0
 649 341 642 368 628 386 c 0
 613 404 594 413 571 413 c 0
 535 413 498 396 460 361 c 1xec
 461 272 462 204 462 157 c 0
 462 97 464 45 468 2 c 1
 450 -1 434 -2 419 -2 c 0
 375 -2 353 11 353 38 c 0xf4
 353 49 354 83 357 138 c 0
 360 193 361 248 361 304 c 0
 361 341 354 368 339 386 c 0
 324 404 305 413 282 413 c 0
 245 413 209 396 172 361 c 1
 173 272 174 207 174 166 c 0
 174 102 176 47 180 2 c 1
 162 -1 145 -2 130 -2 c 0
 87 -2 65 11 65 38 c 0
 65 53 66 83 68 128 c 0
 69 172 70 212 70 248 c 0
 70 359 64 432 51 467 c 1xec
EndSplineSet
Validated: 1
Substitution2: "'sups' Superscript lookup 2 subtable" m.superior
Substitution2: "'smcp' Lowercase to Small Capitals in Latin lookup 0 subtable" m.sc
EndChar

StartChar: n
Encoding: 110 110 79
Width: 532
GlyphClass: 2
Flags: W
HStem: -4 21G<108.5 137.5 418.5 440.5> 413 72<225.419 333.824>
VStem: 65 109<6.24802 379.592> 361 104<13.5237 384.67>
LayerCount: 2
Fore
SplineSet
168 429 m 1
 215 466 269 485 328 485 c 0
 369 485 402 473 427 449 c 0
 452 425 465 386 465 333 c 0
 465 326 464 300 463 255 c 0
 462 210 462 178 462 157 c 0
 462 102 471 53 488 9 c 1
 467 0 449 -4 432 -4 c 0
 405 -4 385 2 374 13 c 0
 363 24 357 46 357 77 c 0
 357 112 358 154 359 202 c 0
 360 252 361 285 361 304 c 0
 361 341 354 368 339 386 c 0
 324 404 305 413 282 413 c 0
 247 413 210 396 172 361 c 1
 173 272 174 207 174 166 c 0
 174 102 176 47 180 2 c 1
 162 -1 145 -2 130 -2 c 0
 87 -2 65 11 65 38 c 0
 65 57 66 89 67 132 c 0
 69 175 70 214 70 249 c 0
 70 360 64 432 51 467 c 1
 67 474 84 478 103 478 c 0
 122 478 137 475 148 469 c 0
 159 463 165 450 168 429 c 1
EndSplineSet
Validated: 1
Substitution2: "'sups' Superscript lookup 2 subtable" n.superior
Substitution2: "'smcp' Lowercase to Small Capitals in Latin lookup 0 subtable" n.sc
EndChar

StartChar: o
Encoding: 111 111 80
Width: 540
GlyphClass: 2
Flags: W
HStem: -10 74<207.116 337.485> 412 73<201.288 330.837>
VStem: 38 109<138.473 350.479> 393 109<125.314 336.849>
LayerCount: 2
Fore
SplineSet
393 225 m 0
 393 278 382 323 360 358 c 0
 337 394 307 412 269 412 c 0
 230 412 200 397 179 368 c 0
 158 339 147 300 147 251 c 0
 147 197 158 152 180 117 c 0
 201 82 231 64 269 64 c 0
 308 64 339 79 360 108 c 0
 382 137 393 176 393 225 c 0
269 -10 m 0
 200 -10 144 12 102 58 c 0
 59 102 38 163 38 238 c 0
 38 313 59 373 102 418 c 0
 144 463 200 485 269 485 c 0
 339 485 395 463 438 418 c 0
 481 373 502 313 502 238 c 0
 502 163 481 102 438 58 c 0
 395 12 339 -10 269 -10 c 0
EndSplineSet
Validated: 1
Substitution2: "'sups' Superscript lookup 2 subtable" o.superior
Substitution2: "'smcp' Lowercase to Small Capitals in Latin lookup 0 subtable" o.sc
EndChar

StartChar: p
Encoding: 112 112 81
Width: 530
GlyphClass: 2
Flags: W
HStem: -252 21G<121.5 144> -10 74<184.271 327.956> 412 73<228.157 339.099>
VStem: 67 105<-237.619 18 79.8269 382.462> 383 109<136.243 360.583>
LayerCount: 2
Fore
SplineSet
281 412 m 0
 244 412 207 397 172 368 c 1
 173 204 174 112 174 91 c 1
 200 73 233 64 272 64 c 0
 297 64 319 74 336 93 c 0
 353 112 366 136 372 162 c 0
 380 190 383 219 383 251 c 0
 383 306 374 347 354 373 c 0
 336 399 311 412 281 412 c 0
169 426 m 1
 218 465 267 485 318 485 c 0
 369 485 411 467 443 431 c 0
 476 395 492 340 492 265 c 0
 492 188 473 123 436 70 c 0
 399 17 345 -10 275 -10 c 0
 240 -10 205 -1 172 18 c 1
 172 -117 179 -203 192 -242 c 1
 172 -249 153 -252 135 -252 c 0
 108 -252 90 -248 81 -238 c 0
 72 -230 67 -214 67 -193 c 0
 67 -143 67 -65 68 40 c 0
 69 145 70 215 70 250 c 0
 70 359 64 431 51 467 c 1
 68 474 86 478 107 478 c 0
 146 478 166 461 169 426 c 1
EndSplineSet
Validated: 1
Substitution2: "'sups' Superscript lookup 2 subtable" p.superior
Substitution2: "'smcp' Lowercase to Small Capitals in Latin lookup 0 subtable" p.sc
EndChar

StartChar: q
Encoding: 113 113 82
Width: 537
GlyphClass: 2
Flags: W
HStem: -252 21G<416.5 439.5> -10 74<208.323 332.685> 412 73<203.716 341.431>
VStem: 38 109<139.353 348.817> 361 105<-237.575 31 88.2688 292.477>
LayerCount: 2
Fore
SplineSet
264 412 m 0
 231 412 204 397 181 368 c 0
 158 339 147 301 147 256 c 0
 147 197 158 151 181 116 c 0
 204 81 232 64 266 64 c 0
 303 64 336 79 363 109 c 1
 364 174 366 260 371 367 c 1
 342 397 306 412 264 412 c 0
242 -10 m 0
 186 -10 138 14 98 61 c 0
 58 108 38 166 38 237 c 0
 38 314 60 374 104 419 c 0
 148 463 203 485 269 485 c 0
 349 485 419 462 479 416 c 1
 470 327 466 196 466 23 c 0
 466 -122 473 -210 486 -243 c 1
 468 -249 449 -252 430 -252 c 0
 403 -252 384 -247 375 -238 c 0
 366 -229 361 -216 361 -199 c 0
 361 -101 362 -24 363 31 c 1
 328 4 288 -10 242 -10 c 0
EndSplineSet
Validated: 1
Substitution2: "'sups' Superscript lookup 2 subtable" q.superior
Substitution2: "'smcp' Lowercase to Small Capitals in Latin lookup 0 subtable" q.sc
EndChar

StartChar: r
Encoding: 114 114 83
Width: 358
GlyphClass: 2
Flags: W
HStem: -4 21G<116.5 141.5> 388 97<222.261 317.934>
VStem: 60 103<23.6054 330.984>
LayerCount: 2
Fore
SplineSet
103 478 m 0
 127 478 144 474 154 465 c 0
 165 456 170 443 170 424 c 2
 170 412 l 1
 209 461 246 485 283 485 c 0
 322 485 341 471 341 443 c 0
 341 424 329 400 305 370 c 1
 291 382 275 388 258 388 c 0
 224 388 193 370 166 333 c 1
 164 290 163 247 163 203 c 0
 163 116 172 51 190 9 c 1
 172 0 152 -4 131 -4 c 0
 102 -4 83 2 73 15 c 0
 63 28 58 48 58 76 c 0
 58 84 58 107 59 144 c 0
 60 181 60 211 60 232 c 0
 60 343 57 424 51 473 c 1
 70 476 88 478 103 478 c 0
EndSplineSet
Validated: 1
Substitution2: "'sups' Superscript lookup 2 subtable" r.superior
Substitution2: "'smcp' Lowercase to Small Capitals in Latin lookup 0 subtable" r.sc
EndChar

StartChar: s
Encoding: 115 115 84
Width: 437
GlyphClass: 2
Flags: W
HStem: -10 79<136.873 292.633> 406 79<155.447 289.747>
VStem: 44 100<308.02 392.617> 302 100<80.4476 161.162>
LayerCount: 2
Fore
SplineSet
319 341 m 1
 306 384 269 406 208 406 c 0
 191 406 176 401 163 391 c 0
 150 382 144 369 144 352 c 0
 144 332 153 316 170 305 c 0
 188 294 210 285 235 280 c 0
 260 275 286 268 311 261 c 0
 336 254 358 240 375 220 c 0
 393 200 402 173 402 140 c 0
 402 91 383 54 344 28 c 0
 306 3 261 -10 209 -10 c 0
 163 -10 122 -2 87 13 c 0
 52 28 34 47 34 70 c 0
 34 99 55 122 96 139 c 1
 116 92 159 69 226 69 c 0
 277 69 302 86 302 120 c 0
 302 140 293 155 275 165 c 0
 258 176 236 183 211 188 c 0
 186 193 160 200 135 208 c 0
 110 216 88 231 70 252 c 0
 53 273 44 302 44 338 c 0
 44 386 63 422 102 447 c 0
 140 472 185 485 237 485 c 0
 257 485 278 483 300 478 c 0
 321 474 342 465 362 451 c 0
 383 438 393 421 393 400 c 0
 393 387 386 375 373 364 c 0
 360 354 342 346 319 341 c 1
EndSplineSet
Validated: 1
Substitution2: "'sups' Superscript lookup 2 subtable" s.superior
Substitution2: "'smcp' Lowercase to Small Capitals in Latin lookup 0 subtable" s.sc
EndChar

StartChar: t
Encoding: 116 116 85
Width: 372
GlyphClass: 2
Flags: HMW
HStem: -10 70.998 402.001 71.999
VStem: 94 105.001 94.001 109
LayerCount: 2
Fore
SplineSet
49 474 m 0xe0
 55 475 70 475 94 475 c 1
 93 514 91 548 88 576 c 1
 102 579 118 580 137 580 c 0
 183 580 206 568 206 543 c 0
 206 527 205 504 203 474 c 1xd0
 275 474 325 476 353 480 c 1
 357 473 359 462 359 449 c 0
 359 431 355 419 347 412 c 0
 339 406 326 403 309 402 c 0
 289 401 253 401 201 401 c 1
 200 338 199 271 199 198 c 0
 199 177 200 159 201 145 c 0
 202 131 205 117 210 103 c 0
 215 89 222 78 231 71 c 0
 240 64 252 61 267 61 c 0
 288 61 309 73 331 96 c 1
 348 77 357 60 357 47 c 0
 357 28 347 13 328 4 c 0
 308 -5 286 -10 261 -10 c 0
 150 -10 94 51 94 172 c 0
 94 203 94 247 94 302 c 0
 95 358 95 391 95 402 c 1
 52 399 22 397 4 394 c 1
 1 401 0 412 0 427 c 0
 0 444 4 456 12 462 c 0
 19 468 32 472 49 474 c 0xe0
EndSplineSet
Validated: 1
Substitution2: "'sups' Superscript lookup 2 subtable" t.superior
Substitution2: "'smcp' Lowercase to Small Capitals in Latin lookup 0 subtable" t.sc
EndChar

StartChar: u
Encoding: 117 117 86
Width: 529
GlyphClass: 2
Flags: W
HStem: -10 74<196.787 309.603> -3 21G<421.5 437.5>
VStem: 65 104<91.8496 466.621> 357 102<98.6933 472.405>
LayerCount: 2
Fore
SplineSet
364 47 m 1x70
 320 9 269 -10 212 -10 c 0
 114 -10 65 37 65 132 c 0
 65 137 65 162 66 208 c 0
 67 255 68 288 68 309 c 0
 68 378 62 431 51 470 c 1
 69 476 87 479 106 479 c 0
 131 479 148 475 159 467 c 0
 170 459 175 446 175 427 c 0
 175 392 174 345 172 285 c 0
 170 225 169 186 169 169 c 0
 169 135 176 109 190 91 c 0
 205 73 223 64 246 64 c 0xb0
 285 64 322 81 357 115 c 1
 356 142 356 185 356 242 c 0
 356 342 354 420 349 475 c 1
 368 478 384 479 399 479 c 0
 442 479 463 466 463 440 c 0
 463 428 462 395 461 340 c 0
 460 285 459 240 459 204 c 0
 459 121 465 55 478 8 c 1
 464 1 447 -3 428 -3 c 0
 415 -3 405 -2 398 -1 c 0
 391 1 384 6 377 13 c 0
 370 21 366 32 364 47 c 1x70
EndSplineSet
Validated: 1
Substitution2: "'sups' Superscript lookup 2 subtable" u.superior
Substitution2: "'smcp' Lowercase to Small Capitals in Latin lookup 0 subtable" u.sc
EndChar

StartChar: v
Encoding: 118 118 87
Width: 462
GlyphClass: 2
Flags: W
HStem: -3 21G<197 221> 465 20G<368.5 395.5>
VStem: 332 101<326.351 478.76>
LayerCount: 2
Fore
SplineSet
377 485 m 0
 414 485 433 472 433 445 c 0
 433 400 416 331 382 239 c 0
 349 147 315 80 281 37 c 0
 260 10 235 -3 207 -3 c 0
 187 -3 171 -2 160 1 c 1
 145 79 120 167 85 265 c 0
 50 362 21 423 -3 447 c 1
 26 470 53 481 76 481 c 0
 99 481 116 469 127 446 c 0
 138 423 156 376 181 305 c 0
 206 234 226 170 242 114 c 1
 263 147 283 199 302 268 c 0
 322 337 332 397 332 446 c 0
 332 458 331 469 329 479 c 1
 344 483 360 485 377 485 c 0
EndSplineSet
Validated: 1
Substitution2: "'sups' Superscript lookup 2 subtable" v.superior
Substitution2: "'smcp' Lowercase to Small Capitals in Latin lookup 0 subtable" v.sc
EndChar

StartChar: w
Encoding: 119 119 88
Width: 734
GlyphClass: 2
Flags: W
HStem: -3 21G<197 221 469 493> 465 20G<368.5 395.5 640 667.5>
VStem: 332 101<341.493 478.76> 605 100<325.98 478.76>
LayerCount: 2
Fore
SplineSet
649 485 m 0
 686 485 705 472 705 445 c 0
 705 400 688 331 655 239 c 0
 622 147 588 80 554 37 c 0
 532 10 507 -3 479 -3 c 0
 459 -3 444 -2 433 1 c 1
 419 72 400 144 376 219 c 1
 344 137 312 76 281 37 c 0
 260 10 235 -3 207 -3 c 0
 187 -3 171 -2 160 1 c 1
 145 79 120 167 85 264 c 0
 50 362 21 423 -3 447 c 1
 26 470 53 481 76 481 c 0
 99 481 116 469 127 446 c 0
 139 423 157 376 182 305 c 0
 206 234 226 171 242 115 c 1
 262 150 282 202 302 270 c 0
 322 337 332 396 332 446 c 0
 332 458 331 469 329 479 c 1
 344 483 360 485 377 485 c 0
 414 485 433 472 433 445 c 0
 433 427 430 406 424 381 c 1
 465 273 495 184 514 115 c 1
 536 152 557 204 576 270 c 0
 595 335 605 394 605 446 c 0
 605 458 604 469 602 479 c 1
 615 483 631 485 649 485 c 0
EndSplineSet
Validated: 1
Substitution2: "'sups' Superscript lookup 2 subtable" w.superior
Substitution2: "'smcp' Lowercase to Small Capitals in Latin lookup 0 subtable" w.sc
EndChar

StartChar: x
Encoding: 120 120 89
Width: 456
GlyphClass: 2
Flags: W
HStem: -10 21G<83 117.5 352.5 375.5> 465 20G<87 109 304.5 338.5>
VStem: 21 93<11.429 49.1162> 307 95<421 463.556>
LayerCount: 2
Fore
SplineSet
309 20 m 0
 286 48 253 99 209 172 c 1
 152 88 121 27 114 -10 c 1
 52 -10 21 3 21 30 c 0
 21 49 38 81 73 126 c 0
 108 171 142 210 177 243 c 1
 102 353 50 418 21 437 c 1
 52 469 77 485 97 485 c 0
 121 485 140 476 154 457 c 0
 170 436 198 393 237 326 c 1
 279 399 302 453 307 486 c 1
 370 485 402 471 402 446 c 0
 402 430 388 402 360 362 c 0
 333 323 303 287 271 254 c 1
 305 201 338 154 370 111 c 0
 403 69 427 42 443 31 c 1
 416 4 389 -10 362 -10 c 0
 343 -10 325 0 309 20 c 0
EndSplineSet
Validated: 1
Substitution2: "'sups' Superscript lookup 2 subtable" x.superior
Substitution2: "'smcp' Lowercase to Small Capitals in Latin lookup 0 subtable" x.sc
EndChar

StartChar: y
Encoding: 121 121 90
Width: 466
GlyphClass: 2
Flags: W
HStem: 465 20G<376.5 404>
VStem: 337 103<331.335 479.094>
LayerCount: 2
Fore
SplineSet
103 -250 m 0
 90 -250 77 -245 64 -235 c 0
 52 -225 42 -212 34 -197 c 1
 53 -184 77 -161 107 -126 c 0
 137 -91 166 -51 193 -6 c 1
 168 76 136 165 97 262 c 0
 58 359 26 420 -0 446 c 1
 33 469 59 480 79 480 c 0
 104 480 122 469 133 446 c 0
 148 415 168 368 194 304 c 0
 220 239 242 179 259 122 c 1
 282 178 300 237 315 299 c 0
 330 361 337 411 337 449 c 0
 337 461 336 471 335 479 c 1
 350 483 367 485 386 485 c 0
 422 485 440 471 440 443 c 0
 440 412 428 359 404 284 c 0
 380 209 352 136 319 65 c 0
 259 -65 204 -161 154 -223 c 0
 139 -241 122 -250 103 -250 c 0
EndSplineSet
Validated: 1
Substitution2: "'sups' Superscript lookup 2 subtable" y.superior
Substitution2: "'smcp' Lowercase to Small Capitals in Latin lookup 0 subtable" y.sc
EndChar

StartChar: z
Encoding: 122 122 91
Width: 489
GlyphClass: 2
Flags: W
HStem: -6 76<141.548 365.098> 403 78<82.8086 325.355>
LayerCount: 2
Fore
SplineSet
438 404 m 0
 438 385 432 370 419 357 c 0
 351 286 258 190 141 70 c 1
 250 70 338 81 405 103 c 1
 412 86 415 69 415 52 c 0
 415 40 412 30 406 22 c 0
 399 15 392 10 385 7 c 0
 377 5 367 3 354 1 c 0
 326 -4 282 -6 222 -6 c 0
 149 -6 87 -2 37 7 c 1
 26 23 21 40 21 59 c 0
 21 77 29 94 45 111 c 0
 66 133 110 178 176 245 c 0
 242 312 292 364 327 401 c 1
 308 402 280 403 241 403 c 0
 169 403 109 394 60 377 c 1
 53 396 50 414 50 433 c 0
 51 453 62 466 82 473 c 0
 99 478 132 481 183 481 c 0
 219 481 261 478 310 473 c 0
 358 468 395 462 421 455 c 1
 432 442 438 425 438 404 c 0
EndSplineSet
Validated: 1
Substitution2: "'sups' Superscript lookup 2 subtable" z.superior
Substitution2: "'smcp' Lowercase to Small Capitals in Latin lookup 0 subtable" z.sc
EndChar

StartChar: braceleft
Encoding: 123 123 92
Width: 433
GlyphClass: 2
Flags: W
HStem: -142 73<278.289 374.527> 254 65<59 139.275> 641 74<278.289 374.527>
VStem: 170 99<-57.666 224.285 348.349 629.666>
LayerCount: 2
Fore
SplineSet
268 587 m 2
 268 391 l 2
 268 372 262 353 248 332 c 0
 236 311 221 296 204 286 c 1
 221 275 236 260 250 240 c 0
 262 221 269 202 269 183 c 2
 269 -14 l 2
 269 -36 272 -51 278 -58 c 0
 284 -65 300 -69 327 -69 c 0
 349 -69 365 -72 375 -78 c 0
 385 -84 390 -95 390 -111 c 0
 390 -120 387 -129 382 -140 c 1
 366 -141 350 -142 335 -142 c 0
 272 -142 228 -133 205 -114 c 0
 182 -95 170 -66 170 -25 c 2
 170 181 l 2
 170 198 161 215 142 230 c 0
 123 246 96 254 59 254 c 1
 59 319 l 1
 96 319 124 327 142 343 c 0
 162 359 171 376 171 393 c 2
 171 598 l 2
 171 639 182 668 206 687 c 0
 228 706 272 715 335 715 c 0
 350 715 366 714 382 713 c 1
 387 702 390 692 390 683 c 0
 390 667 385 656 375 650 c 0
 365 644 349 641 327 641 c 0
 300 641 284 637 278 630 c 0
 271 623 268 608 268 587 c 2
EndSplineSet
Validated: 1
EndChar

StartChar: bar
Encoding: 124 124 93
Width: 535
GlyphClass: 2
Flags: W
HStem: 717 20G<257 282.5>
VStem: 222 92<-245.222 -126.559 629.094 732.836> 229 77<-210.84 698.844>
LayerCount: 2
Fore
SplineSet
229 -9 m 2xa0
 229 564 l 2
 229 642 226 699 221 734 c 1
 232 736 247 737 267 737 c 0
 298 737 313 724 313 699 c 0
 313 696 312 672 310 627 c 0
 307 582 306 549 306 528 c 2
 306 -54 l 2xa0
 306 -134 309 -198 314 -246 c 1
 303 -248 288 -249 268 -249 c 0
 237 -249 222 -236 222 -211 c 0xc0
 222 -208 223 -179 226 -124 c 0
 228 -69 229 -31 229 -9 c 2xa0
EndSplineSet
Validated: 1
EndChar

StartChar: braceright
Encoding: 125 125 94
Width: 414
GlyphClass: 2
Flags: W
HStem: -142 73<40.4731 136.711> 254 65<275.833 356> 641 74<40.4731 137.665>
VStem: 146 99<-57.666 224.285 348.349 629.666>
LayerCount: 2
Fore
SplineSet
147 391 m 2
 147 587 l 2
 147 608 144 623 138 630 c 0
 131 637 115 641 88 641 c 0
 66 641 50 644 40 650 c 0
 30 656 25 667 25 683 c 0
 25 692 28 702 33 713 c 1
 49 714 65 715 80 715 c 0
 143 715 186 706 210 687 c 0
 232 668 244 639 244 598 c 2
 244 393 l 2
 244 376 254 359 272 343 c 0
 292 327 319 319 356 319 c 1
 356 254 l 1
 319 254 292 246 273 230 c 0
 254 215 245 198 245 181 c 2
 245 -25 l 2
 245 -66 233 -95 210 -114 c 0
 187 -133 143 -142 80 -142 c 0
 65 -142 49 -141 33 -140 c 1
 28 -129 25 -120 25 -111 c 0
 25 -95 30 -84 40 -78 c 0
 50 -72 66 -69 88 -69 c 0
 115 -69 131 -65 137 -58 c 0
 143 -51 146 -36 146 -14 c 2
 146 183 l 2
 146 202 152 221 166 240 c 0
 178 260 194 275 211 286 c 1
 194 296 180 311 166 332 c 0
 154 353 147 372 147 391 c 2
EndSplineSet
Validated: 1
EndChar

StartChar: asciitilde
Encoding: 126 126 95
Width: 557
GlyphClass: 2
Flags: W
HStem: 208 90<277.192 461.705> 247 90<97.4034 293.185>
LayerCount: 2
Fore
SplineSet
34 269 m 0x40
 34 314 75 337 157 337 c 0x40
 195 337 238 330 287 317 c 0
 336 304 373 298 398 298 c 0
 429 298 460 313 491 344 c 1
 512 317 523 295 523 277 c 0
 523 253 511 235 487 224 c 0
 463 213 433 208 398 208 c 0x80
 374 208 337 214 288 227 c 0
 238 240 200 247 173 247 c 0
 133 247 98 232 67 201 c 1
 45 230 34 252 34 269 c 0x40
EndSplineSet
Validated: 1
EndChar

StartChar: exclamdown
Encoding: 161 161 97
Width: 308
GlyphClass: 2
Flags: W
HStem: 343 142<97.6584 199.697>
VStem: 76 145<364.23 463.996> 109 97<-162.817 240.718>
LayerCount: 2
Fore
SplineSet
148 343 m 0xc0
 128 343 111 350 97 363 c 0
 83 376 76 393 76 414 c 0
 76 434 83 451 98 464 c 0
 113 478 130 485 150 485 c 0
 169 485 186 478 200 464 c 0
 214 451 221 434 221 414 c 0
 221 394 214 377 199 364 c 0
 184 350 167 343 148 343 c 0xc0
92 -164 m 0
 93 -139 96 -99 101 -46 c 0
 106 8 109 53 109 90 c 0
 109 165 104 215 94 242 c 1
 113 251 131 255 146 255 c 0
 183 255 202 238 203 205 c 0
 204 184 204 149 204 98 c 0
 205 47 205 6 206 -24 c 0xa0
 207 -56 208 -89 211 -126 c 0
 214 -163 218 -191 223 -211 c 1
 194 -216 171 -219 154 -219 c 0
 113 -219 92 -201 92 -164 c 0
EndSplineSet
Validated: 1
Substitution2: "'c2sc' Capitals to Small Capitals in Latin lookup 1 subtable" exclamdown.sc
EndChar

StartChar: cent
Encoding: 162 162 98
Width: 535
GlyphClass: 2
Flags: W
HStem: 68 71<329 387.806> 502 78<232.922 274> 514 71<329 385.875>
VStem: 65 108<221.377 430.973> 274 55<-14.095 68 147 502 585 682.517>
LayerCount: 2
Fore
SplineSet
173 326 m 0xd8
 173 235 207 175 274 147 c 1
 274 502 l 1
 244 494 220 474 201 443 c 0
 182 412 173 373 173 326 c 0xd8
499 155 m 0
 499 130 481 109 445 92 c 0
 410 76 371 68 329 68 c 1
 330 33 331 5 334 -14 c 1
 314 -16 l 2
 287 -16 274 -7 274 11 c 2
 274 72 l 1
 214 82 164 108 124 151 c 0
 85 193 65 252 65 328 c 0
 65 401 85 458 124 500 c 0
 163 542 213 569 274 580 c 1xd8
 274 592 272 626 269 681 c 1
 279 683 287 684 292 684 c 0
 317 684 329 675 329 657 c 2
 329 585 l 1
 367 584 405 576 442 560 c 0
 480 544 499 523 499 497 c 0
 499 469 476 451 431 442 c 1
 401 489 367 513 329 514 c 1xb8
 329 139 l 1
 349 140 366 145 382 156 c 0
 396 166 413 184 431 209 c 1
 452 204 469 197 481 187 c 0
 493 177 499 166 499 155 c 0
EndSplineSet
Validated: 1
Substitution2: "'onum' Oldstyle Figures lookup 3 subtable" centoldstyle
EndChar

StartChar: sterling
Encoding: 163 163 99
Width: 535
GlyphClass: 2
Flags: W
HStem: -3 69<180.471 417.913> 328 56<113 179> 333 67<366.074 430.923> 594 80<247.574 326.291>
VStem: 138 98<466.035 583.053> 209 111<207.475 325.403>
LayerCount: 2
Fore
SplineSet
432 368 m 0xb8
 432 350 427 338 416 333 c 0xb8
 405 328 388 325 365 325 c 0
 348 325 332 325 317 326 c 1
 319 315 320 303 320 291 c 0
 320 222 273 148 178 67 c 1
 192 66 212 66 239 66 c 0
 324 66 399 78 462 102 c 1
 477 85 485 69 485 53 c 0
 485 34 473 20 448 11 c 0
 424 2 374 -3 299 -3 c 0
 201 -3 127 2 76 11 c 1
 67 22 63 38 63 59 c 1
 109 86 145 120 171 159 c 0
 196 198 209 235 209 269 c 0
 209 289 206 309 201 328 c 1
 155 328 120 327 95 324 c 1
 91 335 89 343 89 348 c 0
 89 353 90 358 92 362 c 0
 93 366 96 369 101 372 c 0
 105 374 109 376 113 378 c 0
 116 379 121 380 128 381 c 0
 135 382 140 382 144 383 c 0
 148 383 154 383 162 384 c 0
 170 384 176 384 179 384 c 1xd4
 178 387 175 394 170 404 c 0
 165 413 162 420 160 425 c 0
 158 430 155 436 152 445 c 0
 149 454 146 461 145 467 c 0
 143 473 141 480 140 487 c 0
 139 494 138 501 138 508 c 0
 138 549 154 587 186 622 c 0
 217 657 257 674 305 674 c 0
 328 674 350 669 369 658 c 0
 388 647 398 631 398 610 c 0
 398 586 378 567 339 554 c 1
 324 581 306 594 283 594 c 0
 270 594 258 589 250 580 c 0
 240 570 236 556 236 537 c 0
 236 518 246 489 265 451 c 0
 284 413 295 392 297 387 c 1
 342 390 385 394 426 400 c 1
 430 391 432 381 432 368 c 0xb8
EndSplineSet
Validated: 1
Substitution2: "'onum' Oldstyle Figures lookup 3 subtable" sterlingoldstyle
EndChar

StartChar: yen
Encoding: 165 165 100
Width: 535
GlyphClass: 2
Flags: W
HStem: -3 21G<275 295> 192 53<55.7413 223 323 493.294> 299 54<55.7413 201 360 491.076> 649 20G<70 94 448.5 474.5>
VStem: 224 99<12.8442 192 245 299> 423 93<597.517 664.916>
LayerCount: 2
Fore
SplineSet
222 53 m 0
 223 97 223 143 223 192 c 1
 154 192 100 190 60 186 c 1
 56 193 54 202 54 211 c 0
 54 234 68 245 97 245 c 2
 224 245 l 1
 224 299 l 1
 155 299 101 297 60 293 c 1
 56 302 54 310 54 319 c 0
 54 342 68 353 97 353 c 2
 201 353 l 1
 192 367 179 390 162 420 c 0
 144 452 131 474 123 486 c 0
 114 500 103 516 90 536 c 0
 76 556 63 572 51 586 c 0
 38 598 25 610 11 621 c 1
 32 653 56 669 84 669 c 0
 104 669 123 656 141 631 c 0
 188 564 238 483 289 390 c 1
 319 433 348 485 378 545 c 0
 406 604 422 646 423 669 c 1
 433 672 443 673 454 673 c 0
 495 673 516 658 516 627 c 0
 516 612 499 575 465 516 c 0
 431 456 396 402 360 353 c 1
 408 353 452 355 493 360 c 1
 498 335 l 1
 498 311 484 299 455 299 c 2
 323 299 l 1
 323 245 l 1
 392 245 449 247 493 251 c 1
 498 228 l 1
 498 204 484 192 455 192 c 2
 323 192 l 1
 323 111 329 50 341 11 c 1
 321 2 303 -3 287 -3 c 0
 263 -3 246 2 236 11 c 0
 227 20 222 34 222 53 c 0
EndSplineSet
Validated: 1
Substitution2: "'onum' Oldstyle Figures lookup 3 subtable" yenoldstyle
EndChar

StartChar: brokenbar
Encoding: 166 166 101
Width: 535
GlyphClass: 2
Flags: W
HStem: 717 20G<257 282.5>
VStem: 221 92<-244.836 191.222 297.164 430.975 568.595 733.222> 229 77<-210.842 156.844 331.164 698.844>
LayerCount: 2
Fore
SplineSet
229 565 m 0xa0
 229 642 226 699 221 734 c 1
 232 736 247 737 267 737 c 0
 298 737 313 724 313 699 c 0xc0
 313 696 312 672 310 627 c 0
 307 582 306 549 306 528 c 2
 306 488 l 2
 306 408 309 344 314 296 c 1
 303 294 288 293 268 293 c 0
 237 293 222 306 222 331 c 0
 222 334 223 369 226 434 c 0
 228 499 229 543 229 565 c 0xa0
229 -18 m 2xa0
 229 21 l 2xa0
 229 100 226 157 221 192 c 1
 232 194 247 195 267 195 c 0
 298 195 313 182 313 157 c 0xc0
 313 154 312 130 310 86 c 0
 307 41 306 8 306 -14 c 2
 306 -54 l 2
 306 -134 309 -198 314 -246 c 1
 303 -248 288 -249 268 -249 c 0
 237 -249 222 -236 222 -211 c 0
 222 -208 223 -181 226 -130 c 0
 228 -79 229 -42 229 -18 c 2xa0
EndSplineSet
Validated: 1
EndChar

StartChar: section
Encoding: 167 167 102
Width: 456
GlyphClass: 2
Flags: W
HStem: -78 71<144.875 286.276> 602 71<176.856 290.073>
VStem: 48 92<299.444 384.084> 70 91<481 587.331> 300 94<7.54089 121.731> 322 92<211.339 299.804>
LayerCount: 2
Fore
SplineSet
140 351 m 0xe4
 140 328 150 308 171 291 c 0
 192 274 219 259 252 244 c 0
 285 230 307 219 318 211 c 1
 321 219 322 230 322 245 c 0
 322 266 315 283 302 298 c 0
 288 313 272 324 255 331 c 0
 238 338 218 347 195 356 c 0
 172 366 155 376 144 385 c 1
 141 377 140 366 140 351 c 0xe4
48 333 m 0
 48 378 66 411 101 432 c 1
 80 457 70 489 70 528 c 0
 70 571 87 606 120 633 c 0
 153 660 196 673 250 673 c 0
 284 673 318 665 351 650 c 0
 384 635 400 615 400 588 c 0
 400 565 376 547 327 535 c 1
 319 555 305 571 286 583 c 0
 267 596 247 602 226 602 c 0
 208 602 193 597 180 587 c 0
 167 577 161 562 161 542 c 0
 161 516 170 494 187 476 c 0
 204 458 226 443 251 432 c 0
 276 421 300 409 325 396 c 0
 350 384 371 367 388 344 c 0
 405 322 414 295 414 263 c 0xd4
 414 225 397 192 362 164 c 1
 383 138 394 107 394 72 c 0
 394 31 378 -5 345 -34 c 0
 312 -63 267 -78 208 -78 c 0
 163 -78 124 -70 90 -53 c 0
 55 -36 38 -16 38 8 c 0
 38 21 44 32 57 40 c 0
 69 47 87 55 111 62 c 1
 126 16 166 -7 229 -7 c 0
 276 -7 300 16 300 62 c 0xc8
 300 88 291 110 274 127 c 0
 257 144 236 158 211 168 c 0
 186 179 162 190 137 201 c 0
 112 212 91 229 74 251 c 0
 57 273 48 300 48 333 c 0
EndSplineSet
Validated: 1
EndChar

StartChar: dieresis
Encoding: 168 168 103
Width: 273
GlyphClass: 2
Flags: W
HStem: 520 142<-3.29541 96.2954 186.705 286.295>
VStem: -26 145<540.658 641.342> 164 145<540.658 641.342>
LayerCount: 2
Fore
SplineSet
236 520 m 0
 216 520 199 527 185 540 c 0
 171 553 164 570 164 591 c 0
 164 611 171 628 186 642 c 0
 201 655 218 662 238 662 c 0
 257 662 274 655 288 642 c 0
 302 628 309 611 309 591 c 0
 309 571 302 554 287 540 c 0
 272 527 255 520 236 520 c 0
46 520 m 0
 26 520 9 527 -5 540 c 0
 -19 553 -26 570 -26 591 c 0
 -26 611 -19 628 -4 642 c 0
 11 655 28 662 48 662 c 0
 67 662 84 655 98 642 c 0
 112 628 119 611 119 591 c 0
 119 571 112 554 97 540 c 0
 82 527 65 520 46 520 c 0
EndSplineSet
Validated: 1
EndChar

StartChar: copyright
Encoding: 169 169 104
Width: 858
GlyphClass: 2
Flags: W
HStem: -34 57<368.248 584.104> 96 73<434.443 562.244> 478 73<425.054 531.025> 617 57<368.248 584.491>
VStem: 130 72<196.805 443.398> 267 115<225.345 427.596> 750 72<195.164 443.217>
LayerCount: 2
Fore
SplineSet
750 320 m 0
 750 408 724 480 670 535 c 0
 618 590 553 617 477 617 c 0
 400 617 334 590 282 535 c 0
 228 480 202 409 202 320 c 0
 202 231 228 160 282 105 c 0
 334 50 400 23 477 23 c 0
 553 23 618 50 670 105 c 0
 724 160 750 231 750 320 c 0
822 320 m 0
 822 220 788 136 721 68 c 0
 654 0 573 -34 477 -34 c 0
 379 -34 297 -0 230 68 c 0
 163 135 130 219 130 320 c 0
 130 421 163 506 230 573 c 0
 297 640 379 674 477 674 c 0
 574 674 655 640 722 573 c 0
 789 506 822 421 822 320 c 0
627 161 m 0
 627 144 613 129 586 116 c 0
 559 103 526 96 489 96 c 0
 462 96 436 100 411 108 c 0
 386 115 363 127 340 144 c 0
 318 160 300 183 287 214 c 0
 274 244 267 279 267 319 c 0
 267 395 289 453 333 492 c 0
 377 531 427 551 483 551 c 0
 503 551 523 548 544 542 c 0
 565 537 585 527 602 513 c 0
 619 500 628 483 628 464 c 0
 628 438 604 422 555 415 c 1
 550 436 539 451 524 462 c 0
 509 473 493 478 476 478 c 0
 449 478 427 464 409 437 c 0
 391 410 382 374 382 330 c 0
 382 274 393 233 416 208 c 0
 439 182 467 169 498 169 c 0
 534 169 563 184 586 215 c 1
 613 198 627 180 627 161 c 0
EndSplineSet
Validated: 1
EndChar

StartChar: ordfeminine
Encoding: 170 170 105
Width: 308
GlyphClass: 2
Flags: W
HStem: 250 55<27.7315 271.575> 366 48<111.36 180.31> 594 49<99.6672 176.389>
VStem: 25 80<419.905 477.622> 181 78<418.25 493 527 579.572>
LayerCount: 2
Fore
SplineSet
286 280 m 0
 286 269 281 261 272 254 c 0
 263 248 250 245 234 245 c 0
 225 245 210 246 188 248 c 0
 165 249 148 250 136 250 c 2
 127 250 l 2
 96 250 63 246 26 239 c 1
 23 251 21 261 21 270 c 0
 21 293 38 305 73 305 c 0
 78 305 92 304 114 303 c 0
 136 302 154 301 168 301 c 2
 186 301 l 2
 219 301 250 304 279 311 c 1
 284 300 286 290 286 280 c 0
105 453 m 0
 105 440 108 431 114 424 c 0
 120 417 128 414 137 414 c 0
 154 414 168 420 181 432 c 1
 181 493 l 1
 155 488 136 482 124 477 c 0
 111 472 105 464 105 453 c 0
146 643 m 0
 185 643 214 636 232 621 c 0
 251 607 260 582 260 547 c 0
 260 532 260 516 260 501 c 0
 259 486 259 478 259 475 c 0
 259 432 263 399 270 378 c 1
 254 373 240 370 229 370 c 0
 218 370 209 371 204 374 c 0
 199 377 195 383 192 392 c 1
 172 375 147 366 118 366 c 0
 92 366 70 372 52 385 c 0
 34 398 25 420 25 451 c 0
 25 485 46 508 89 519 c 0
 110 524 142 527 184 527 c 1
 184 553 181 571 175 580 c 0
 169 589 157 594 138 594 c 0
 129 594 120 590 110 583 c 0
 101 576 95 568 93 557 c 1
 54 560 34 570 34 589 c 0
 34 605 45 618 68 628 c 0
 91 638 117 643 146 643 c 0
EndSplineSet
Validated: 1
EndChar

StartChar: guillemotleft
Encoding: 171 171 106
Width: 521
GlyphClass: 2
Flags: W
LayerCount: 2
Fore
SplineSet
250 398 m 0
 250 389 238 367 216 332 c 0
 192 297 169 266 146 238 c 1
 169 211 192 180 216 146 c 0
 238 111 250 89 250 79 c 0
 250 68 237 54 212 38 c 1
 164 78 105 145 34 238 c 1
 102 330 161 397 212 439 c 1
 237 423 250 409 250 398 c 0
470 398 m 0
 470 389 458 367 436 332 c 0
 412 297 389 266 366 238 c 1
 389 211 412 180 436 145 c 0
 458 111 470 89 470 79 c 0
 470 68 457 54 432 38 c 1
 384 78 325 145 254 238 c 1
 322 330 381 397 432 439 c 1
 457 423 470 409 470 398 c 0
EndSplineSet
Validated: 1
EndChar

StartChar: logicalnot
Encoding: 172 172 107
Width: 535
GlyphClass: 2
Flags: W
HStem: 50 282<343.699 423.619> 266 66<30.8267 343>
VStem: 343 93<65.7036 266>
LayerCount: 2
Fore
SplineSet
434 332 m 1x60
 436 108 l 2
 436 87 432 72 424 63 c 0
 416 54 400 50 377 50 c 0xa0
 361 50 344 55 327 64 c 1
 338 100 343 158 343 239 c 2
 343 266 l 1
 138 266 l 2
 105 266 68 259 29 245 c 1
 21 264 17 279 17 288 c 0
 17 317 36 332 75 332 c 2
 434 332 l 1x60
EndSplineSet
Validated: 1
EndChar

StartChar: registered
Encoding: 174 174 108
Width: 585
GlyphClass: 2
Flags: W
HStem: 207 50<229.648 397.074> 529 37<291.12 334.577> 623 50<229.648 397.074>
VStem: 85 59<343.855 535.236> 217 73<328.801 419 451 528.071> 349 72<453.802 519.874> 483 59<343.855 536.145>
LayerCount: 2
Fore
SplineSet
483 440 m 0
 483 495 467 539 434 573 c 0
 401 606 361 623 314 623 c 0
 266 623 226 606 193 573 c 0
 160 539 144 495 144 440 c 0
 144 385 160 341 193 307 c 0
 226 274 266 257 314 257 c 0
 361 257 401 274 434 307 c 0
 467 341 483 385 483 440 c 0
542 440 m 0
 542 374 520 319 476 274 c 0
 431 229 377 207 314 207 c 0
 249 207 195 229 151 274 c 0
 107 319 85 374 85 440 c 0
 85 507 107 562 151 606 c 0
 195 651 249 673 314 673 c 0
 377 673 431 651 476 606 c 0
 520 561 542 506 542 440 c 0
310 451 m 0
 336 451 349 463 349 488 c 0
 349 500 344 510 335 518 c 0
 326 525 316 529 303 529 c 2
 290 529 l 1
 290 452 l 2
 293 451 299 451 310 451 c 0
425 356 m 1
 428 351 429 345 429 340 c 0
 429 333 426 327 419 322 c 0
 412 318 404 316 395 316 c 0
 378 316 365 322 355 334 c 0
 326 364 305 392 290 419 c 1
 290 396 l 2
 290 368 293 345 299 328 c 1
 286 321 274 318 262 318 c 0
 231 318 215 328 215 348 c 0
 215 354 215 364 216 378 c 0
 217 392 217 402 217 407 c 2
 217 474 l 2
 217 509 215 537 212 560 c 1
 262 564 294 566 309 566 c 0
 384 566 421 540 421 488 c 0
 421 454 401 431 361 418 c 1
 366 409 381 389 407 360 c 0
 410 357 416 356 425 356 c 1
EndSplineSet
Validated: 1
EndChar

StartChar: macron
Encoding: 175 175 109
Width: 300
GlyphClass: 2
Flags: W
HStem: 557 66<5.73584 294.841>
VStem: 0 300<557.275 622.725>
LayerCount: 2
Fore
SplineSet
300 595 m 0
 300 566 285 551 254 551 c 0
 244 551 226 552 202 554 c 0
 176 556 156 557 141 557 c 2
 121 557 l 2
 80 557 41 554 4 549 c 1
 1 562 0 574 0 585 c 0
 0 614 15 629 46 629 c 0
 49 629 64 628 91 626 c 0
 118 624 136 623 146 623 c 0
 201 623 251 626 297 631 c 1
 299 618 300 606 300 595 c 0
EndSplineSet
Validated: 1
EndChar

StartChar: degree
Encoding: 176 176 110
Width: 420
GlyphClass: 2
Flags: W
HStem: 395 56<145.679 251.711> 647 56<148.487 255.064>
VStem: 48 72<477.862 617.51> 280 73<480.219 620.764>
LayerCount: 2
Fore
SplineSet
120 547 m 0
 120 519 127 496 141 478 c 0
 154 460 174 451 199 451 c 0
 224 451 244 460 258 480 c 0
 273 498 280 522 280 551 c 0
 280 579 273 602 260 620 c 0
 247 638 228 647 203 647 c 0
 176 647 156 638 142 618 c 0
 127 600 120 576 120 547 c 0
48 547 m 0
 48 592 63 629 92 658 c 0
 121 688 158 703 204 703 c 0
 247 703 283 688 311 660 c 0
 339 630 353 595 353 552 c 0
 353 506 339 468 310 439 c 0
 281 410 244 395 199 395 c 0
 155 395 119 409 91 438 c 0
 62 467 48 503 48 547 c 0
EndSplineSet
Validated: 1
EndChar

StartChar: plusminus
Encoding: 177 177 111
Width: 535
GlyphClass: 2
Flags: W
HStem: 6 88<59.4248 261.637 266.97 453.575> 14 71<99.2 416.382> 250 88<59.4248 219.467 314.949 473.575> 466 20G<253 270>
VStem: 216 104<131.331 254.891 331.759 476.481> 216 95<131.331 257 329 442.386>
LayerCount: 2
Fore
SplineSet
469 55 m 0xb0
 469 41 464 29 454 20 c 0
 445 11 432 6 417 6 c 0xb0
 404 6 379 7 342 10 c 0
 305 13 279 14 265 14 c 0
 195 14 124 11 52 4 c 1
 49 20 47 33 47 43 c 0
 47 56 51 67 59 77 c 0
 68 87 81 92 99 92 c 0
 103 92 124 91 162 88 c 0
 200 86 234 85 263 85 c 0x70
 348 85 414 88 463 94 c 1
 467 82 469 69 469 55 c 0xb0
262 486 m 0
 278 486 291 482 302 474 c 0
 313 466 319 456 319 443 c 0
 319 430 318 411 315 386 c 0
 313 361 312 341 312 328 c 1
 375 328 432 331 483 338 c 1
 486 327 488 314 488 299 c 0
 488 286 483 274 474 264 c 0
 465 255 452 250 437 250 c 0
 424 250 402 251 372 253 c 0
 343 256 322 257 311 257 c 1x34
 311 212 314 168 320 126 c 1
 301 122 285 120 273 120 c 0
 258 120 244 124 233 131 c 0
 222 138 216 149 216 163 c 0x38
 216 170 217 181 219 198 c 0
 221 215 222 235 222 258 c 1
 168 257 111 254 51 249 c 1
 48 262 47 275 47 287 c 0
 47 300 51 311 59 321 c 0
 68 331 81 336 99 336 c 0
 113 336 132 335 156 332 c 0
 180 330 202 329 223 329 c 1
 223 388 220 438 215 479 c 1
 228 484 244 486 262 486 c 0
EndSplineSet
Validated: 1
EndChar

StartChar: two.superior
Encoding: 178 178 112
Width: 365
GlyphClass: 2
Flags: MW
HStem: 435 59<172.5 184.5 147.5 237> 828 57<162.5 173.5>
VStem: 240 78<753 757.5>
LayerCount: 2
Fore
SplineSet
69 774 m 1
 59 775 51 779 45 785 c 0
 39 791 37 798 37 807 c 0
 37 825 52 843 82 860 c 0
 112 877 145 885 180 885 c 0
 218 885 250 875 277 854 c 0
 304 833 318 803 318 765 c 0
 318 741 314 719 305 697 c 0
 296 675 281 653 260 630 c 0
 239 607 219 586 197 567 c 0
 175 548 145 525 107 495 c 1
 116 495 134 494 161 494 c 0
 208 494 242 495 264 497 c 0
 286 499 308 504 330 512 c 1
 336 497 339 485 339 475 c 0
 339 460 333 450 322 445 c 0
 304 438 266 435 208 435 c 0
 137 435 88 435 59 436 c 0
 37 436 26 446 26 467 c 0
 26 471 27 475 27 477 c 0
 111 550 167 604 196 641 c 0
 225 678 240 712 240 745 c 0
 240 770 233 791 218 806 c 0
 203 821 184 828 163 828 c 0
 146 828 129 823 112 813 c 0
 95 803 80 790 69 774 c 1
EndSplineSet
Validated: 1
EndChar

StartChar: three.superior
Encoding: 179 179 113
Width: 371
GlyphClass: 2
Flags: MW
HStem: 430 56<131.5 158.5 125 175> 647 45<112 113.5> 829 56<161 170.5>
VStem: 226 81<772.5 776> 242 81<554.5 576>
LayerCount: 2
Fore
SplineSet
222 680 m 1xf0
 261 667 288 651 302 632 c 0
 316 613 323 591 323 564 c 0
 323 528 307 496 276 470 c 0
 245 444 202 430 148 430 c 0
 115 430 89 434 68 442 c 0
 47 450 37 462 37 476 c 0
 37 485 40 494 46 500 c 0
 52 506 59 510 69 511 c 1
 83 494 107 486 143 486 c 0
 174 486 199 494 216 510 c 0
 233 526 242 544 242 565 c 0xe8
 242 587 231 606 210 622 c 0
 189 638 160 646 123 646 c 0
 118 646 115 647 112 647 c 0
 109 648 107 649 104 651 c 0
 101 653 100 656 99 661 c 0
 98 666 98 671 98 679 c 0
 98 684 99 688 99 692 c 1
 141 692 173 700 194 715 c 0
 215 730 226 747 226 768 c 0
 226 784 220 799 208 811 c 0
 196 823 180 829 161 829 c 0
 146 829 132 824 117 816 c 0
 102 808 91 796 82 780 c 1
 72 780 63 783 56 790 c 0
 49 797 46 805 46 814 c 0
 46 830 60 845 87 861 c 0
 114 877 144 885 178 885 c 0
 219 885 250 875 273 855 c 0
 296 835 307 811 307 783 c 0
 307 762 300 742 286 723 c 0
 272 704 251 690 222 680 c 1xf0
EndSplineSet
Validated: 1
EndChar

StartChar: acute
Encoding: 180 180 114
Width: 226
GlyphClass: 2
Flags: W
HStem: 523 205
VStem: 51 217
LayerCount: 2
Fore
SplineSet
241 626 m 0
 229 617 204 601 166 580 c 0
 127 559 99 540 81 523 c 1
 61 541 51 557 51 572 c 0
 51 581 54 588 61 595 c 0
 68 601 77 607 88 614 c 0
 99 621 117 634 140 655 c 0
 163 675 188 699 214 728 c 1
 250 709 268 690 268 669 c 0
 268 653 259 639 241 626 c 0
EndSplineSet
Validated: 1
EndChar

StartChar: mu
Encoding: 181 181 115
Width: 525
GlyphClass: 2
Flags: W
HStem: -252 21G<113.5 136> -10 74<190.853 307.841> -3 21G<417.5 433.5>
VStem: 59 91<-207.067 5.29468> 61 104<91.8496 456.621> 353 102<98.6933 462.407>
LayerCount: 2
Fore
SplineSet
61 134 m 0xcc
 61 139 61 165 62 210 c 0
 63 256 64 289 64 309 c 0
 64 371 58 421 47 460 c 1
 65 466 83 469 102 469 c 0
 127 469 144 465 155 457 c 0
 166 449 171 436 171 417 c 0
 171 382 170 337 168 280 c 0
 166 223 165 186 165 169 c 0
 165 135 172 109 186 91 c 0
 201 73 219 64 242 64 c 0xcc
 281 64 318 81 353 115 c 1
 352 142 352 185 352 242 c 0
 352 335 350 410 345 465 c 1
 364 468 380 469 395 469 c 0
 438 469 459 456 459 430 c 0
 459 418 458 386 457 335 c 0
 456 284 455 240 455 204 c 0
 455 121 461 55 474 8 c 1
 460 1 443 -3 424 -3 c 0xac
 411 -3 401 -2 394 -1 c 0
 387 1 380 6 373 13 c 0
 366 21 362 32 360 47 c 1
 343 31 321 17 295 6 c 0
 269 -5 244 -10 219 -10 c 0
 199 -10 177 -5 154 6 c 1
 151 -9 150 -27 150 -47 c 0
 150 -83 154 -120 161 -159 c 0
 168 -197 176 -225 184 -242 c 1
 164 -249 145 -252 127 -252 c 0
 100 -252 82 -248 73 -238 c 0
 64 -230 59 -214 59 -193 c 0xd4
 59 -112 60 -3 61 134 c 0xcc
EndSplineSet
Validated: 1
EndChar

StartChar: paragraph
Encoding: 182 182 116
Width: 517
GlyphClass: 2
Flags: W
HStem: 210 365<134.347 258.801> 501 72<266.139 321 419.547 494.478>
VStem: 38 221<297.303 481.74> 311 102<-110.528 380.434>
LayerCount: 2
Fore
SplineSet
321 501 m 1x70
 303 501 285 502 268 504 c 1
 262 439 259 350 259 235 c 0
 259 218 242 210 209 210 c 0
 162 210 122 227 88 260 c 0
 55 293 38 335 38 388 c 0
 38 445 56 491 93 525 c 0
 130 558 176 575 231 575 c 0xb0
 249 575 278 574 317 573 c 0
 356 572 382 571 394 571 c 0
 440 571 473 571 493 572 c 1
 498 560 500 550 500 541 c 0
 500 514 474 500 421 500 c 1
 413 405 409 294 409 167 c 0
 409 158 410 125 411 66 c 0
 412 7 413 -37 413 -68 c 0
 413 -87 409 -101 400 -111 c 0
 391 -121 374 -126 349 -126 c 0
 326 -126 307 -123 292 -117 c 1
 305 -82 311 -6 311 112 c 0
 311 173 314 302 321 501 c 1x70
EndSplineSet
Validated: 1
EndChar

StartChar: periodcentered
Encoding: 183 183 117
Width: 213
GlyphClass: 2
Flags: W
HStem: 185 153<56.6584 157.342>
VStem: 34 145<206.705 315.249>
LayerCount: 2
Fore
SplineSet
107 185 m 0
 86 185 69 192 55 206 c 0
 41 221 34 239 34 261 c 0
 34 282 41 300 56 316 c 0
 70 330 87 338 107 338 c 0
 127 338 144 330 158 316 c 0
 172 300 179 282 179 261 c 0
 179 239 172 221 158 206 c 0
 144 192 127 185 107 185 c 0
EndSplineSet
Validated: 1
EndChar

StartChar: cedilla
Encoding: 184 184 118
Width: 184
GlyphClass: 2
Flags: W
HStem: -244 60<38.655 124.492>
VStem: 57 70<-69.5 9.48145> 126 83<-182.324 -117.916>
LayerCount: 2
Fore
SplineSet
90 32 m 1xc0
 146 24 l 1
 133 -14 127 -35 127 -39 c 0xc0
 127 -43 135 -49 150 -58 c 0
 189 -79 209 -106 209 -139 c 0
 209 -166 196 -191 171 -212 c 0
 146 -233 114 -244 76 -244 c 0
 42 -244 25 -233 25 -212 c 0
 25 -199 33 -185 50 -170 c 1
 61 -179 74 -184 89 -184 c 0
 114 -184 126 -174 126 -153 c 0xa0
 126 -139 114 -124 92 -108 c 0
 68 -92 57 -77 57 -62 c 0
 57 -40 68 -9 90 32 c 1xc0
EndSplineSet
Validated: 1
EndChar

StartChar: one.superior
Encoding: 185 185 119
Width: 365
GlyphClass: 2
Flags: MW
HStem: 436 54<81 159>
VStem: 161 72<646.5 657 600.5 692.5>
LayerCount: 2
Fore
SplineSet
238 488 m 1
 269 488 291 489 304 491 c 1
 306 484 307 476 307 470 c 0
 307 446 298 435 280 435 c 0
 277 435 261 436 234 436 c 0
 207 436 182 437 162 437 c 0
 122 437 95 436 81 436 c 1
 79 445 78 452 78 458 c 0
 78 479 91 490 117 490 c 2
 159 490 l 1
 159 498 159 520 160 558 c 0
 160 596 161 631 161 662 c 0
 161 723 160 776 158 824 c 1
 111 819 85 816 78 815 c 1
 77 822 76 828 76 834 c 0
 76 856 85 870 103 873 c 0
 154 881 189 885 208 885 c 0
 216 885 223 883 229 878 c 0
 235 873 239 865 239 854 c 0
 239 853 238 827 236 775 c 0
 234 723 233 677 233 637 c 0
 233 564 235 515 238 488 c 1
EndSplineSet
Validated: 1
EndChar

StartChar: ordmasculine
Encoding: 186 186 120
Width: 342
GlyphClass: 2
Flags: W
HStem: 250 55<44.7315 288.575> 366 50<129.158 217.075> 593 50<125.848 213.213>
VStem: 30 79<439.7 573.906> 234 78<434.967 568.845>
LayerCount: 2
Fore
SplineSet
303 280 m 0
 303 269 298 261 289 254 c 0
 280 248 267 245 251 245 c 0
 242 245 227 246 205 248 c 0
 182 249 165 250 153 250 c 2
 144 250 l 2
 113 250 80 246 43 239 c 1
 40 251 38 261 38 270 c 0
 38 293 55 305 90 305 c 0
 95 305 109 304 131 303 c 0
 153 302 171 301 185 301 c 2
 203 301 l 2
 236 301 267 304 296 311 c 1
 301 300 303 290 303 280 c 0
234 496 m 0
 234 524 228 547 217 566 c 0
 206 584 190 593 170 593 c 0
 151 593 136 586 125 571 c 0
 114 556 109 537 109 512 c 0
 109 484 114 461 125 443 c 0
 136 425 151 416 170 416 c 0
 191 416 207 423 218 438 c 0
 229 453 234 472 234 496 c 0
170 366 m 0
 128 366 94 379 69 404 c 0
 43 429 30 462 30 504 c 0
 30 546 43 580 69 605 c 0
 94 630 128 643 170 643 c 0
 213 643 248 631 274 606 c 0
 299 581 312 547 312 504 c 0
 312 462 299 429 274 404 c 0
 248 379 213 366 170 366 c 0
EndSplineSet
Validated: 1
EndChar

StartChar: guillemotright
Encoding: 187 187 121
Width: 521
GlyphClass: 2
Flags: W
LayerCount: 2
Fore
SplineSet
254 78 m 0
 254 87 266 109 288 144 c 0
 312 179 335 210 358 238 c 1
 335 265 312 296 288 330 c 0
 266 365 254 387 254 397 c 0
 254 408 267 422 292 438 c 1
 340 398 399 331 470 238 c 1
 402 146 343 79 292 37 c 1
 267 53 254 67 254 78 c 0
34 78 m 0
 34 87 46 109 68 144 c 0
 92 179 115 210 138 238 c 1
 115 265 92 296 68 331 c 0
 46 365 34 387 34 397 c 0
 34 408 47 422 72 438 c 1
 120 398 179 331 250 238 c 1
 182 146 123 79 72 37 c 1
 47 53 34 67 34 78 c 0
EndSplineSet
Validated: 1
EndChar

StartChar: onequarter
Encoding: 188 188 122
Width: 945
GlyphClass: 2
Flags: W
HStem: -10 21G<772.5 790.5> 122 65<604.257 729 809 866.479> 219 65<63.4246 154 241.236 319.479> 653 20G<192.5 216.5> 720 20G<616 648>
VStem: 156 82<284 605> 230 64<-92.4066 -58.4069> 627 63<691.831 724.442> 729 80<2.37867 122 191 349>
LayerCount: 2
Fore
SplineSet
684 187 m 2xf980
 729 187 l 1
 729 215 729 247 730 282 c 0
 731 317 731 340 731 349 c 1
 686 304 644 251 604 188 c 1
 619 187 645 187 684 187 c 2xf980
244 281 m 1
 268 281 293 282 318 285 c 1
 321 276 322 267 322 260 c 0
 322 232 310 218 287 218 c 0
 282 218 265 218 236 219 c 0
 207 220 179 220 151 220 c 0
 114 220 86 220 65 219 c 1
 62 230 60 239 60 245 c 0
 60 271 78 284 113 284 c 2
 154 284 l 1
 154 291 154 315 155 356 c 0
 156 397 156 432 156 461 c 0
 156 515 155 563 153 605 c 1
 108 597 78 591 65 586 c 1
 61 596 59 606 59 615 c 0
 59 640 72 654 97 659 c 0
 147 668 182 673 203 673 c 0
 230 673 244 662 244 640 c 0
 244 637 243 625 242 605 c 0
 241 585 240 560 239 530 c 0
 238 500 238 472 238 445 c 2
 238 399 l 2xfd80
 238 347 240 308 244 281 c 1
294 -107 m 1xfb80
 251 -107 230 -96 230 -75 c 0
 230 -70 234 -59 241 -43 c 0
 249 -27 282 39 340 154 c 0
 409 292 472 417 528 529 c 0
 572 618 605 688 627 740 c 1
 669 739 690 728 690 707 c 0
 690 702 686 690 677 673 c 0
 669 655 639 595 588 493 c 0
 517 352 452 223 393 104 c 0
 347 11 314 -59 294 -107 c 1xfb80
731 441 m 0
 740 448 759 452 790 452 c 0
 797 452 806 451 817 450 c 0
 817 448 816 436 815 413 c 0
 814 390 812 359 811 318 c 0
 810 277 809 235 809 191 c 1
 842 193 864 197 877 204 c 1
 882 193 885 182 885 169 c 0
 885 148 879 136 867 132 c 0
 856 127 837 124 809 123 c 1
 809 74 814 32 825 -2 c 1
 811 -7 797 -10 784 -10 c 0
 761 -10 746 -6 738 2 c 0
 731 10 727 23 727 42 c 0
 727 53 727 64 728 77 c 0
 729 89 729 104 729 122 c 1
 641 122 581 124 548 129 c 0
 535 130 529 143 529 169 c 0
 529 181 529 189 530 194 c 0
 553 234 585 279 626 329 c 0
 667 378 702 416 731 441 c 0
EndSplineSet
Validated: 1
EndChar

StartChar: onehalf
Encoding: 189 189 123
Width: 987
GlyphClass: 2
Flags: W
HStem: 1 66<686 906.329> 219 65<63.4246 154 241.236 319.479> 388 64<677.882 789.738> 653 20G<192.5 216.5> 720 20G<616 648>
VStem: 156 82<284 605> 230 64<-92.4066 -58.4069> 627 63<691.831 724.442> 810 91<251.605 369.239>
LayerCount: 2
Fore
SplineSet
644 324 m 1xf980
 615 326 600 337 600 356 c 0
 600 377 616 398 648 420 c 0
 681 441 717 452 756 452 c 0
 799 452 834 441 861 418 c 0
 888 395 901 366 901 330 c 0
 901 289 883 245 847 198 c 0
 811 150 757 106 686 67 c 1
 737 67 l 2
 821 67 879 75 911 91 c 1
 925 74 932 59 932 44 c 0
 932 27 924 16 909 11 c 0
 886 3 836 -1 761 -1 c 0
 707 -1 662 -0 626 1 c 0
 597 1 583 17 583 50 c 0
 583 62 583 69 584 72 c 0
 658 113 714 156 752 201 c 0
 791 246 810 286 810 322 c 0
 810 342 803 358 788 370 c 0
 773 382 754 388 729 388 c 0
 714 388 699 382 682 370 c 0
 666 358 653 343 644 324 c 1xf980
244 281 m 1
 268 281 293 282 318 285 c 1
 321 276 322 267 322 260 c 0
 322 232 310 218 287 218 c 0
 282 218 266 218 236 219 c 0
 208 220 179 220 151 220 c 0
 114 220 86 220 65 219 c 1
 62 230 60 239 60 245 c 0
 60 271 78 284 113 284 c 2
 154 284 l 1
 154 291 154 315 155 356 c 0
 156 397 156 432 156 461 c 0
 156 515 155 563 153 605 c 1
 108 597 78 591 65 586 c 1
 61 596 59 606 59 615 c 0
 59 640 72 654 97 659 c 0
 147 668 182 673 203 673 c 0
 230 673 244 662 244 640 c 0
 244 637 244 625 242 605 c 0
 242 585 240 560 240 530 c 0
 238 500 238 472 238 445 c 2
 238 399 l 2xfd80
 238 347 240 308 244 281 c 1
294 -107 m 1xfb80
 251 -107 230 -96 230 -75 c 0
 230 -70 234 -59 241 -43 c 0
 249 -27 282 39 340 154 c 0
 409 292 472 417 528 529 c 0
 572 618 605 688 627 740 c 1
 669 739 690 728 690 707 c 0
 690 702 686 690 677 672 c 0
 669 655 639 595 588 493 c 0
 517 352 452 223 393 104 c 0
 347 11 314 -59 294 -107 c 1xfb80
EndSplineSet
Validated: 1
EndChar

StartChar: threequarters
Encoding: 190 190 124
Width: 963
GlyphClass: 2
Flags: W
HStem: -10 21G<791.5 809.5> 122 65<623.257 748 828 885.479> 208 64<102.318 247.064> 430 44<138.189 234.702> 609 64<126.286 254.639> 720 20G<637.5 669>
VStem: 251 64<-92.4066 -58.4069> 266 91<500.997 597.47> 274 91<296.263 401.555> 648 63<688.902 724.442> 748 80<2.37867 122 191 349>
LayerCount: 2
Fore
SplineSet
703 187 m 2xfc60
 748 187 l 1
 748 215 748 247 749 282 c 0
 750 317 750 340 750 349 c 1
 705 304 662 251 623 188 c 1
 638 187 664 187 703 187 c 2xfc60
750 441 m 0
 759 448 778 452 809 452 c 0
 816 452 825 451 836 450 c 0
 836 448 835 436 834 413 c 0
 833 390 831 359 830 318 c 0
 829 277 828 235 828 191 c 1
 861 193 883 197 896 204 c 1
 901 193 904 182 904 169 c 0
 904 148 898 136 886 132 c 0
 875 127 856 124 828 123 c 1
 828 74 833 32 844 -2 c 1
 830 -7 816 -10 803 -10 c 0
 780 -10 765 -6 757 2 c 0
 750 10 746 23 746 42 c 0
 746 53 746 64 747 77 c 0
 748 89 748 104 748 122 c 1
 660 122 600 124 567 129 c 0
 554 130 548 143 548 169 c 0
 548 181 548 189 549 194 c 0
 572 234 604 279 645 329 c 0
 686 378 721 416 750 441 c 0
132 457 m 0
 132 464 132 470 133 474 c 0
 178 476 211 483 233 494 c 0
 255 505 266 524 266 553 c 0
 266 590 242 609 193 609 c 0
 156 609 125 593 99 561 c 1
 77 571 66 584 66 601 c 0
 66 620 82 636 114 651 c 0
 147 666 179 673 210 673 c 0
 259 673 296 663 320 644 c 0
 345 625 357 599 357 566 c 0xfd60
 357 513 328 477 271 458 c 1
 303 448 327 433 342 413 c 0
 357 392 365 369 365 344 c 0
 365 308 349 276 318 249 c 0
 287 222 242 208 183 208 c 0
 148 208 118 214 91 225 c 0
 64 236 51 251 51 270 c 0
 51 286 61 299 82 310 c 1
 107 285 139 272 178 272 c 0
 206 272 229 279 247 292 c 0
 265 305 274 322 274 344 c 0xfce0
 274 401 235 430 156 430 c 0
 148 430 142 432 138 435 c 0
 134 438 132 446 132 457 c 0
315 -107 m 1xfe60
 272 -107 251 -96 251 -75 c 0
 251 -70 255 -59 262 -43 c 0
 270 -27 303 39 361 154 c 0
 430 292 493 417 549 529 c 0
 594 618 627 688 648 740 c 1
 690 739 711 728 711 707 c 0
 711 702 707 690 698 673 c 0
 690 655 660 595 609 493 c 0
 538 352 473 223 414 104 c 0
 368 11 335 -59 315 -107 c 1xfe60
EndSplineSet
Validated: 1
EndChar

StartChar: questiondown
Encoding: 191 191 125
Width: 377
GlyphClass: 2
Flags: W
HStem: -220 70<138.816 252.351> 343 142<155.658 257.697>
VStem: 17 106<-134.997 -10.88> 134 145<364.23 463.996> 168 104<122.905 240.54>
LayerCount: 2
Fore
SplineSet
206 343 m 0xf0
 186 343 169 350 155 363 c 0
 141 376 134 393 134 414 c 0
 134 434 141 451 156 464 c 0
 171 478 188 485 208 485 c 0
 227 485 244 478 258 464 c 0
 272 451 279 434 279 414 c 0
 279 394 272 377 257 364 c 0
 242 350 225 343 206 343 c 0xf0
272 189 m 0xe8
 272 171 268 153 259 135 c 0
 250 117 242 103 233 94 c 0
 225 84 212 70 195 51 c 0
 179 34 167 21 159 11 c 0
 151 1 143 -13 135 -30 c 0
 127 -47 123 -65 123 -84 c 0
 123 -106 129 -122 141 -134 c 0
 153 -144 169 -150 189 -150 c 0
 211 -150 232 -143 252 -129 c 0
 271 -115 284 -97 290 -74 c 1
 340 -82 365 -100 365 -127 c 0
 365 -155 349 -178 317 -194 c 0
 285 -212 247 -220 203 -220 c 0
 150 -220 105 -208 70 -184 c 0
 35 -161 17 -127 17 -83 c 0
 17 -58 22 -34 33 -12 c 0
 43 11 53 28 64 39 c 0
 74 51 88 65 107 82 c 0
 120 94 130 104 137 111 c 0
 144 118 150 129 158 142 c 0
 164 156 168 170 168 183 c 0
 168 198 164 216 157 238 c 1
 176 249 194 255 211 255 c 0
 252 255 272 233 272 189 c 0xe8
EndSplineSet
Validated: 1
Substitution2: "'c2sc' Capitals to Small Capitals in Latin lookup 1 subtable" questiondown.sc
EndChar

StartChar: Agrave
Encoding: 192 192 126
Width: 573
GlyphClass: 2
Flags: W
HStem: -10 21G<511 533.5> 199 74<204 374> 716 21G<323.5 344.5>
VStem: 4 89<4.9215 45.3271>
LayerCount: 2
Fore
SplineSet
199 915 m 1
 226 886 254 861 283 839 c 0
 312 817 334 801 346 791 c 0
 360 781 366 771 366 760 c 0
 366 745 355 730 334 716 c 1
 313 731 286 748 252 767 c 0
 217 785 191 801 174 814 c 0
 156 827 147 840 147 854 c 0
 147 877 164 898 199 915 c 1
374 274 m 1
 364 301 354 330 344 360 c 0
 335 389 325 421 314 455 c 0
 303 489 296 512 292 525 c 1
 260 424 231 341 204 275 c 1
 247 274 279 273 302 273 c 0
 337 273 361 273 374 274 c 1
281 199 m 0
 264 199 228 200 173 201 c 1
 130 90 103 16 93 -21 c 1
 34 -14 4 -1 4 20 c 0
 4 29 18 67 47 134 c 0
 75 200 109 284 150 387 c 0
 191 490 223 581 246 660 c 1
 259 662 277 663 298 663 c 0
 315 663 329 660 338 653 c 0
 348 646 357 631 364 610 c 0
 415 450 453 340 476 280 c 0
 526 150 564 60 589 10 c 1
 564 -3 542 -10 525 -10 c 0
 497 -10 478 -1 467 17 c 0
 459 38 448 68 434 109 c 0
 419 149 408 180 400 201 c 1
 335 200 295 199 281 199 c 0
EndSplineSet
Validated: 1
Substitution2: "'c2sc' Capitals to Small Capitals in Latin lookup 1 subtable" agrave.sc
EndChar

StartChar: Aacute
Encoding: 193 193 127
Width: 573
GlyphClass: 2
Flags: W
HStem: -10 21G<511 533.5> 199 74<204 374> 716 21G<252 271>
VStem: 4 89<4.9215 45.3271>
LayerCount: 2
Fore
SplineSet
422 819 m 0
 410 810 385 794 347 773 c 0
 308 752 280 733 262 716 c 1
 242 734 232 750 232 765 c 0
 232 774 235 781 242 788 c 0
 249 794 258 800 269 807 c 0
 280 814 298 827 321 848 c 0
 344 868 369 892 395 921 c 1
 431 902 449 883 449 862 c 0
 449 846 440 832 422 819 c 0
374 274 m 1
 364 301 354 330 345 360 c 0
 335 389 325 421 314 455 c 0
 303 489 296 512 292 525 c 1
 260 424 231 341 204 275 c 1
 247 274 279 273 302 273 c 0
 337 273 361 273 374 274 c 1
281 199 m 0
 264 199 228 200 173 201 c 1
 130 90 103 16 93 -21 c 1
 34 -14 4 -1 4 20 c 0
 4 29 18 67 47 134 c 0
 75 200 109 284 150 387 c 0
 191 490 223 581 246 660 c 1
 259 662 277 663 298 663 c 0
 315 663 329 660 339 653 c 0
 348 646 357 631 364 610 c 0
 415 450 453 340 476 280 c 0
 526 150 564 60 589 10 c 1
 564 -3 542 -10 525 -10 c 0
 497 -10 478 -1 467 17 c 0
 459 38 448 68 434 109 c 0
 419 149 408 180 400 201 c 1
 335 200 295 199 281 199 c 0
EndSplineSet
Validated: 1
Substitution2: "'c2sc' Capitals to Small Capitals in Latin lookup 1 subtable" aacute.sc
EndChar

StartChar: Acircumflex
Encoding: 194 194 128
Width: 573
GlyphClass: 2
Flags: W
HStem: -10 21G<511 533.5> 199 74<204 374> 724 21G<184 200>
VStem: 4 89<4.9215 45.3271>
LayerCount: 2
Fore
SplineSet
443 757 m 0
 443 743 431 728 406 712 c 1
 395 726 381 740 364 754 c 0
 347 769 333 780 322 788 c 2
 305 799 l 1
 247 749 209 724 191 724 c 0
 177 724 163 733 150 750 c 1
 199 808 251 856 306 895 c 1
 397 832 443 786 443 757 c 0
374 274 m 1
 364 301 354 330 344 360 c 0
 335 389 325 421 314 455 c 0
 303 489 296 512 292 525 c 1
 260 424 231 341 204 275 c 1
 247 274 279 273 302 273 c 0
 337 273 361 273 374 274 c 1
281 199 m 0
 264 199 228 200 173 201 c 1
 130 90 103 16 93 -21 c 1
 34 -14 4 -1 4 20 c 0
 4 29 18 67 47 134 c 0
 75 200 109 284 150 387 c 0
 191 490 223 581 246 660 c 1
 259 662 277 663 298 663 c 0
 315 663 329 660 338 653 c 0
 348 646 357 631 364 610 c 0
 415 450 453 340 476 280 c 0
 526 150 564 60 589 10 c 1
 564 -3 542 -10 525 -10 c 0
 497 -10 478 -1 467 17 c 0
 459 38 448 68 434 109 c 0
 419 149 408 180 400 201 c 1
 335 200 295 199 281 199 c 0
EndSplineSet
Validated: 1
Substitution2: "'c2sc' Capitals to Small Capitals in Latin lookup 1 subtable" acircumflex.sc
EndChar

StartChar: Atilde
Encoding: 195 195 129
Width: 573
GlyphClass: 2
Flags: W
HStem: -10 21G<511 533.5> 199 74<204 374> 718 73<312.488 392.342> 762 73<197.284 271.951>
VStem: 4 89<4.9215 45.3271>
LayerCount: 2
Fore
SplineSet
374 274 m 1xc8
 364 301 354 330 344 360 c 0
 335 389 325 421 314 455 c 0
 303 489 296 512 292 525 c 1
 260 424 231 341 204 275 c 1
 247 274 279 273 302 273 c 0
 337 273 361 273 374 274 c 1xc8
281 199 m 0
 264 199 228 200 173 201 c 1
 130 90 103 16 93 -21 c 1
 34 -14 4 -1 4 20 c 0
 4 29 18 67 47 134 c 0
 75 200 109 284 150 387 c 0
 191 490 223 581 246 660 c 1
 259 662 277 663 298 663 c 0
 315 663 329 660 338 653 c 0
 348 646 357 631 364 610 c 0
 415 450 453 340 476 280 c 0
 526 150 564 60 589 10 c 1
 564 -3 542 -10 525 -10 c 0
 497 -10 478 -1 467 17 c 0
 459 38 448 68 434 109 c 0
 419 149 408 180 400 201 c 1
 335 200 295 199 281 199 c 0
446 804 m 0
 446 784 435 765 413 746 c 0
 390 727 366 718 339 718 c 0xe8
 320 718 297 725 272 740 c 0
 247 755 232 762 227 762 c 0
 218 762 201 747 176 716 c 1
 153 726 142 739 142 754 c 0
 142 773 153 792 176 809 c 0
 198 826 223 835 250 835 c 0xd8
 266 835 287 828 312 813 c 0
 337 798 353 791 360 791 c 0xe8
 373 791 390 806 411 836 c 1
 434 829 446 819 446 804 c 0
EndSplineSet
Validated: 1
Substitution2: "'c2sc' Capitals to Small Capitals in Latin lookup 1 subtable" atilde.sc
EndChar

StartChar: Adieresis
Encoding: 196 196 130
Width: 573
GlyphClass: 2
Flags: W
HStem: -10 21G<511 533.5> 199 74<204 374> 712 142<147.705 247.295 337.705 437.295>
VStem: 4 89<4.9215 45.3271> 125 145<732.658 833.342> 315 145<732.658 833.342>
LayerCount: 2
Fore
SplineSet
387 712 m 0
 367 712 350 719 336 732 c 0
 322 745 315 762 315 783 c 0
 315 803 322 820 337 834 c 0
 352 847 369 854 389 854 c 0
 408 854 425 847 439 834 c 0
 453 820 460 803 460 783 c 0
 460 763 453 746 438 732 c 0
 423 719 406 712 387 712 c 0
197 712 m 0
 177 712 160 719 146 732 c 0
 132 745 125 762 125 783 c 0
 125 803 132 820 147 834 c 0
 162 847 179 854 199 854 c 0
 218 854 235 847 249 834 c 0
 263 820 270 803 270 783 c 0
 270 763 263 746 248 732 c 0
 233 719 216 712 197 712 c 0
374 274 m 1
 364 301 354 330 344 360 c 0
 335 389 325 421 314 455 c 0
 303 489 296 512 292 525 c 1
 260 424 231 341 204 275 c 1
 247 274 279 273 302 273 c 0
 337 273 361 273 374 274 c 1
281 199 m 0
 264 199 228 200 173 201 c 1
 130 90 103 16 93 -21 c 1
 34 -14 4 -1 4 20 c 0
 4 29 18 67 47 134 c 0
 75 200 109 284 150 387 c 0
 191 490 223 581 246 660 c 1
 259 662 277 663 298 663 c 0
 315 663 329 660 338 653 c 0
 348 646 357 631 364 610 c 0
 415 450 453 340 476 280 c 0
 526 150 564 60 589 10 c 1
 564 -3 542 -10 525 -10 c 0
 497 -10 478 -1 467 17 c 0
 459 38 448 68 434 109 c 0
 419 149 408 180 400 201 c 1
 335 200 295 199 281 199 c 0
EndSplineSet
Validated: 1
Substitution2: "'c2sc' Capitals to Small Capitals in Latin lookup 1 subtable" adieresis.sc
EndChar

StartChar: Aring
Encoding: 197 197 131
Width: 573
GlyphClass: 2
Flags: W
HStem: -10 21G<511 533.5> 199 74<204 374> 713 48<265.262 329.731> 855 48<262.766 324.921>
VStem: 4 89<4.9215 45.3271> 202 57<765.519 852.32> 333 57<763.365 845.886>
LayerCount: 2
Fore
SplineSet
333 803 m 0
 333 818 330 831 323 841 c 0
 317 850 308 855 297 855 c 0
 272 855 259 841 259 812 c 0
 259 797 262 785 270 776 c 0
 276 766 286 761 297 761 c 0
 321 761 333 775 333 803 c 0
297 713 m 0
 269 713 246 722 228 739 c 0
 211 756 202 779 202 808 c 0
 202 837 211 860 228 877 c 0
 246 894 269 903 297 903 c 0
 325 903 347 894 364 877 c 0
 381 860 390 837 390 808 c 0
 390 779 381 756 364 739 c 0
 347 722 325 713 297 713 c 0
374 274 m 1
 364 301 354 330 344 360 c 0
 335 389 325 421 314 455 c 0
 303 489 296 512 292 525 c 1
 260 424 231 341 204 275 c 1
 247 274 279 273 302 273 c 0
 337 273 361 273 374 274 c 1
281 199 m 0
 264 199 228 200 173 201 c 1
 130 90 103 16 93 -21 c 1
 34 -14 4 -1 4 20 c 0
 4 29 18 67 46 134 c 0
 75 200 109 284 150 387 c 0
 191 490 223 581 246 660 c 1
 259 662 277 663 298 663 c 0
 315 663 329 660 338 653 c 0
 348 646 357 631 364 610 c 0
 415 450 453 340 476 280 c 0
 526 150 564 60 589 10 c 1
 564 -3 542 -10 525 -10 c 0
 497 -10 478 -1 467 17 c 0
 459 38 448 68 433 109 c 0
 419 149 408 180 400 201 c 1
 335 200 295 199 281 199 c 0
EndSplineSet
Validated: 1
Substitution2: "'c2sc' Capitals to Small Capitals in Latin lookup 1 subtable" aring.sc
EndChar

StartChar: AE
Encoding: 198 198 132
Width: 793
GlyphClass: 2
Flags: W
HStem: -2 80<481.497 758.358> 199 74<230 372> 317 79<477 659.67> 583 83<474.617 757.249>
VStem: 0 114<10.5403 95.5488> 372 105<79.3037 199 273 317 396 562.692>
LayerCount: 2
Fore
SplineSet
230 274 m 1
 253 273 287 273 332 273 c 2
 372 273 l 1
 372 341 l 2
 372 445 371 519 368 563 c 1
 305 426 259 330 230 274 c 1
473 583 m 1
 476 557 477 495 477 396 c 1
 552 396 l 2
 605 396 643 397 666 400 c 1
 669 394 670 383 670 368 c 0
 670 349 667 337 660 330 c 0
 653 323 643 319 628 318 c 0
 611 317 589 317 561 317 c 2
 477 317 l 1
 477 184 479 105 484 78 c 1
 512 77 535 76 553 76 c 0
 660 76 729 83 760 98 c 1
 765 83 768 65 768 45 c 0
 768 30 765 19 759 13 c 0
 746 3 689 -2 588 -2 c 0
 497 -2 442 -1 422 0 c 0
 401 1 388 5 380 14 c 0
 374 22 370 36 370 57 c 0
 370 81 371 128 372 199 c 1
 304 199 l 2
 261 199 223 200 190 201 c 1
 185 191 173 170 156 138 c 0
 138 105 124 78 114 57 c 0
 104 36 95 14 86 -8 c 1
 54 -3 32 3 19 12 c 0
 6 20 0 31 0 45 c 0
 0 49 3 57 9 70 c 0
 15 83 24 100 36 121 c 0
 48 142 60 163 70 182 c 0
 82 201 96 226 112 254 c 0
 130 284 143 306 152 322 c 0
 217 438 271 546 314 646 c 1
 363 659 454 666 587 666 c 0
 688 666 745 661 758 651 c 0
 764 645 767 634 767 619 c 0
 767 599 764 581 759 565 c 1
 722 579 662 586 579 586 c 0
 545 586 510 585 473 583 c 1
EndSplineSet
Validated: 1
Substitution2: "'c2sc' Capitals to Small Capitals in Latin lookup 1 subtable" ae.sc
EndChar

StartChar: Ccedilla
Encoding: 199 199 133
Width: 609
GlyphClass: 2
Flags: W
HStem: -244 60<277.655 363.492> -10 79<366.775 451.375> 594 79<263.902 425.058>
VStem: 42 114<214.3 467.521> 296 70<-69.5 -10.6523> 365 83<-182.324 -117.916>
LayerCount: 2
Fore
SplineSet
517 155 m 1xf8
 532 148 544 138 555 127 c 0
 566 115 571 103 571 90 c 0
 571 63 552 40 515 21 c 0
 478 1 430 -9 372 -10 c 1
 368 -25 366 -34 366 -39 c 0xf8
 366 -43 374 -49 389 -58 c 0
 428 -79 448 -106 448 -139 c 0
 448 -166 435 -191 410 -212 c 0
 385 -233 353 -244 315 -244 c 0
 281 -244 264 -233 264 -212 c 0
 264 -199 272 -185 289 -170 c 1
 300 -179 313 -184 328 -184 c 0
 353 -184 365 -174 365 -153 c 0xf4
 365 -139 354 -124 331 -108 c 0
 308 -92 296 -77 296 -62 c 0
 296 -49 301 -31 311 -6 c 1
 228 5 163 42 115 103 c 0
 66 164 42 240 42 332 c 0
 42 439 72 522 131 583 c 0
 190 643 269 673 370 673 c 0
 424 673 469 663 506 642 c 0
 543 621 561 595 561 564 c 0
 561 548 555 534 542 522 c 0
 529 510 509 502 482 498 c 1
 472 529 454 553 429 570 c 0
 403 586 376 594 348 594 c 0
 291 594 245 571 210 525 c 0
 174 479 156 421 156 351 c 0
 156 270 174 203 210 150 c 0
 247 96 298 69 364 69 c 0
 394 69 423 76 451 90 c 0
 479 105 501 126 517 155 c 1xf8
EndSplineSet
Validated: 1
Substitution2: "'c2sc' Capitals to Small Capitals in Latin lookup 1 subtable" ccedilla.sc
EndChar

StartChar: Egrave
Encoding: 200 200 134
Width: 491
GlyphClass: 2
Flags: W
HStem: -2 80<179.497 456.358> 317 79<175 357.67> 583 83<173.34 445.25> 716 21G<265.5 286.5>
VStem: 68 114<78 310.805> 70 105<79.3037 317 396 581.755>
LayerCount: 2
Fore
SplineSet
141 915 m 1xf0
 168 886 196 861 225 839 c 0
 254 817 276 801 288 791 c 0
 302 781 308 771 308 760 c 0
 308 745 297 730 276 716 c 1
 255 731 228 748 194 767 c 0
 159 785 133 801 116 814 c 0
 98 827 89 840 89 854 c 0
 89 877 106 898 141 915 c 1xf0
171 583 m 1
 174 557 175 495 175 396 c 1
 250 396 l 2
 303 396 341 397 364 400 c 1
 367 394 368 383 368 368 c 0
 368 349 365 337 358 330 c 0
 351 323 341 319 326 318 c 0
 309 317 287 317 259 317 c 2
 175 317 l 1xf4
 175 184 177 105 182 78 c 1
 210 77 233 76 251 76 c 0
 358 76 427 83 458 98 c 1
 463 83 466 65 466 45 c 0
 466 30 463 19 457 13 c 0
 444 3 387 -2 286 -2 c 0
 195 -2 140 -1 120 0 c 0
 99 1 85 5 78 14 c 0
 71 22 68 36 68 57 c 0xf8
 68 70 68 97 69 139 c 0
 70 181 70 213 70 236 c 2
 70 430 l 2xf4
 70 523 65 599 56 657 c 1
 129 663 203 666 279 666 c 0
 378 666 433 661 446 651 c 0
 452 645 455 634 455 619 c 0
 455 599 452 581 447 565 c 1
 410 579 352 586 273 586 c 0
 241 586 207 585 171 583 c 1
EndSplineSet
Validated: 1
Substitution2: "'c2sc' Capitals to Small Capitals in Latin lookup 1 subtable" egrave.sc
EndChar

StartChar: Eacute
Encoding: 201 201 135
Width: 491
GlyphClass: 2
Flags: W
HStem: -2 80<179.497 456.358> 317 79<175 357.67> 583 83<173.34 445.25> 716 21G<213 232>
VStem: 68 114<78 310.805> 70 105<79.3037 317 396 581.755>
LayerCount: 2
Fore
SplineSet
383 819 m 0xf0
 371 810 346 794 308 773 c 0
 269 752 241 733 223 716 c 1
 203 734 193 750 193 765 c 0
 193 774 196 781 203 788 c 0
 210 794 219 800 230 807 c 0
 241 814 259 827 282 848 c 0
 305 868 330 892 356 921 c 1
 392 902 410 883 410 862 c 0
 410 846 401 832 383 819 c 0xf0
171 583 m 1
 174 557 175 495 175 396 c 1
 250 396 l 2
 303 396 341 397 364 400 c 1
 367 394 368 383 368 368 c 0
 368 349 365 337 358 330 c 0
 351 323 341 319 326 318 c 0
 309 317 287 317 259 317 c 2
 175 317 l 1xf4
 175 184 177 105 182 78 c 1
 210 77 233 76 251 76 c 0
 358 76 427 83 458 98 c 1
 463 83 466 65 466 45 c 0
 466 30 463 19 457 13 c 0
 444 3 387 -2 286 -2 c 0
 195 -2 140 -1 120 0 c 0
 99 1 86 5 78 14 c 0
 72 22 68 36 68 57 c 0xf8
 68 70 68 97 69 139 c 0
 70 181 70 213 70 236 c 2
 70 430 l 2xf4
 70 523 65 599 56 657 c 1
 129 663 203 666 279 666 c 0
 378 666 433 661 446 651 c 0
 452 645 455 634 455 619 c 0
 455 599 452 581 447 565 c 1
 410 579 352 586 273 586 c 0
 241 586 207 585 171 583 c 1
EndSplineSet
Validated: 1
Substitution2: "'c2sc' Capitals to Small Capitals in Latin lookup 1 subtable" eacute.sc
EndChar

StartChar: Ecircumflex
Encoding: 202 202 136
Width: 491
GlyphClass: 2
Flags: W
HStem: -2 80<179.497 456.358> 317 79<175 357.67> 583 83<173.34 445.25> 724 21G<132.5 149>
VStem: 68 114<78 310.805> 70 105<79.3037 317 396 581.755>
LayerCount: 2
Fore
SplineSet
392 757 m 0xf0
 392 743 380 728 355 712 c 1
 344 726 330 740 313 754 c 0
 296 769 282 780 271 788 c 2
 254 799 l 1
 196 749 158 724 140 724 c 0
 125 724 112 733 99 750 c 1
 148 808 200 856 255 895 c 1
 346 832 392 786 392 757 c 0xf0
171 583 m 1
 174 557 175 495 175 396 c 1
 250 396 l 2
 303 396 341 397 364 400 c 1
 367 394 368 383 368 368 c 0
 368 349 365 337 358 330 c 0
 351 323 341 319 326 318 c 0
 309 317 287 317 259 317 c 2
 175 317 l 1xf4
 175 184 177 105 182 78 c 1
 210 77 233 76 251 76 c 0
 358 76 427 83 458 98 c 1
 463 83 466 65 466 45 c 0
 466 30 463 19 457 13 c 0
 444 3 387 -2 286 -2 c 0
 195 -2 140 -1 120 0 c 0
 99 1 86 5 78 14 c 0
 72 22 68 36 68 57 c 0xf8
 68 70 68 97 69 139 c 0
 70 181 70 213 70 236 c 2
 70 430 l 2xf4
 70 523 65 599 56 657 c 1
 129 663 203 666 279 666 c 0
 378 666 433 661 446 651 c 0
 452 645 455 634 455 619 c 0
 455 599 452 581 447 565 c 1
 410 579 352 586 273 586 c 0
 241 586 207 585 171 583 c 1
EndSplineSet
Validated: 1
Substitution2: "'c2sc' Capitals to Small Capitals in Latin lookup 1 subtable" ecircumflex.sc
EndChar

StartChar: Edieresis
Encoding: 203 203 137
Width: 491
GlyphClass: 2
Flags: W
HStem: -2 80<179.497 456.358> 317 79<175 357.67> 583 83<173.34 445.25> 712 142<113.705 214.342 303.705 404.342>
VStem: 68 114<78 310.805> 70 105<79.3037 317 396 581.755> 91 145<733.23 833.342> 281 145<733.23 833.342>
LayerCount: 2
Fore
SplineSet
171 583 m 1xf5
 174 557 175 495 175 396 c 1
 250 396 l 2
 303 396 341 397 364 400 c 1
 367 394 368 383 368 368 c 0
 368 349 365 337 358 330 c 0
 351 323 341 319 326 318 c 0
 309 317 287 317 259 317 c 2
 175 317 l 1xf5
 175 184 177 105 182 78 c 1
 210 77 233 76 251 76 c 0
 358 76 427 83 458 98 c 1
 463 83 466 65 466 45 c 0
 466 30 463 19 457 13 c 0
 444 3 387 -2 286 -2 c 0
 195 -2 140 -1 120 0 c 0
 99 1 85 5 78 14 c 0
 71 22 68 36 68 57 c 0xf9
 68 70 68 97 69 139 c 0
 70 181 70 213 70 236 c 2
 70 430 l 2
 70 523 65 599 56 657 c 1
 129 663 203 666 279 666 c 0
 378 666 433 661 446 651 c 0
 452 645 455 634 455 619 c 0
 455 599 452 581 447 565 c 1
 410 579 352 586 273 586 c 0
 241 586 207 585 171 583 c 1xf5
353 712 m 0
 333 712 316 719 302 732 c 0
 288 745 281 762 281 783 c 0
 281 803 288 820 303 834 c 0
 318 847 335 854 355 854 c 0
 374 854 391 847 405 834 c 0
 419 820 426 803 426 783 c 0
 426 763 419 746 404 733 c 0
 389 719 372 712 353 712 c 0
163 712 m 0
 143 712 126 719 112 732 c 0
 98 745 91 762 91 783 c 0
 91 803 98 820 113 834 c 0
 128 847 145 854 165 854 c 0
 184 854 201 847 215 834 c 0
 229 820 236 803 236 783 c 0xf3
 236 763 229 746 214 733 c 0
 199 719 182 712 163 712 c 0
EndSplineSet
Validated: 1
Substitution2: "'c2sc' Capitals to Small Capitals in Latin lookup 1 subtable" edieresis.sc
EndChar

StartChar: Igrave
Encoding: 204 204 138
Width: 247
GlyphClass: 2
Flags: W
HStem: -3 21G<116.5 140.5> 646 20G<105.5 135.5> 716 21G<147.5 168.5>
VStem: 67 105<10.4255 627.805>
LayerCount: 2
Fore
SplineSet
67 231 m 2
 67 431 l 2
 67 524 65 600 60 661 c 1
 80 664 98 666 113 666 c 0
 158 666 180 653 180 628 c 0
 180 624 179 610 178 587 c 0
 177 564 175 536 174 501 c 0
 173 467 172 435 172 404 c 2
 172 203 l 2
 172 114 178 49 191 7 c 1
 172 0 152 -3 129 -3 c 0
 104 -3 88 1 78 10 c 0
 70 19 65 33 65 54 c 0
 65 65 65 91 66 133 c 0
 67 175 67 208 67 231 c 2
23 915 m 1
 50 886 78 861 107 839 c 0
 136 817 158 801 170 791 c 0
 184 781 190 771 190 760 c 0
 190 745 179 730 158 716 c 1
 137 731 110 748 76 766 c 0
 41 785 15 800 -2 813 c 0
 -20 826 -29 840 -29 854 c 0
 -29 877 -12 898 23 915 c 1
EndSplineSet
Validated: 1
Substitution2: "'c2sc' Capitals to Small Capitals in Latin lookup 1 subtable" igrave.sc
EndChar

StartChar: Iacute
Encoding: 205 205 139
Width: 244
GlyphClass: 2
Flags: W
HStem: -3 21G<125.5 149.5> 646 20G<114.5 144.5> 716 21G<76 95>
VStem: 76 105<10.4255 627.805>
LayerCount: 2
Fore
SplineSet
76 231 m 2
 76 431 l 2
 76 524 74 600 69 661 c 1
 89 664 107 666 122 666 c 0
 167 666 189 653 189 628 c 0
 189 624 188 610 187 587 c 0
 186 564 184 536 183 501 c 0
 182 467 181 435 181 404 c 2
 181 203 l 2
 181 114 187 49 200 7 c 1
 181 0 161 -3 138 -3 c 0
 113 -3 96 1 88 10 c 0
 78 19 74 33 74 54 c 0
 74 65 74 91 75 133 c 0
 76 175 76 208 76 231 c 2
246 819 m 0
 234 810 209 794 171 773 c 0
 132 752 104 733 86 716 c 1
 66 734 56 750 56 765 c 0
 56 774 59 781 66 787 c 0
 73 794 82 800 93 807 c 0
 104 814 122 827 145 847 c 0
 168 868 193 892 219 921 c 1
 255 902 273 883 273 862 c 0
 273 846 264 832 246 819 c 0
EndSplineSet
Validated: 1
Substitution2: "'c2sc' Capitals to Small Capitals in Latin lookup 1 subtable" iacute.sc
EndChar

StartChar: Icircumflex
Encoding: 206 206 140
Width: 261
GlyphClass: 2
Flags: W
HStem: -3 21G<127.5 151.5> 646 20G<116.5 146.5> 724 21G<14 30>
VStem: 78 105<10.4255 627.805>
LayerCount: 2
Fore
SplineSet
78 231 m 2
 78 431 l 2
 78 524 76 600 71 661 c 1
 91 664 109 666 124 666 c 0
 169 666 191 653 191 628 c 0
 191 624 190 610 189 587 c 0
 188 564 186 536 185 501 c 0
 184 467 183 435 183 404 c 2
 183 203 l 2
 183 114 189 49 202 7 c 1
 183 0 163 -3 140 -3 c 0
 115 -3 98 1 90 10 c 0
 80 19 76 33 76 54 c 0
 76 65 76 91 77 133 c 0
 78 175 78 208 78 231 c 2
273 757 m 0
 273 743 261 728 236 712 c 1
 225 726 211 740 194 754 c 0
 177 769 163 780 152 788 c 2
 135 799 l 1
 77 749 39 724 21 724 c 0
 7 724 -7 733 -20 750 c 1
 29 808 81 856 136 895 c 1
 227 832 273 786 273 757 c 0
EndSplineSet
Validated: 1
Substitution2: "'c2sc' Capitals to Small Capitals in Latin lookup 1 subtable" icircumflex.sc
EndChar

StartChar: Idieresis
Encoding: 207 207 141
Width: 253
GlyphClass: 2
Flags: W
HStem: -3 21G<118.5 142.5> 646 20G<107.5 137.5> 712 142<-29.3416 71.2954 160.658 261.295>
VStem: -51 145<732.658 832.996> 69 105<10.4255 627.805> 139 145<732.658 832.996>
LayerCount: 2
Fore
SplineSet
69 231 m 2xe8
 69 431 l 2
 69 524 67 600 62 661 c 1
 82 664 100 666 115 666 c 0
 160 666 182 653 182 628 c 0
 182 624 181 610 180 587 c 0
 179 564 177 536 176 501 c 0
 175 467 174 435 174 404 c 2
 174 203 l 2
 174 114 180 49 193 7 c 1
 174 0 154 -3 131 -3 c 0
 106 -3 90 1 80 10 c 0
 72 19 67 33 67 54 c 0
 67 65 67 91 68 133 c 0
 69 175 69 208 69 231 c 2xe8
21 712 m 0
 1 712 -16 719 -30 732 c 0
 -44 745 -51 762 -51 783 c 0
 -51 803 -44 820 -29 833 c 0
 -14 847 3 854 23 854 c 0
 42 854 59 847 73 833 c 0
 87 820 94 803 94 783 c 0xf0
 94 763 87 746 72 732 c 0
 57 719 40 712 21 712 c 0
211 712 m 0
 191 712 174 719 160 732 c 0
 146 745 139 762 139 783 c 0
 139 803 146 820 161 833 c 0
 176 847 193 854 213 854 c 0
 232 854 249 847 263 833 c 0
 277 820 284 803 284 783 c 0xe4
 284 763 277 746 262 732 c 0
 247 719 230 712 211 712 c 0
EndSplineSet
Validated: 1
Substitution2: "'c2sc' Capitals to Small Capitals in Latin lookup 1 subtable" idieresis.sc
EndChar

StartChar: Eth
Encoding: 208 208 142
Width: 651
GlyphClass: 2
Flags: W
HStem: -10 80<197.964 390.87> 316 79<-8.68262 84 189 346.235> 596 77<186.248 359.224>
VStem: 85 104<107.405 316 395 594.285> 495 114<194.906 453.379>
LayerCount: 2
Fore
SplineSet
185 592 m 1
 188 549 189 498 189 439 c 2
 189 395 l 1
 234 395 l 2
 289 395 327 396 348 399 c 1
 351 388 352 377 352 365 c 0
 352 334 337 318 308 317 c 0
 289 316 248 316 187 316 c 1
 184 226 180 156 175 105 c 1
 207 82 247 70 294 70 c 0
 331 70 364 78 391 92 c 0
 418 108 439 128 454 152 c 0
 468 178 478 204 485 230 c 0
 492 258 495 286 495 315 c 0
 495 408 473 478 430 526 c 0
 386 572 323 596 242 596 c 0
 229 596 210 595 185 592 c 1
69 53 m 1
 78 114 83 202 84 316 c 1
 43 316 12 315 -9 312 c 1
 -12 321 -14 333 -14 348 c 0
 -14 377 1 393 31 394 c 0
 40 395 58 395 85 395 c 1
 85 503 81 592 72 661 c 1
 114 669 168 673 233 673 c 0
 287 673 336 667 378 656 c 0
 422 645 461 626 496 601 c 0
 532 576 560 541 580 496 c 0
 599 451 609 396 609 333 c 0
 609 233 581 151 526 86 c 0
 471 22 392 -10 289 -10 c 0
 194 -10 121 11 69 53 c 1
EndSplineSet
Validated: 1
Substitution2: "'c2sc' Capitals to Small Capitals in Latin lookup 1 subtable" eth.sc
EndChar

StartChar: Ntilde
Encoding: 209 209 143
Width: 618
GlyphClass: 2
Flags: W
HStem: -3 21G<124.5 145.5 499.5 524> 647 20G<105 132.5 490 518> 718 73<327.47 408.713> 762 73<213.121 287.77>
VStem: 75 90<10.4255 503.279> 462 91<191.563 586.872>
LayerCount: 2
Fore
SplineSet
560 1 m 1xcc
 547 -2 532 -3 516 -3 c 0
 483 -3 460 6 449 24 c 0
 418 75 370 156 305 265 c 0
 240 374 192 455 160 507 c 1
 165 256 l 2
 167 121 174 38 185 5 c 1
 170 -0 154 -3 137 -3 c 0
 112 -3 95 1 86 10 c 0
 77 19 73 33 73 54 c 0
 73 65 73 91 74 133 c 0
 75 175 75 208 75 231 c 2
 75 431 l 2
 75 542 69 618 56 659 c 1
 73 664 93 667 117 667 c 0
 148 667 172 657 189 638 c 0
 220 603 267 537 328 438 c 0
 390 339 437 256 470 188 c 1
 465 264 462 341 462 420 c 0
 462 519 460 600 455 663 c 1
 470 665 484 666 496 666 c 0
 540 666 562 653 562 628 c 0
 562 624 561 610 560 588 c 0
 559 564 557 536 556 502 c 0
 554 467 553 435 553 404 c 2
 553 233 l 2
 553 139 555 62 560 1 c 1xcc
462 804 m 0
 462 784 451 765 428 746 c 0
 406 727 382 718 355 718 c 0xec
 336 718 313 725 288 740 c 0
 263 755 248 762 243 762 c 0
 234 762 217 747 192 716 c 1
 169 726 158 739 158 754 c 0
 158 773 169 792 191 809 c 0
 214 826 239 835 266 835 c 0xdc
 282 835 302 828 327 813 c 0
 352 798 369 791 376 791 c 0xec
 389 791 406 806 427 836 c 1
 450 829 462 819 462 804 c 0
EndSplineSet
Validated: 1
Substitution2: "'c2sc' Capitals to Small Capitals in Latin lookup 1 subtable" ntilde.sc
EndChar

StartChar: Ograve
Encoding: 210 210 144
Width: 716
GlyphClass: 2
Flags: W
HStem: -10 79<272.618 453.662> 594 79<264.68 446.45> 716 21G<375.5 396.5>
VStem: 42 114<213.852 472.005> 561 114<191.282 457.19>
LayerCount: 2
Fore
SplineSet
251 915 m 1
 278 886 306 861 335 839 c 0
 364 817 386 801 398 791 c 0
 412 781 418 771 418 760 c 0
 418 745 407 730 386 716 c 1
 365 731 338 748 304 767 c 0
 269 785 243 801 226 814 c 0
 208 827 199 840 199 854 c 0
 199 877 216 898 251 915 c 1
357 -10 m 0
 261 -10 185 21 128 83 c 0
 71 145 42 228 42 331 c 0
 42 436 71 519 128 581 c 0
 185 642 261 673 357 673 c 0
 454 673 532 642 589 581 c 0
 646 519 675 436 675 331 c 0
 675 228 646 145 589 83 c 0
 531 21 454 -10 357 -10 c 0
561 314 m 0
 561 362 555 406 543 447 c 0
 530 487 508 522 477 551 c 0
 445 580 406 594 359 594 c 0
 297 594 248 572 211 529 c 0
 174 485 156 429 156 360 c 0
 156 310 162 264 175 222 c 0
 187 180 209 144 241 114 c 0
 272 84 311 69 358 69 c 0
 423 69 473 92 508 137 c 0
 543 182 561 241 561 314 c 0
EndSplineSet
Validated: 1
Substitution2: "'c2sc' Capitals to Small Capitals in Latin lookup 1 subtable" ograve.sc
EndChar

StartChar: Oacute
Encoding: 211 211 145
Width: 716
GlyphClass: 2
Flags: W
HStem: -10 79<272.618 453.662> 594 79<264.68 446.45> 716 21G<320 339>
VStem: 42 114<213.852 472.005> 561 114<191.282 457.19>
LayerCount: 2
Fore
SplineSet
490 819 m 0
 478 810 453 794 415 773 c 0
 376 752 348 733 330 716 c 1
 310 734 300 750 300 765 c 0
 300 774 303 781 310 788 c 0
 317 794 326 800 337 807 c 0
 348 814 366 827 389 848 c 0
 412 868 437 892 463 921 c 1
 499 902 517 883 517 862 c 0
 517 846 508 832 490 819 c 0
357 -10 m 0
 261 -10 185 21 128 83 c 0
 71 145 42 228 42 331 c 0
 42 436 71 519 128 581 c 0
 185 642 261 673 357 673 c 0
 454 673 532 642 589 581 c 0
 646 519 675 436 675 331 c 0
 675 228 646 145 589 83 c 0
 531 21 454 -10 357 -10 c 0
561 314 m 0
 561 362 555 406 543 447 c 0
 530 487 508 522 477 551 c 0
 445 580 406 594 359 594 c 0
 297 594 248 572 211 529 c 0
 174 485 156 429 156 360 c 0
 156 310 162 264 175 222 c 0
 187 180 209 144 241 114 c 0
 272 84 311 69 358 69 c 0
 423 69 473 92 508 137 c 0
 543 182 561 241 561 314 c 0
EndSplineSet
Validated: 1
Substitution2: "'c2sc' Capitals to Small Capitals in Latin lookup 1 subtable" oacute.sc
EndChar

StartChar: Ocircumflex
Encoding: 212 212 146
Width: 716
GlyphClass: 2
Flags: W
HStem: -10 79<272.618 453.662> 594 79<264.68 446.45> 724 21G<240.5 257>
VStem: 42 114<213.852 472.005> 561 114<191.282 457.19>
LayerCount: 2
Fore
SplineSet
500 757 m 0
 500 743 488 728 463 712 c 1
 452 726 438 740 421 754 c 0
 404 769 390 780 379 788 c 2
 362 799 l 1
 304 749 266 724 248 724 c 0
 233 724 220 733 207 750 c 1
 256 808 308 856 363 895 c 1
 454 832 500 786 500 757 c 0
357 -10 m 0
 261 -10 185 21 128 83 c 0
 71 145 42 228 42 331 c 0
 42 436 71 519 128 581 c 0
 185 642 261 673 357 673 c 0
 454 673 532 642 589 581 c 0
 646 519 675 436 675 331 c 0
 675 228 646 145 589 83 c 0
 531 21 454 -10 357 -10 c 0
561 314 m 0
 561 362 555 406 543 447 c 0
 530 487 508 522 477 551 c 0
 445 580 406 594 359 594 c 0
 297 594 248 572 211 529 c 0
 174 485 156 429 156 360 c 0
 156 310 162 264 175 222 c 0
 187 180 209 144 241 114 c 0
 272 84 311 69 358 69 c 0
 423 69 473 92 508 137 c 0
 543 182 561 241 561 314 c 0
EndSplineSet
Validated: 1
Substitution2: "'c2sc' Capitals to Small Capitals in Latin lookup 1 subtable" ocircumflex.sc
EndChar

StartChar: Otilde
Encoding: 213 213 147
Width: 716
GlyphClass: 2
Flags: W
HStem: -10 79<272.618 453.662> 594 79<264.68 446.45> 718 73<376.488 456.342> 762 73<261.284 335.951>
VStem: 42 114<213.852 472.005> 561 114<191.282 457.19>
LayerCount: 2
Fore
SplineSet
357 -10 m 0xcc
 261 -10 185 21 128 83 c 0
 71 145 42 228 42 331 c 0
 42 436 71 519 128 581 c 0
 185 642 261 673 357 673 c 0
 454 673 532 642 589 581 c 0
 646 519 675 436 675 331 c 0
 675 228 646 145 589 83 c 0
 531 21 454 -10 357 -10 c 0xcc
561 314 m 0
 561 362 555 406 543 447 c 0
 530 487 508 522 477 551 c 0
 445 580 406 594 359 594 c 0
 297 594 248 572 211 529 c 0
 174 485 156 429 156 360 c 0
 156 310 162 264 175 222 c 0
 187 180 209 144 241 114 c 0
 272 84 311 69 358 69 c 0
 423 69 473 92 508 137 c 0
 543 182 561 241 561 314 c 0
510 804 m 0
 510 784 499 765 477 746 c 0
 454 727 430 718 403 718 c 0xec
 384 718 361 725 336 740 c 0
 311 755 296 762 291 762 c 0
 282 762 265 747 240 716 c 1
 217 726 206 739 206 754 c 0
 206 773 217 792 240 809 c 0
 262 826 287 835 314 835 c 0xdc
 330 835 351 828 376 813 c 0
 401 798 417 791 424 791 c 0xec
 437 791 454 806 475 836 c 1
 498 829 510 819 510 804 c 0
EndSplineSet
Validated: 1
Substitution2: "'c2sc' Capitals to Small Capitals in Latin lookup 1 subtable" otilde.sc
EndChar

StartChar: Odieresis
Encoding: 214 214 148
Width: 716
GlyphClass: 2
Flags: W
HStem: -10 79<272.618 453.662> 594 79<264.68 446.45> 712 142<212.705 313.342 402.705 503.342>
VStem: 42 114<213.852 472.005> 190 145<733.23 833.342> 380 145<733.23 833.342> 561 114<191.282 457.19>
LayerCount: 2
Fore
SplineSet
357 -10 m 0
 261 -10 185 21 128 83 c 0
 71 145 42 228 42 331 c 0
 42 436 71 519 128 581 c 0
 185 642 261 673 357 673 c 0
 454 673 532 642 589 581 c 0
 646 519 675 436 675 331 c 0
 675 228 646 145 589 83 c 0
 531 21 454 -10 357 -10 c 0
561 314 m 0
 561 362 555 406 543 447 c 0
 530 487 508 522 477 551 c 0
 445 580 406 594 359 594 c 0
 297 594 248 572 211 529 c 0
 174 485 156 429 156 360 c 0
 156 310 162 264 175 222 c 0
 187 180 209 144 241 114 c 0
 272 84 311 69 358 69 c 0
 423 69 473 92 508 137 c 0
 543 182 561 241 561 314 c 0
452 712 m 0
 432 712 415 719 401 732 c 0
 387 745 380 762 380 783 c 0
 380 803 387 820 402 834 c 0
 417 847 434 854 454 854 c 0
 473 854 490 847 504 834 c 0
 518 820 525 803 525 783 c 0
 525 763 518 746 503 733 c 0
 488 719 471 712 452 712 c 0
262 712 m 0
 242 712 225 719 211 732 c 0
 197 745 190 762 190 783 c 0
 190 803 197 820 212 834 c 0
 227 847 244 854 264 854 c 0
 283 854 300 847 314 834 c 0
 328 820 335 803 335 783 c 0
 335 763 328 746 313 733 c 0
 298 719 281 712 262 712 c 0
EndSplineSet
Validated: 1
Substitution2: "'c2sc' Capitals to Small Capitals in Latin lookup 1 subtable" odieresis.sc
EndChar

StartChar: multiply
Encoding: 215 215 149
Width: 535
GlyphClass: 2
Flags: W
LayerCount: 2
Fore
SplineSet
413 470 m 1
 428 462 441 452 454 440 c 0
 466 428 472 417 472 407 c 0
 472 398 467 388 457 378 c 0
 448 369 426 349 391 316 c 0
 356 283 334 263 324 254 c 1
 392 186 446 136 486 104 c 1
 470 74 448 59 419 59 c 0
 404 59 392 63 385 70 c 0
 378 77 359 97 328 132 c 0
 296 166 275 188 266 197 c 1
 213 145 164 92 119 37 c 1
 106 46 97 52 90 58 c 0
 83 62 77 69 70 78 c 0
 64 86 61 94 61 103 c 0
 61 112 66 121 76 131 c 0
 84 140 129 181 210 255 c 1
 138 324 84 374 49 406 c 1
 68 437 90 452 115 452 c 0
 130 452 141 448 150 439 c 0
 161 428 200 386 267 312 c 1
 332 377 381 430 413 470 c 1
EndSplineSet
Validated: 1
EndChar

StartChar: Oslash
Encoding: 216 216 150
Width: 716
GlyphClass: 2
Flags: W
HStem: -10 79<271.319 453.662> 594 79<265.793 445.461> 724 20G<547 568.5>
VStem: 42 114<213.252 471.829> 123 46<-70.0561 -39.0703> 553 46<698.154 730.056> 561 114<191.282 451.233>
LayerCount: 2
Fore
SplineSet
221 16 m 1xe2
 197 -27 l 2
 182 -54 173 -73 169 -84 c 1
 138 -81 123 -70 123 -53 c 0xea
 123 -46 131 -28 148 2 c 2
 171 44 l 1
 85 105 42 200 42 331 c 0
 42 436 71 519 128 580 c 0
 185 642 261 673 357 673 c 0
 409 673 457 663 501 643 c 1
 525 687 l 2
 532 699 541 718 553 744 c 1
 584 741 599 730 599 713 c 0xf4
 599 706 592 689 577 663 c 2
 550 614 l 1
 633 553 675 458 675 331 c 0
 675 228 646 145 589 83 c 0
 531 21 454 -10 357 -10 c 0
 307 -10 262 -1 221 16 c 1xe2
156 360 m 0xf0
 156 262 177 187 220 134 c 1
 458 565 l 1
 429 584 396 594 359 594 c 0
 297 594 248 572 211 528 c 0
 174 485 156 429 156 360 c 0xf0
561 314 m 0xe2
 561 402 541 472 501 525 c 1
 264 95 l 1
 291 78 322 69 358 69 c 0
 423 69 473 92 508 137 c 0
 543 182 561 241 561 314 c 0xe2
EndSplineSet
Validated: 1
Substitution2: "'c2sc' Capitals to Small Capitals in Latin lookup 1 subtable" oslash.sc
EndChar

StartChar: Ugrave
Encoding: 217 217 151
Width: 643
GlyphClass: 2
Flags: W
HStem: -10 87<226.345 362.591> -3 21G<513 538.5> 646 20G<109 132.5 503 532.5> 716 21G<341.5 362.5>
VStem: 69 109<125.488 415.36> 78 108<212.5 613.709> 463 105<10.3801 75 132.549 627.944>
LayerCount: 2
Fore
SplineSet
217 915 m 1x32
 244 886 272 861 301 839 c 0
 330 817 352 801 364 791 c 0
 378 781 384 771 384 760 c 0
 384 745 373 730 352 716 c 1
 331 731 304 748 270 767 c 0
 235 785 209 801 192 814 c 0
 174 827 165 840 165 854 c 0
 165 877 182 898 217 915 c 1x32
61 658 m 1
 78 663 98 666 120 666 c 0
 145 666 164 662 176 655 c 0
 187 647 193 634 193 615 c 0
 193 588 191 527 186 432 c 0xb6
 181 337 178 263 178 210 c 0
 178 165 190 131 213 110 c 0
 236 88 264 77 295 77 c 0xba
 324 77 354 84 386 99 c 0
 417 114 443 131 462 152 c 1
 462 184 l 2
 462 200 462 229 463 271 c 0
 463 312 463 366 463 431 c 0
 463 524 461 601 456 662 c 1
 477 665 495 666 511 666 c 0
 554 666 576 653 576 628 c 0
 576 627 575 614 574 591 c 0
 573 568 571 531 570 482 c 0
 569 432 568 374 568 309 c 0
 568 206 569 137 571 102 c 0
 573 67 578 34 587 5 c 1
 572 -0 552 -3 525 -3 c 0x7a
 501 -3 484 1 475 10 c 0
 466 18 461 33 461 56 c 2
 461 75 l 1
 435 50 404 29 368 14 c 0
 331 -2 298 -10 267 -10 c 0
 206 -10 158 5 122 35 c 0
 87 64 69 117 69 192 c 0xba
 69 231 70 285 74 352 c 0
 76 419 78 469 78 501 c 0xb6
 78 564 72 617 61 658 c 1
EndSplineSet
Validated: 1
Substitution2: "'c2sc' Capitals to Small Capitals in Latin lookup 1 subtable" ugrave.sc
EndChar

StartChar: Uacute
Encoding: 218 218 152
Width: 643
GlyphClass: 2
Flags: W
HStem: -10 87<226.352 362.591> -3 21G<513 538.5> 646 20G<109 132.5 503 532.5> 716 21G<293 312>
VStem: 69 109<125.488 417.082> 78 108<212.499 613.709> 463 105<10.3801 75 132.549 627.944>
LayerCount: 2
Fore
SplineSet
463 819 m 0x32
 451 810 426 794 388 773 c 0
 349 752 321 733 303 716 c 1
 283 734 273 750 273 765 c 0
 273 774 276 781 283 788 c 0
 290 794 299 800 310 807 c 0
 321 814 339 827 362 848 c 0
 385 868 410 892 436 921 c 1
 472 902 490 883 490 862 c 0
 490 846 481 832 463 819 c 0x32
61 658 m 1
 78 663 98 666 120 666 c 0
 145 666 164 662 176 655 c 0
 187 647 193 634 193 615 c 0
 193 588 191 526 186 432 c 0xb6
 181 336 178 263 178 210 c 0
 178 165 190 131 213 110 c 0
 236 88 264 77 295 77 c 0xba
 324 77 354 84 386 99 c 0
 417 114 443 131 462 152 c 1
 462 184 l 2
 462 200 462 229 463 271 c 0
 463 312 463 366 463 431 c 0
 463 524 461 601 456 662 c 1
 477 665 495 666 511 666 c 0
 554 666 576 653 576 628 c 0
 576 627 575 614 574 591 c 0
 573 568 571 531 570 482 c 0
 569 432 568 374 568 309 c 0
 568 206 569 137 571 102 c 0
 573 67 578 34 587 5 c 1
 572 -0 552 -3 525 -3 c 0x7a
 501 -3 484 1 475 10 c 0
 466 18 461 33 461 56 c 2
 461 75 l 1
 435 50 404 29 368 14 c 0
 331 -2 298 -10 267 -10 c 0
 206 -10 158 5 123 35 c 0
 87 64 69 117 69 192 c 0xba
 69 231 71 285 74 352 c 0
 77 419 78 469 78 501 c 0xb6
 78 564 72 617 61 658 c 1
EndSplineSet
Validated: 1
Substitution2: "'c2sc' Capitals to Small Capitals in Latin lookup 1 subtable" uacute.sc
EndChar

StartChar: Ucircumflex
Encoding: 219 219 153
Width: 643
GlyphClass: 2
Flags: W
HStem: -10 87<226.345 362.591> -3 21G<513 538.5> 646 20G<109 132.5 503 532.5> 724 21G<208 224>
VStem: 69 109<125.488 417.082> 78 108<212.499 613.709> 463 105<10.3801 75 132.549 627.944>
LayerCount: 2
Fore
SplineSet
467 757 m 0x32
 467 743 455 728 430 712 c 1
 419 726 405 740 388 754 c 0
 371 769 357 780 346 788 c 2
 329 799 l 1
 271 749 233 724 215 724 c 0
 201 724 187 733 174 750 c 1
 223 808 275 856 330 895 c 1
 421 832 467 786 467 757 c 0x32
61 658 m 1
 78 663 98 666 120 666 c 0
 145 666 164 662 176 655 c 0
 187 647 193 634 193 615 c 0
 193 588 191 526 186 432 c 0xb6
 181 336 178 263 178 210 c 0
 178 165 190 131 213 110 c 0
 236 88 264 77 295 77 c 0xba
 324 77 354 84 386 99 c 0
 417 114 443 131 462 152 c 1
 462 184 l 2
 462 200 462 229 463 271 c 0
 463 312 463 366 463 431 c 0
 463 524 461 601 456 662 c 1
 477 665 495 666 511 666 c 0
 554 666 576 653 576 628 c 0
 576 627 575 614 574 591 c 0
 573 568 571 531 570 482 c 0
 569 432 568 374 568 309 c 0
 568 206 569 137 571 102 c 0
 573 67 578 34 587 5 c 1
 572 -0 552 -3 525 -3 c 0x7a
 501 -3 484 1 475 10 c 0
 466 18 461 33 461 56 c 2
 461 75 l 1
 435 50 404 29 368 14 c 0
 331 -2 298 -10 267 -10 c 0
 206 -10 158 5 122 35 c 0
 87 64 69 117 69 192 c 0xba
 69 231 70 285 74 352 c 0
 76 419 78 469 78 501 c 0xb6
 78 564 72 617 61 658 c 1
EndSplineSet
Validated: 1
Substitution2: "'c2sc' Capitals to Small Capitals in Latin lookup 1 subtable" ucircumflex.sc
EndChar

StartChar: Udieresis
Encoding: 220 220 154
Width: 643
GlyphClass: 2
Flags: W
HStem: -10 87<226.345 362.591> -3 21G<513 538.5> 646 20G<109 132.5 503 532.5> 712 142<190.705 291.342 380.705 481.342>
VStem: 69 109<125.488 417.082> 78 108<212.499 613.709> 168 145<733.23 833.342> 358 145<733.23 833.342> 463 105<10.3801 75 132.549 627.944>
LayerCount: 2
Fore
SplineSet
61 658 m 1xb4
 78 663 98 666 120 666 c 0
 145 666 164 662 176 655 c 0
 187 647 193 634 193 615 c 0
 193 588 191 526 186 432 c 0xb4
 181 336 178 263 178 210 c 0
 178 165 190 131 213 110 c 0
 236 88 264 77 295 77 c 0xb8
 324 77 354 84 386 99 c 0
 417 114 443 131 462 152 c 1
 462 184 l 2
 462 200 462 229 463 271 c 0
 463 312 463 366 463 431 c 0
 463 524 461 601 456 662 c 1
 477 665 495 666 511 666 c 0
 554 666 576 653 576 628 c 0
 576 627 575 614 574 591 c 0
 573 568 571 531 570 482 c 0
 569 432 568 374 568 309 c 0
 568 206 569 137 571 102 c 0
 573 67 578 34 587 5 c 1
 572 -0 552 -3 525 -3 c 0x7880
 501 -3 484 1 475 10 c 0
 466 18 461 33 461 56 c 2
 461 75 l 1
 435 50 404 29 368 14 c 0
 331 -2 298 -10 267 -10 c 0
 206 -10 158 5 122 35 c 0
 87 64 69 117 69 192 c 0xb880
 69 231 70 285 74 352 c 0
 76 419 78 469 78 501 c 0
 78 564 72 617 61 658 c 1xb4
430 712 m 0
 410 712 393 719 379 732 c 0
 365 745 358 762 358 783 c 0
 358 803 365 820 380 834 c 0
 395 847 412 854 432 854 c 0
 451 854 468 847 482 834 c 0
 496 820 503 803 503 783 c 0x31
 503 763 496 746 481 733 c 0
 466 719 449 712 430 712 c 0
240 712 m 0
 220 712 203 719 189 732 c 0
 175 745 168 762 168 783 c 0
 168 803 175 820 190 834 c 0
 205 847 222 854 242 854 c 0
 261 854 278 847 292 834 c 0
 306 820 313 803 313 783 c 0x32
 313 763 306 746 291 733 c 0
 276 719 259 712 240 712 c 0
EndSplineSet
Validated: 1
Substitution2: "'c2sc' Capitals to Small Capitals in Latin lookup 1 subtable" udieresis.sc
EndChar

StartChar: Yacute
Encoding: 221 221 155
Width: 507
GlyphClass: 2
Flags: W
HStem: -3 21G<254.5 278.5> 647 20G<72.5 91.5 406.5 439.5> 716 21G<229 248>
VStem: 205 105<10.4255 327.135> 408 95<602.454 640.33>
LayerCount: 2
Fore
SplineSet
399 819 m 0
 387 810 362 794 324 773 c 0
 285 752 257 733 239 716 c 1
 219 734 209 750 209 765 c 0
 209 774 212 781 219 788 c 0
 226 794 235 800 246 807 c 0
 257 814 275 827 298 848 c 0
 321 868 346 892 372 921 c 1
 408 902 426 883 426 862 c 0
 426 846 417 832 399 819 c 0
503 616 m 0
 503 593 482 548 438 483 c 0
 396 418 353 359 310 307 c 1
 310 203 l 2
 310 114 316 49 329 7 c 1
 310 0 290 -3 267 -3 c 0
 242 -3 225 1 216 10 c 0
 207 19 203 33 203 54 c 0
 203 65 203 91 204 133 c 0
 205 175 205 208 205 231 c 2
 205 303 l 1
 111 478 40 581 -9 614 c 1
 2 628 15 640 32 651 c 0
 49 662 65 667 80 667 c 0
 103 667 123 656 139 633 c 0
 188 560 234 478 277 386 c 1
 308 433 336 487 363 547 c 0
 390 607 405 649 408 672 c 1
 471 669 503 651 503 616 c 0
EndSplineSet
Validated: 1
Substitution2: "'c2sc' Capitals to Small Capitals in Latin lookup 1 subtable" yacute.sc
EndChar

StartChar: Thorn
Encoding: 222 222 156
Width: 517
GlyphClass: 2
Flags: W
HStem: -3 21G<112.5 136.5> 123 79<186.364 324.859> 486 77<172.404 322.134> 646 20G<101.5 131.5>
VStem: 63 105<10.4255 155 210.551 481.533> 373 114<252.908 435.476>
LayerCount: 2
Fore
SplineSet
63 231 m 2
 63 431 l 2
 63 524 61 600 56 661 c 1
 76 664 94 666 109 666 c 0
 154 666 176 653 176 628 c 2
 172 562 l 1
 179 563 191 563 206 563 c 0
 393 563 487 489 487 342 c 0
 487 271 467 216 427 179 c 0
 386 142 339 123 284 123 c 0
 239 123 201 134 168 155 c 1
 169 92 176 43 187 7 c 1
 168 0 148 -3 125 -3 c 0
 100 -3 84 1 74 10 c 0
 66 19 61 33 61 54 c 0
 61 65 61 91 62 133 c 0
 63 175 63 208 63 231 c 2
252 202 m 0
 290 202 320 214 341 238 c 0
 362 263 373 296 373 337 c 0
 373 394 361 433 337 454 c 0
 313 475 276 486 225 486 c 0
 213 486 194 485 169 482 c 1
 168 465 168 378 168 219 c 1
 190 208 218 202 252 202 c 0
EndSplineSet
Validated: 1
EndChar

StartChar: germandbls
Encoding: 223 223 157
Width: 537
GlyphClass: 2
Flags: W
HStem: -10 71<310.684 385.24> -3 21G<101 121> 603 71<203.897 297.035>
VStem: 74 98<12.9394 570.031> 207 92<327.681 405.471> 311 102<474.719 588.928> 397 102<74.4441 177.356>
LayerCount: 2
Fore
SplineSet
172 488 m 2xbc
 172 199 l 2
 172 188 172 167 172 138 c 0
 173 109 173 81 173 56 c 0
 173 35 168 19 159 10 c 0
 150 1 133 -3 109 -3 c 0
 93 -3 75 2 55 11 c 1
 68 52 74 117 74 205 c 2
 74 461 l 2
 74 531 92 584 130 620 c 0
 166 656 210 674 261 674 c 0
 303 674 339 664 368 643 c 0
 398 622 413 594 413 558 c 0x7c
 413 526 407 499 395 477 c 0
 383 456 370 441 356 432 c 0
 342 423 329 413 317 402 c 0
 305 391 299 380 299 368 c 0
 299 352 310 336 330 319 c 0
 352 302 374 287 399 274 c 0
 424 261 446 241 468 216 c 0
 488 191 499 163 499 132 c 0
 499 95 484 62 454 33 c 0
 424 4 388 -10 345 -10 c 0
 310 -10 280 -2 254 15 c 0
 227 32 214 52 214 76 c 0
 214 89 220 100 233 108 c 0
 246 116 264 124 289 131 c 1
 294 108 302 91 314 79 c 0
 326 67 339 61 352 61 c 0
 364 61 375 67 384 78 c 0
 393 90 397 104 397 120 c 0xba
 397 139 391 157 378 174 c 0
 365 191 349 205 330 217 c 0
 311 230 293 242 274 255 c 0
 255 268 240 283 226 302 c 0
 214 321 207 341 207 364 c 0
 207 381 212 396 224 410 c 0
 234 424 246 435 259 444 c 0
 272 453 284 465 294 482 c 0
 306 499 311 518 311 539 c 0
 311 560 306 576 296 586 c 0
 285 598 272 603 255 603 c 0
 232 603 213 594 196 574 c 0
 180 556 172 527 172 488 c 2xbc
EndSplineSet
Validated: 1
EndChar

StartChar: agrave
Encoding: 224 224 158
Width: 478
GlyphClass: 2
Flags: W
HStem: -10 71<166.691 263.412> 412 73<173.012 280.566> 702 20G<110.5 141.5>
VStem: 38 109<79.7308 180.812> 303 110<99.4255 214 275 396.118>
LayerCount: 2
Fore
SplineSet
128 722 m 1
 155 693 183 668 212 646 c 0
 241 624 262 608 276 598 c 0
 288 588 295 578 295 567 c 0
 295 552 284 537 263 523 c 1
 242 538 215 555 180 574 c 0
 146 592 120 608 102 621 c 0
 85 634 76 647 76 661 c 0
 76 684 93 705 128 722 c 1
303 143 m 0
 303 174 304 197 305 214 c 1
 285 211 270 209 262 208 c 0
 252 207 240 205 225 202 c 0
 210 199 198 196 192 193 c 0
 184 190 177 186 169 181 c 0
 161 176 155 171 152 164 c 0
 149 157 147 148 147 139 c 0
 147 112 154 93 167 80 c 0
 180 67 197 61 218 61 c 0
 252 61 281 74 305 99 c 1
 304 108 303 122 303 143 c 0
307 275 m 1
 307 298 307 315 306 327 c 0
 305 339 302 353 298 368 c 0
 293 383 286 394 276 401 c 0
 265 408 251 412 234 412 c 0
 212 412 191 405 172 390 c 0
 152 376 138 356 129 331 c 1
 70 332 40 349 40 384 c 0
 40 413 60 437 101 456 c 0
 141 475 187 485 238 485 c 0
 299 485 344 472 372 447 c 0
 401 422 415 376 415 311 c 0
 415 309 415 293 414 264 c 0
 413 235 413 206 413 178 c 0
 413 102 419 45 432 7 c 1
 413 -0 394 -4 375 -4 c 0
 338 -4 315 11 308 42 c 1
 268 7 223 -10 173 -10 c 0
 134 -10 102 2 76 26 c 0
 51 50 38 85 38 132 c 0
 38 169 46 197 62 215 c 0
 78 233 99 246 126 255 c 0
 166 268 226 274 307 275 c 1
EndSplineSet
Validated: 1
Substitution2: "'smcp' Lowercase to Small Capitals in Latin lookup 0 subtable" agrave.sc
EndChar

StartChar: aacute
Encoding: 225 225 159
Width: 478
GlyphClass: 2
Flags: W
HStem: -10 71<166.691 263.412> 412 73<173.012 280.577> 708 20G<327 358>
VStem: 38 109<79.7308 172.125> 303 110<99.4255 214 275 396.118>
LayerCount: 2
Fore
SplineSet
367 626 m 0
 355 617 330 601 292 580 c 0
 253 559 225 540 207 523 c 1
 187 541 177 557 177 572 c 0
 177 581 180 588 187 595 c 0
 194 601 203 607 214 614 c 0
 225 621 243 634 266 655 c 0
 289 675 314 699 340 728 c 1
 376 709 394 690 394 669 c 0
 394 653 385 639 367 626 c 0
303 143 m 0
 303 174 304 197 305 214 c 1
 285 211 271 209 262 208 c 0
 253 207 240 205 225 202 c 0
 210 199 199 196 192 193 c 0
 185 190 177 186 169 181 c 0
 161 176 155 170 152 164 c 0
 149 156 147 148 147 139 c 0
 147 112 154 93 167 80 c 0
 180 67 197 61 218 61 c 0
 252 61 281 74 305 99 c 1
 304 108 303 122 303 143 c 0
307 275 m 1
 307 298 307 315 306 327 c 0
 305 339 302 353 298 368 c 0
 293 383 286 394 276 401 c 0
 265 408 251 412 234 412 c 0
 212 412 191 405 172 390 c 0
 152 376 138 356 129 331 c 1
 70 332 40 349 40 384 c 0
 40 413 60 437 101 456 c 0
 141 475 187 485 238 485 c 0
 299 485 344 472 373 447 c 0
 401 422 415 376 415 311 c 0
 415 309 415 293 414 264 c 0
 413 235 413 206 413 178 c 0
 413 102 419 45 432 7 c 1
 413 -0 394 -4 375 -4 c 0
 338 -4 315 11 308 42 c 1
 268 7 223 -10 173 -10 c 0
 134 -10 102 2 77 26 c 0
 51 50 38 85 38 132 c 0
 38 169 46 197 62 215 c 0
 78 233 99 246 126 255 c 0
 166 268 226 274 307 275 c 1
EndSplineSet
Validated: 1
Substitution2: "'smcp' Lowercase to Small Capitals in Latin lookup 0 subtable" aacute.sc
EndChar

StartChar: acircumflex
Encoding: 226 226 160
Width: 478
GlyphClass: 2
Flags: W
HStem: -10 71<166.691 263.412> 412 73<173.012 280.577>
VStem: 38 109<79.7308 180.812> 303 110<99.4255 214 275 396.118>
LayerCount: 2
Fore
SplineSet
372 564 m 0
 372 550 360 535 335 519 c 1
 324 533 310 547 293 562 c 0
 276 576 262 587 251 594 c 2
 234 606 l 1
 176 556 138 531 120 531 c 0
 105 531 92 540 79 557 c 1
 128 615 180 663 235 702 c 1
 326 639 372 593 372 564 c 0
303 143 m 0
 303 174 304 197 305 214 c 1
 285 211 271 209 262 208 c 0
 253 207 240 205 225 202 c 0
 210 199 199 196 192 193 c 0
 185 190 177 186 169 181 c 0
 161 176 155 171 152 164 c 0
 149 157 147 148 147 139 c 0
 147 112 154 93 167 80 c 0
 180 67 197 61 218 61 c 0
 252 61 281 74 305 99 c 1
 304 108 303 122 303 143 c 0
307 275 m 1
 307 298 307 315 306 327 c 0
 305 339 302 353 298 368 c 0
 293 383 286 394 276 401 c 0
 265 408 251 412 234 412 c 0
 212 412 191 405 172 390 c 0
 152 376 138 356 129 331 c 1
 70 332 40 349 40 384 c 0
 40 413 60 437 101 456 c 0
 141 475 187 485 238 485 c 0
 299 485 344 472 373 447 c 0
 401 422 415 376 415 311 c 0
 415 309 415 293 414 264 c 0
 413 235 413 206 413 178 c 0
 413 102 419 45 432 7 c 1
 413 -0 394 -4 375 -4 c 0
 338 -4 315 11 308 42 c 1
 268 7 223 -10 173 -10 c 0
 134 -10 102 2 77 26 c 0
 51 50 38 85 38 132 c 0
 38 169 46 197 62 215 c 0
 78 233 99 246 126 255 c 0
 166 268 226 274 307 275 c 1
EndSplineSet
Validated: 1
Substitution2: "'smcp' Lowercase to Small Capitals in Latin lookup 0 subtable" acircumflex.sc
EndChar

StartChar: atilde
Encoding: 227 227 161
Width: 478
GlyphClass: 2
Flags: W
HStem: -10 71<166.691 263.412> 412 73<173.012 280.566> 531 73<254.488 334.342> 575 73<139.284 213.951>
VStem: 38 109<79.7308 172.125> 303 110<99.4255 214 275 396.118>
LayerCount: 2
Fore
SplineSet
303 143 m 0xcc
 303 174 304 197 305 214 c 1
 285 211 270 209 262 208 c 0
 252 207 240 205 225 202 c 0
 210 199 198 196 192 193 c 0
 184 190 177 186 169 181 c 0
 161 176 155 170 152 164 c 0
 149 156 147 148 147 139 c 0
 147 112 154 93 167 80 c 0
 180 67 197 61 218 61 c 0
 252 61 281 74 305 99 c 1
 304 108 303 122 303 143 c 0xcc
307 275 m 1
 307 298 307 315 306 327 c 0
 305 339 302 353 298 368 c 0
 293 383 286 394 276 401 c 0
 265 408 251 412 234 412 c 0
 212 412 191 405 172 390 c 0
 152 376 138 356 129 331 c 1
 70 332 40 349 40 384 c 0
 40 413 60 437 101 456 c 0
 141 475 187 485 238 485 c 0
 299 485 344 472 372 447 c 0
 401 422 415 376 415 311 c 0
 415 309 415 293 414 264 c 0
 413 235 413 206 413 178 c 0
 413 102 419 45 432 7 c 1
 413 -0 394 -4 375 -4 c 0
 338 -4 315 11 308 42 c 1
 268 7 223 -10 173 -10 c 0
 134 -10 102 2 76 26 c 0
 51 50 38 85 38 132 c 0
 38 169 46 197 62 215 c 0
 78 233 99 246 126 255 c 0
 166 268 226 274 307 275 c 1
388 617 m 0
 388 597 377 578 355 559 c 0
 332 540 308 531 281 531 c 0xec
 262 531 239 538 214 553 c 0
 189 568 174 575 169 575 c 0
 160 575 143 560 118 529 c 1
 95 539 84 552 84 567 c 0
 84 586 95 605 118 622 c 0
 140 639 165 648 192 648 c 0xdc
 208 648 229 641 254 626 c 0
 279 611 295 604 302 604 c 0xec
 315 604 332 619 353 649 c 1
 376 642 388 632 388 617 c 0
EndSplineSet
Validated: 1
Substitution2: "'smcp' Lowercase to Small Capitals in Latin lookup 0 subtable" atilde.sc
EndChar

StartChar: adieresis
Encoding: 228 228 162
Width: 478
GlyphClass: 2
Flags: W
HStem: -10 71<166.691 263.412> 412 73<173.012 280.566> 520 142<94.6584 195.295 284.658 385.295>
VStem: 38 109<79.7308 172.125> 73 145<540.658 640.996> 263 145<540.658 640.996> 303 110<99.4255 214 275 396.118>
LayerCount: 2
Fore
SplineSet
303 143 m 0xea
 303 174 304 197 305 214 c 1
 285 211 270 209 262 208 c 0
 252 207 240 205 225 202 c 0
 210 199 198 196 192 193 c 0
 184 190 177 186 169 181 c 0
 161 176 155 170 152 164 c 0
 149 156 147 148 147 139 c 0xf2
 147 112 154 93 167 80 c 0
 180 67 197 61 218 61 c 0
 252 61 281 74 305 99 c 1
 304 108 303 122 303 143 c 0xea
307 275 m 1
 307 298 307 315 306 327 c 0
 305 339 302 353 298 368 c 0
 293 383 286 394 276 401 c 0
 265 408 251 412 234 412 c 0
 212 412 191 405 172 390 c 0
 152 376 138 356 129 331 c 1
 70 332 40 349 40 384 c 0
 40 413 60 437 101 456 c 0
 141 475 187 485 238 485 c 0
 299 485 344 472 372 447 c 0
 401 422 415 376 415 311 c 0
 415 309 415 293 414 264 c 0
 413 235 413 206 413 178 c 0
 413 102 419 45 432 7 c 1
 413 -0 394 -4 375 -4 c 0
 338 -4 315 11 308 42 c 1
 268 7 223 -10 173 -10 c 0
 134 -10 102 2 76 26 c 0
 51 50 38 85 38 132 c 0
 38 169 46 197 62 215 c 0
 78 233 99 246 126 255 c 0
 166 268 226 274 307 275 c 1
335 520 m 0
 315 520 298 527 284 540 c 0
 270 553 263 570 263 591 c 0
 263 611 270 628 285 641 c 0
 300 655 317 662 337 662 c 0
 356 662 373 655 387 641 c 0
 401 628 408 611 408 591 c 0xe4
 408 571 401 554 386 540 c 0
 371 527 354 520 335 520 c 0
145 520 m 0
 125 520 108 527 94 540 c 0
 80 553 73 570 73 591 c 0xe8
 73 611 80 628 95 641 c 0
 110 655 127 662 147 662 c 0xf0
 166 662 183 655 197 641 c 0
 211 628 218 611 218 591 c 0xe8
 218 571 211 554 196 540 c 0
 181 527 164 520 145 520 c 0
EndSplineSet
Validated: 1
Substitution2: "'smcp' Lowercase to Small Capitals in Latin lookup 0 subtable" adieresis.sc
EndChar

StartChar: aring
Encoding: 229 229 163
Width: 478
GlyphClass: 2
Flags: W
HStem: -10 71<166.691 263.412> 412 73<173.012 280.566> 520 48<196.363 258.731> 662 48<191.766 253.921>
VStem: 38 109<79.7308 180.812> 131 57<577.638 659.32> 262 57<570.365 652.886> 303 110<99.4255 214 275 396.118>
LayerCount: 2
Fore
SplineSet
262 610 m 0xf6
 262 625 259 638 252 648 c 0
 246 657 237 662 226 662 c 0
 201 662 188 648 188 619 c 0
 188 604 192 592 198 582 c 0
 206 573 215 568 226 568 c 0
 250 568 262 582 262 610 c 0xf6
226 520 m 0
 198 520 175 529 157 546 c 0
 140 563 131 586 131 615 c 0
 131 644 140 667 157 684 c 0
 175 701 198 710 226 710 c 0
 254 710 276 701 293 684 c 0
 310 667 319 644 319 615 c 0
 319 586 310 563 293 546 c 0
 276 529 254 520 226 520 c 0
303 143 m 0xf9
 303 174 304 197 305 214 c 1
 285 211 270 209 261 208 c 0
 252 207 240 205 225 202 c 0
 210 199 198 196 191 193 c 0
 184 190 177 186 169 181 c 0
 161 176 155 171 152 164 c 0
 149 157 147 148 147 139 c 0
 147 112 154 93 167 80 c 0
 180 67 197 61 218 61 c 0
 252 61 281 74 305 99 c 1
 304 108 303 122 303 143 c 0xf9
307 275 m 1
 307 298 306 315 306 327 c 0
 304 339 302 353 298 368 c 0
 293 383 286 394 276 401 c 0
 265 408 251 412 234 412 c 0
 212 412 191 405 172 390 c 0
 152 376 138 356 129 331 c 1
 70 332 40 349 40 384 c 0
 40 413 60 437 101 456 c 0
 141 475 187 485 238 485 c 0
 299 485 344 472 372 447 c 0
 401 422 415 376 415 311 c 0
 415 309 415 293 414 264 c 0
 413 235 413 206 413 178 c 0
 413 102 419 45 432 7 c 1
 413 -0 394 -4 375 -4 c 0
 338 -4 315 11 308 42 c 1
 268 7 223 -10 173 -10 c 0
 134 -10 102 2 76 26 c 0
 51 50 38 85 38 132 c 0
 38 169 46 197 62 215 c 0
 78 233 99 246 126 255 c 0
 166 268 226 274 307 275 c 1
EndSplineSet
Validated: 1
Substitution2: "'smcp' Lowercase to Small Capitals in Latin lookup 0 subtable" aring.sc
EndChar

StartChar: ae
Encoding: 230 230 164
Width: 753
GlyphClass: 2
Flags: W
HStem: -10 71<166.691 265.617 478.241 617.743> 197 65<417 570.947> 412 73<173.012 280.728 468.334 584.679>
VStem: 38 109<79.7308 176.101> 307 107<275 326.434> 605 109<292.209 391.377>
LayerCount: 2
Fore
SplineSet
218 61 m 0
 256 61 293 81 328 120 c 1
 317 143 309 175 305 215 c 1
 278 212 258 209 243 206 c 0
 228 203 212 199 196 194 c 0
 178 188 166 181 158 172 c 0
 151 163 147 152 147 139 c 0
 147 112 154 93 167 80 c 0
 180 67 197 61 218 61 c 0
533 412 m 0
 502 412 475 400 453 376 c 0
 431 352 418 314 414 262 c 1
 457 262 488 263 508 265 c 0
 573 273 605 298 605 341 c 0
 605 360 598 377 585 391 c 0
 571 405 554 412 533 412 c 0
490 197 m 0
 472 197 448 198 417 199 c 1
 424 152 439 117 463 95 c 0
 486 73 515 62 550 62 c 0
 568 62 587 67 606 76 c 0
 625 85 640 99 649 116 c 1
 682 99 698 80 698 60 c 0
 698 37 682 20 651 8 c 0
 620 -4 585 -10 546 -10 c 0
 509 -10 474 -3 440 12 c 0
 405 27 377 49 354 78 c 1
 297 19 236 -10 173 -10 c 0
 134 -10 102 2 77 26 c 0
 51 50 38 85 38 132 c 0
 38 169 46 197 62 215 c 0
 78 233 99 246 126 255 c 0
 166 268 226 274 307 275 c 1
 307 298 307 315 306 327 c 0
 305 339 302 353 298 368 c 0
 293 383 286 394 276 401 c 0
 265 408 251 412 234 412 c 0
 212 412 191 405 172 390 c 0
 152 376 138 356 129 331 c 1
 70 332 40 349 40 384 c 0
 40 413 60 437 101 456 c 0
 141 475 187 485 238 485 c 0
 275 485 306 480 330 470 c 0
 354 461 373 444 387 420 c 1
 428 463 479 485 542 485 c 0
 593 485 635 471 667 443 c 0
 698 415 714 382 714 343 c 0
 714 312 708 286 697 266 c 0
 685 245 668 230 645 221 c 0
 622 212 599 205 576 202 c 0
 553 199 524 197 490 197 c 0
EndSplineSet
Validated: 1
Substitution2: "'smcp' Lowercase to Small Capitals in Latin lookup 0 subtable" ae.sc
EndChar

StartChar: ccedilla
Encoding: 231 231 165
Width: 464
GlyphClass: 2
Flags: W
HStem: -244 60<155.655 241.492> -10 72<248.758 352.331> 410 75<202.054 319.045>
VStem: 38 110<130.265 345.264> 174 70<-69.5 -8.86719> 243 83<-182.324 -117.916> 353 78<350.581 377.63>
LayerCount: 2
Fore
SplineSet
283 62 m 0xfa
 301 62 320 67 339 76 c 0
 358 85 373 99 382 116 c 1
 415 99 431 80 431 60 c 0
 431 37 415 20 384 8 c 0
 353 -4 318 -10 279 -10 c 0
 272 -10 263 -9 251 -8 c 1
 246 -22 244 -32 244 -39 c 0xfa
 244 -43 252 -49 267 -58 c 0
 306 -79 326 -106 326 -139 c 0
 326 -166 313 -191 288 -212 c 0
 263 -233 231 -244 193 -244 c 0
 159 -244 142 -233 142 -212 c 0
 142 -199 150 -185 167 -170 c 1
 178 -179 191 -184 206 -184 c 0
 231 -184 243 -174 243 -153 c 0xf6
 243 -139 232 -124 208 -108 c 0
 186 -92 174 -77 174 -62 c 0
 174 -47 180 -25 193 4 c 1
 148 19 110 46 82 84 c 0
 52 123 38 172 38 233 c 0
 38 316 62 378 110 421 c 0
 158 464 213 485 274 485 c 0
 311 485 347 476 380 459 c 0
 414 441 431 416 431 385 c 0
 431 371 424 360 410 351 c 0
 396 342 377 337 353 334 c 1
 348 358 336 377 317 390 c 0
 298 403 279 410 260 410 c 0
 228 410 201 395 180 364 c 0
 159 333 148 293 148 244 c 0
 148 181 160 134 186 106 c 0
 210 76 243 62 283 62 c 0xfa
EndSplineSet
Validated: 1
Substitution2: "'smcp' Lowercase to Small Capitals in Latin lookup 0 subtable" ccedilla.sc
EndChar

StartChar: egrave
Encoding: 232 232 166
Width: 485
GlyphClass: 2
Flags: W
HStem: -10 72<210.482 352.331> 197 65<150 303.947> 412 73<201.267 317.679> 702 20G<147.5 178.5>
VStem: 338 109<292.209 391.377>
LayerCount: 2
Fore
SplineSet
165 722 m 1
 192 693 220 668 249 646 c 0
 278 624 300 608 312 598 c 0
 326 588 332 578 332 567 c 0
 332 552 321 537 300 523 c 1
 279 538 252 555 218 574 c 0
 183 592 157 608 140 621 c 0
 122 634 113 647 113 661 c 0
 113 684 130 705 165 722 c 1
223 197 m 0
 205 197 181 198 150 199 c 1
 157 152 172 117 196 95 c 0
 219 73 248 62 283 62 c 0
 301 62 320 67 339 76 c 0
 358 85 373 99 382 116 c 1
 415 99 431 80 431 60 c 0
 431 37 415 20 384 8 c 0
 353 -4 318 -10 279 -10 c 0
 216 -10 161 11 112 52 c 0
 63 93 38 153 38 231 c 0
 38 313 62 376 109 419 c 0
 156 463 211 485 275 485 c 0
 326 485 368 471 400 443 c 0
 431 415 447 382 447 343 c 0
 447 312 441 286 430 266 c 0
 418 245 401 230 378 221 c 0
 355 212 332 205 309 202 c 0
 286 199 257 197 223 197 c 0
266 412 m 0
 235 412 208 400 186 376 c 0
 164 352 151 314 147 262 c 1
 190 262 221 263 241 265 c 0
 306 273 338 298 338 341 c 0
 338 360 331 377 318 391 c 0
 304 405 287 412 266 412 c 0
EndSplineSet
Validated: 1
Substitution2: "'smcp' Lowercase to Small Capitals in Latin lookup 0 subtable" egrave.sc
EndChar

StartChar: eacute
Encoding: 233 233 167
Width: 485
GlyphClass: 2
Flags: W
HStem: -10 72<210.482 352.331> 197 65<150 303.947> 412 73<201.267 317.679> 708 20G<344 375>
VStem: 338 109<292.096 391.377>
LayerCount: 2
Fore
SplineSet
384 626 m 0
 372 617 347 601 309 580 c 0
 270 559 242 540 224 523 c 1
 204 541 194 557 194 572 c 0
 194 581 197 588 204 595 c 0
 211 601 220 607 231 614 c 0
 242 621 260 634 283 655 c 0
 306 675 331 699 357 728 c 1
 393 709 411 690 411 669 c 0
 411 653 402 639 384 626 c 0
223 197 m 0
 205 197 181 198 150 199 c 1
 157 152 172 117 196 95 c 0
 219 73 248 62 283 62 c 0
 301 62 320 67 339 76 c 0
 358 85 373 99 382 116 c 1
 415 99 431 80 431 60 c 0
 431 37 415 20 384 8 c 0
 353 -4 318 -10 279 -10 c 0
 216 -10 161 11 112 52 c 0
 63 93 38 153 38 231 c 0
 38 313 62 376 109 419 c 0
 156 463 211 485 275 485 c 0
 326 485 368 471 400 443 c 0
 431 415 447 382 447 343 c 0
 447 312 441 286 430 265 c 0
 418 245 401 230 378 221 c 0
 355 212 332 205 309 202 c 0
 286 199 257 197 223 197 c 0
266 412 m 0
 235 412 208 400 186 376 c 0
 164 352 151 314 147 262 c 1
 190 262 221 263 241 265 c 0
 306 273 338 298 338 341 c 0
 338 360 331 377 318 391 c 0
 304 405 287 412 266 412 c 0
EndSplineSet
Validated: 1
Substitution2: "'smcp' Lowercase to Small Capitals in Latin lookup 0 subtable" eacute.sc
EndChar

StartChar: ecircumflex
Encoding: 234 234 168
Width: 485
GlyphClass: 2
Flags: W
HStem: -10 72<210.482 352.331> 197 65<150 303.947> 412 73<201.267 317.679>
VStem: 338 109<292.096 391.377>
LayerCount: 2
Fore
SplineSet
408 564 m 0
 408 550 396 535 371 519 c 1
 360 533 346 547 329 562 c 0
 312 576 298 587 287 594 c 2
 270 606 l 1
 212 556 174 531 156 531 c 0
 141 531 128 540 115 557 c 1
 164 615 216 663 271 702 c 1
 362 639 408 593 408 564 c 0
223 197 m 0
 205 197 181 198 150 199 c 1
 157 152 172 117 196 95 c 0
 219 73 248 62 283 62 c 0
 301 62 320 67 339 76 c 0
 358 85 373 99 382 116 c 1
 415 99 431 80 431 60 c 0
 431 37 415 20 384 8 c 0
 353 -4 318 -10 279 -10 c 0
 216 -10 161 11 112 52 c 0
 63 93 38 153 38 231 c 0
 38 313 62 376 109 419 c 0
 156 463 211 485 275 485 c 0
 326 485 368 471 400 443 c 0
 431 415 447 382 447 343 c 0
 447 312 441 286 430 265 c 0
 418 245 401 230 378 221 c 0
 355 212 332 205 309 202 c 0
 286 199 257 197 223 197 c 0
266 412 m 0
 235 412 208 400 186 376 c 0
 164 352 151 314 147 262 c 1
 190 262 221 263 241 265 c 0
 306 273 338 298 338 341 c 0
 338 360 331 377 318 391 c 0
 304 405 287 412 266 412 c 0
EndSplineSet
Validated: 1
Substitution2: "'smcp' Lowercase to Small Capitals in Latin lookup 0 subtable" ecircumflex.sc
EndChar

StartChar: edieresis
Encoding: 235 235 169
Width: 485
GlyphClass: 2
Flags: W
HStem: -10 72<210.482 352.331> 197 65<150 303.947> 412 73<201.267 317.679> 520 142<131.658 232.295 321.658 422.295>
VStem: 110 145<540.658 640.996> 300 145<540.658 640.996> 338 109<292.096 391.377>
LayerCount: 2
Fore
SplineSet
223 197 m 0xfa
 205 197 181 198 150 199 c 1
 157 152 172 117 196 95 c 0
 219 73 248 62 283 62 c 0
 301 62 320 67 339 76 c 0
 358 85 373 99 382 116 c 1
 415 99 431 80 431 60 c 0
 431 37 415 20 384 8 c 0
 353 -4 318 -10 279 -10 c 0
 216 -10 161 11 112 52 c 0
 63 93 38 153 38 231 c 0
 38 313 62 376 109 419 c 0
 156 463 211 485 275 485 c 0
 326 485 368 471 400 443 c 0
 431 415 447 382 447 343 c 0
 447 312 441 286 430 265 c 0
 418 245 401 230 378 221 c 0
 355 212 332 205 309 202 c 0
 286 199 257 197 223 197 c 0xfa
266 412 m 0
 235 412 208 400 186 376 c 0
 164 352 151 314 147 262 c 1
 190 262 221 263 241 265 c 0
 306 273 338 298 338 341 c 0
 338 360 331 377 318 391 c 0
 304 405 287 412 266 412 c 0
372 520 m 0
 352 520 335 527 321 540 c 0
 307 553 300 570 300 591 c 0
 300 611 307 628 322 641 c 0
 337 655 354 662 374 662 c 0
 393 662 410 655 424 641 c 0
 438 628 445 611 445 591 c 0xfc
 445 571 438 554 423 540 c 0
 408 527 391 520 372 520 c 0
182 520 m 0
 162 520 145 527 131 540 c 0
 117 553 110 570 110 591 c 0
 110 611 117 628 132 641 c 0
 147 655 164 662 184 662 c 0
 203 662 220 655 234 641 c 0
 248 628 255 611 255 591 c 0
 255 571 248 554 233 540 c 0
 218 527 201 520 182 520 c 0
EndSplineSet
Validated: 1
Substitution2: "'smcp' Lowercase to Small Capitals in Latin lookup 0 subtable" edieresis.sc
EndChar

StartChar: igrave
Encoding: 236 236 170
Width: 249
GlyphClass: 2
Flags: W
HStem: -4 21G<131.5 156.5> 702 20G<28.5 59.5>
VStem: 71 106<19.1641 424.806>
LayerCount: 2
Fore
SplineSet
46 722 m 1
 73 693 101 668 130 646 c 0
 159 624 180 608 194 598 c 0
 206 588 213 578 213 567 c 0
 213 552 202 537 181 523 c 1
 160 538 133 555 98 574 c 0
 64 592 38 608 20 621 c 0
 3 634 -6 647 -6 661 c 0
 -6 684 11 705 46 722 c 1
116 478 m 0
 164 478 188 460 188 425 c 0
 188 421 187 408 185 385 c 0
 183 362 181 333 179 299 c 0
 178 265 177 233 177 202 c 0
 177 113 186 48 203 7 c 1
 186 -0 167 -4 146 -4 c 0
 117 -4 97 2 86 14 c 0
 76 26 71 46 71 75 c 0
 71 86 71 112 72 153 c 0
 73 194 73 225 73 247 c 0
 73 344 70 419 64 474 c 1
 80 477 97 478 116 478 c 0
EndSplineSet
Validated: 1
Substitution2: "'smcp' Lowercase to Small Capitals in Latin lookup 0 subtable" igrave.sc
EndChar

StartChar: iacute
Encoding: 237 237 171
Width: 249
GlyphClass: 2
Flags: W
HStem: -4 21G<131.5 156.5> 708 20G<195 226>
VStem: 71 106<19.1641 424.805>
LayerCount: 2
Fore
SplineSet
235 626 m 0
 223 617 198 601 160 580 c 0
 121 559 93 540 75 523 c 1
 55 541 45 557 45 572 c 0
 45 581 48 588 55 595 c 0
 62 601 71 607 82 614 c 0
 93 621 111 634 134 655 c 0
 157 675 182 699 208 728 c 1
 244 709 262 690 262 669 c 0
 262 653 253 639 235 626 c 0
116 478 m 0
 164 478 188 460 188 425 c 0
 188 421 187 407 185 384 c 0
 183 361 181 333 180 299 c 0
 178 265 177 233 177 202 c 0
 177 113 186 48 203 7 c 1
 186 -0 167 -4 146 -4 c 0
 117 -4 97 2 87 14 c 0
 76 26 71 46 71 75 c 0
 71 86 71 111 72 152 c 0
 73 193 73 225 73 247 c 0
 73 344 70 419 64 474 c 1
 80 477 97 478 116 478 c 0
EndSplineSet
Validated: 1
Substitution2: "'smcp' Lowercase to Small Capitals in Latin lookup 0 subtable" iacute.sc
EndChar

StartChar: icircumflex
Encoding: 238 238 172
Width: 249
GlyphClass: 2
Flags: W
HStem: -4 21G<131.5 156.5>
VStem: 71 106<19.1641 424.806>
LayerCount: 2
Fore
SplineSet
268 564 m 0
 268 550 256 535 231 519 c 1
 220 533 206 547 189 562 c 0
 172 576 158 587 147 594 c 2
 130 606 l 1
 72 556 34 531 16 531 c 0
 2 531 -12 540 -25 557 c 1
 24 615 76 663 131 702 c 1
 222 639 268 593 268 564 c 0
116 478 m 0
 164 478 188 460 188 425 c 0
 188 421 187 408 185 384 c 0
 183 362 181 333 179 299 c 0
 178 265 177 233 177 202 c 0
 177 113 186 48 203 7 c 1
 186 -0 167 -4 146 -4 c 0
 117 -4 97 2 86 14 c 0
 76 26 71 46 71 75 c 0
 71 86 71 112 72 152 c 0
 73 194 73 225 73 247 c 0
 73 344 70 419 64 474 c 1
 80 477 97 478 116 478 c 0
EndSplineSet
Validated: 1
Substitution2: "'smcp' Lowercase to Small Capitals in Latin lookup 0 subtable" icircumflex.sc
EndChar

StartChar: idieresis
Encoding: 239 239 173
Width: 249
GlyphClass: 2
Flags: W
HStem: -4 21G<131.5 156.5> 520 142<-17.3416 83.2954 172.658 273.295>
VStem: -39 145<540.658 640.996> 71 106<19.1641 424.805> 151 145<540.658 640.996>
LayerCount: 2
Fore
SplineSet
116 478 m 0xd0
 164 478 188 460 188 425 c 0
 188 421 187 407 185 384 c 0
 183 361 181 333 179 299 c 0
 178 265 177 233 177 202 c 0
 177 113 186 48 203 7 c 1
 186 -0 167 -4 146 -4 c 0
 117 -4 97 2 86 14 c 0
 76 26 71 46 71 75 c 0
 71 86 71 111 72 152 c 0
 73 193 73 225 73 247 c 0
 73 344 70 419 64 474 c 1
 80 477 97 478 116 478 c 0xd0
223 520 m 0
 203 520 186 527 172 540 c 0
 158 553 151 570 151 591 c 0
 151 611 158 628 173 641 c 0
 188 655 205 662 225 662 c 0
 244 662 261 655 275 641 c 0
 289 628 296 611 296 591 c 0xc8
 296 571 289 554 274 540 c 0
 259 527 242 520 223 520 c 0
33 520 m 0
 13 520 -4 527 -18 540 c 0
 -32 553 -39 570 -39 591 c 0
 -39 611 -32 628 -17 641 c 0
 -2 655 15 662 35 662 c 0
 54 662 71 655 85 641 c 0
 99 628 106 611 106 591 c 0xe0
 106 571 99 554 84 540 c 0
 69 527 52 520 33 520 c 0
EndSplineSet
Validated: 1
Substitution2: "'smcp' Lowercase to Small Capitals in Latin lookup 0 subtable" idieresis.sc
EndChar

StartChar: eth
Encoding: 240 240 174
Width: 535
GlyphClass: 2
Flags: W
HStem: -10 60<199.2 336.086> 415 70<194.189 328.774> 644 54<92.2815 184.094> 712 20G<370.5 390.5>
VStem: 38 97<129.726 347.505> 395 98<120.718 331.42>
LayerCount: 2
Fore
SplineSet
395 219 m 0
 395 274 383 321 360 358 c 0
 337 396 305 415 265 415 c 0
 224 415 192 400 169 368 c 0
 146 338 135 296 135 245 c 0
 135 189 146 142 170 106 c 0
 192 68 224 50 265 50 c 0
 306 50 338 66 361 96 c 0
 384 128 395 168 395 219 c 0
156 571 m 0
 173 582 192 595 215 610 c 1
 177 627 136 638 93 644 c 1
 92 652 91 658 91 663 c 0
 91 686 100 698 117 698 c 0
 134 698 158 694 190 686 c 0
 222 677 251 667 277 654 c 1
 325 688 360 714 381 732 c 1
 400 719 410 704 410 686 c 0
 410 674 404 664 393 657 c 0
 385 651 374 644 361 635 c 0
 348 626 340 621 337 619 c 1
 394 575 435 523 458 462 c 0
 481 401 493 325 493 236 c 0
 493 161 472 102 430 57 c 0
 389 12 334 -10 265 -10 c 0
 197 -10 142 12 100 57 c 0
 59 102 38 162 38 237 c 0
 38 312 58 372 98 418 c 0
 138 462 190 485 255 485 c 0
 307 485 348 469 378 436 c 1
 357 495 323 542 275 576 c 1
 258 564 238 550 215 533 c 0
 193 516 179 506 174 502 c 1
 151 513 140 527 140 544 c 0
 140 553 145 562 156 571 c 0
EndSplineSet
Validated: 1
Substitution2: "'smcp' Lowercase to Small Capitals in Latin lookup 0 subtable" eth.sc
EndChar

StartChar: ntilde
Encoding: 241 241 175
Width: 539
GlyphClass: 2
Flags: W
HStem: -4 21G<108.5 137.5 418.5 440.5> 413 72<225.419 333.824> 531 73<286.47 367.342> 575 73<172.284 246.917>
VStem: 65 109<6.24802 379.592> 361 104<13.5237 384.67>
LayerCount: 2
Fore
SplineSet
168 429 m 1xcc
 215 466 269 485 328 485 c 0
 369 485 402 473 427 449 c 0
 452 425 465 386 465 333 c 0
 465 326 464 300 463 255 c 0
 462 210 462 178 462 157 c 0
 462 102 471 53 488 9 c 1
 467 0 449 -4 432 -4 c 0
 405 -4 385 2 374 13 c 0
 363 24 357 46 357 77 c 0
 357 112 358 154 359 202 c 0
 360 252 361 285 361 304 c 0
 361 341 354 368 339 386 c 0
 324 404 305 413 282 413 c 0
 247 413 210 396 172 361 c 1
 173 272 174 207 174 166 c 0
 174 102 176 47 180 2 c 1
 162 -1 145 -2 130 -2 c 0
 87 -2 65 11 65 38 c 0
 65 57 66 89 67 132 c 0
 69 175 70 214 70 249 c 0
 70 360 64 432 51 467 c 1
 67 474 84 478 103 478 c 0
 122 478 137 475 148 469 c 0
 159 463 165 450 168 429 c 1xcc
421 617 m 0
 421 597 410 578 388 559 c 0
 365 540 341 531 314 531 c 0xec
 295 531 272 538 247 553 c 0
 222 568 207 575 202 575 c 0
 193 575 176 560 151 529 c 1
 128 539 117 552 117 567 c 0
 117 586 128 605 151 622 c 0
 173 639 198 648 225 648 c 0xdc
 241 648 262 641 286 626 c 0
 312 611 328 604 335 604 c 0xec
 348 604 365 619 386 649 c 1
 409 642 421 632 421 617 c 0
EndSplineSet
Validated: 1
Substitution2: "'smcp' Lowercase to Small Capitals in Latin lookup 0 subtable" ntilde.sc
EndChar

StartChar: ograve
Encoding: 242 242 176
Width: 540
GlyphClass: 2
Flags: W
HStem: -10 74<207.116 337.485> 412 73<201.288 331.499> 702 20G<145.5 176.5>
VStem: 38 109<138.655 350.479> 393 109<125.521 337.117>
LayerCount: 2
Fore
SplineSet
163 722 m 1
 190 693 218 668 247 646 c 0
 276 624 298 608 310 598 c 0
 324 588 330 578 330 567 c 0
 330 552 319 537 298 523 c 1
 277 538 250 555 216 574 c 0
 181 592 155 608 138 621 c 0
 120 634 111 647 111 661 c 0
 111 684 128 705 163 722 c 1
393 225 m 0
 393 278 382 323 360 359 c 0
 337 394 307 412 269 412 c 0
 230 412 200 397 179 368 c 0
 158 339 147 300 147 251 c 0
 147 197 158 152 180 117 c 0
 201 82 231 64 269 64 c 0
 308 64 339 79 360 108 c 0
 382 137 393 176 393 225 c 0
269 -10 m 0
 200 -10 144 13 102 58 c 0
 59 103 38 163 38 238 c 0
 38 313 59 373 102 418 c 0
 144 463 200 485 269 485 c 0
 339 485 395 463 438 418 c 0
 481 373 502 313 502 238 c 0
 502 163 481 103 438 58 c 0
 395 13 339 -10 269 -10 c 0
EndSplineSet
Validated: 1
Substitution2: "'smcp' Lowercase to Small Capitals in Latin lookup 0 subtable" ograve.sc
EndChar

StartChar: oacute
Encoding: 243 243 177
Width: 540
GlyphClass: 2
Flags: W
HStem: -10 74<207.116 339.072> 412 73<201.288 330.837> 708 20G<362 393>
VStem: 38 109<138.473 350.479> 393 109<125.314 336.849>
LayerCount: 2
Fore
SplineSet
402 626 m 0
 390 617 365 601 327 580 c 0
 288 559 260 540 242 523 c 1
 222 541 212 557 212 572 c 0
 212 581 215 588 222 595 c 0
 229 601 238 607 249 614 c 0
 260 621 278 634 301 655 c 0
 324 675 349 699 375 728 c 1
 411 709 429 690 429 669 c 0
 429 653 420 639 402 626 c 0
393 225 m 0
 393 278 382 323 360 358 c 0
 337 394 307 412 269 412 c 0
 230 412 200 397 179 368 c 0
 158 339 147 300 147 251 c 0
 147 197 158 152 180 117 c 0
 201 82 231 64 269 64 c 0
 308 64 339 79 361 108 c 0
 382 137 393 176 393 225 c 0
269 -10 m 0
 200 -10 144 12 102 58 c 0
 59 102 38 163 38 238 c 0
 38 313 59 373 102 418 c 0
 144 463 200 485 269 485 c 0
 339 485 395 463 438 418 c 0
 481 373 502 313 502 238 c 0
 502 163 481 102 438 58 c 0
 395 12 339 -10 269 -10 c 0
EndSplineSet
Validated: 1
Substitution2: "'smcp' Lowercase to Small Capitals in Latin lookup 0 subtable" oacute.sc
EndChar

StartChar: ocircumflex
Encoding: 244 244 178
Width: 540
GlyphClass: 2
Flags: W
HStem: -10 74<207.116 337.485> 412 73<201.288 331.499>
VStem: 38 109<138.655 350.479> 393 109<125.521 337.117>
LayerCount: 2
Fore
SplineSet
415 564 m 0
 415 550 403 535 378 519 c 1
 367 533 353 547 336 562 c 0
 319 576 305 587 294 594 c 2
 277 606 l 1
 219 556 181 531 163 531 c 0
 149 531 135 540 122 557 c 1
 171 615 223 663 278 702 c 1
 369 639 415 593 415 564 c 0
393 225 m 0
 393 278 382 323 360 359 c 0
 337 394 307 412 269 412 c 0
 230 412 200 397 179 368 c 0
 158 339 147 300 147 251 c 0
 147 197 158 152 180 117 c 0
 201 82 231 64 269 64 c 0
 308 64 339 79 360 108 c 0
 382 137 393 176 393 225 c 0
269 -10 m 0
 200 -10 144 13 102 58 c 0
 59 103 38 163 38 238 c 0
 38 313 59 373 102 418 c 0
 144 463 200 485 269 485 c 0
 339 485 395 463 438 418 c 0
 481 373 502 313 502 238 c 0
 502 163 481 103 438 58 c 0
 395 13 339 -10 269 -10 c 0
EndSplineSet
Validated: 1
Substitution2: "'smcp' Lowercase to Small Capitals in Latin lookup 0 subtable" ocircumflex.sc
EndChar

StartChar: otilde
Encoding: 245 245 179
Width: 540
GlyphClass: 2
Flags: W
HStem: -10 74<207.116 337.485> 412 73<201.288 330.837> 531 73<286.47 367.342> 575 73<172.284 246.917>
VStem: 38 109<138.473 350.479> 393 109<125.314 336.849>
LayerCount: 2
Fore
SplineSet
393 225 m 0xcc
 393 278 382 323 360 358 c 0
 337 394 307 412 269 412 c 0
 230 412 200 397 179 368 c 0
 158 339 147 300 147 251 c 0
 147 197 158 152 180 117 c 0
 201 82 231 64 269 64 c 0
 308 64 339 79 360 108 c 0
 382 137 393 176 393 225 c 0xcc
269 -10 m 0
 200 -10 144 12 102 58 c 0
 59 102 38 163 38 238 c 0
 38 313 59 373 102 418 c 0
 144 463 200 485 269 485 c 0
 339 485 395 463 438 418 c 0
 481 373 502 313 502 238 c 0
 502 163 481 102 438 58 c 0
 395 12 339 -10 269 -10 c 0
421 617 m 0
 421 597 410 578 388 559 c 0
 365 540 341 531 314 531 c 0xec
 295 531 272 538 247 553 c 0
 222 568 207 575 202 575 c 0
 193 575 176 560 151 529 c 1
 128 539 117 552 117 567 c 0
 117 586 128 605 151 622 c 0
 173 639 198 648 225 648 c 0xdc
 241 648 262 641 286 626 c 0
 312 611 328 604 335 604 c 0xec
 348 604 365 619 386 649 c 1
 409 642 421 632 421 617 c 0
EndSplineSet
Validated: 1
Substitution2: "'smcp' Lowercase to Small Capitals in Latin lookup 0 subtable" otilde.sc
EndChar

StartChar: odieresis
Encoding: 246 246 180
Width: 540
GlyphClass: 2
Flags: W
HStem: -10 74<207.116 337.485> 412 73<201.288 330.837> 520 142<130.705 230.295 320.705 420.295>
VStem: 38 109<138.473 350.479> 108 145<540.658 641.342> 298 145<540.658 641.342> 393 109<125.314 336.849>
LayerCount: 2
Fore
SplineSet
393 225 m 0xf2
 393 278 382 323 360 358 c 0
 337 394 307 412 269 412 c 0
 230 412 200 397 179 368 c 0
 158 339 147 300 147 251 c 0
 147 197 158 152 180 117 c 0
 201 82 231 64 269 64 c 0
 308 64 339 79 360 108 c 0
 382 137 393 176 393 225 c 0xf2
269 -10 m 0
 200 -10 144 12 102 58 c 0
 59 102 38 163 38 238 c 0
 38 313 59 373 102 418 c 0
 144 463 200 485 269 485 c 0
 339 485 395 463 438 418 c 0
 481 373 502 313 502 238 c 0
 502 163 481 102 438 58 c 0
 395 12 339 -10 269 -10 c 0
370 520 m 0
 350 520 333 527 319 540 c 0
 305 553 298 570 298 591 c 0
 298 611 305 628 320 642 c 0
 335 655 352 662 372 662 c 0
 391 662 408 655 422 642 c 0
 436 628 443 611 443 591 c 0xe4
 443 571 436 554 421 540 c 0
 406 527 389 520 370 520 c 0
180 520 m 0
 160 520 143 527 129 540 c 0
 115 553 108 570 108 591 c 0
 108 611 115 628 130 642 c 0
 145 655 162 662 182 662 c 0
 201 662 218 655 232 642 c 0
 246 628 253 611 253 591 c 0xe8
 253 571 246 554 231 540 c 0
 216 527 199 520 180 520 c 0
EndSplineSet
Validated: 1
Substitution2: "'smcp' Lowercase to Small Capitals in Latin lookup 0 subtable" odieresis.sc
EndChar

StartChar: divide
Encoding: 247 247 181
Width: 535
GlyphClass: 2
Flags: W
HStem: 22 128<211.61 297.436> 211 88<46.4248 248.544 253.97 447.207> 211 79<146 445.356> 219 71<86.1069 403.475> 359 127<211.565 297.436>
VStem: 193 122<40.5647 130.389 376.565 467.389>
LayerCount: 2
Fore
SplineSet
456 260 m 0xcc
 456 247 451 235 441 226 c 0
 432 216 419 211 404 211 c 0xcc
 393 211 369 212 332 215 c 0
 295 218 268 219 252 219 c 0x9c
 182 219 111 216 39 209 c 1
 36 226 34 239 34 248 c 0
 34 261 38 272 46 282 c 0
 55 292 68 297 86 297 c 0
 88 297 108 296 146 294 c 0
 184 291 219 290 250 290 c 0xac
 335 290 401 293 450 299 c 1
 454 288 456 275 456 260 c 0xcc
255 359 m 0
 238 359 223 365 211 376 c 0
 199 388 193 403 193 422 c 0
 193 440 199 455 211 468 c 0
 223 480 238 486 255 486 c 0
 272 486 286 480 298 468 c 0
 309 455 315 440 315 422 c 0
 315 403 309 388 298 376 c 0
 286 365 272 359 255 359 c 0
255 22 m 0
 238 22 223 28 211 40 c 0
 199 52 193 67 193 86 c 0
 193 103 199 118 211 131 c 0
 224 144 238 150 255 150 c 0
 272 150 286 144 298 131 c 0
 309 118 315 103 315 86 c 0
 315 67 309 52 298 40 c 0
 286 28 272 22 255 22 c 0
EndSplineSet
Validated: 1
EndChar

StartChar: oslash
Encoding: 248 248 182
Width: 540
GlyphClass: 2
Flags: W
HStem: -10 74<218.418 337.485> 412 73<201.288 325.863>
VStem: 38 109<137.81 350.479> 85 46<-73.0561 -42.0703> 393 109<125.314 335.171> 417 46<517.154 549.056>
LayerCount: 2
Fore
SplineSet
178 6 m 1xc8
 159 -30 l 2
 144 -57 135 -76 131 -87 c 1
 100 -84 85 -73 85 -56 c 0xd8
 85 -49 93 -31 110 -1 c 2
 129 33 l 1
 68 79 38 147 38 238 c 0
 38 313 59 373 102 418 c 0
 144 463 200 485 269 485 c 0
 304 485 336 479 367 466 c 1
 389 506 l 2
 396 518 405 537 417 563 c 1
 448 560 463 549 463 532 c 0xe4
 463 525 456 508 441 482 c 2
 416 437 l 1
 473 392 502 326 502 238 c 0
 502 163 481 102 438 58 c 0
 395 12 339 -10 269 -10 c 0
 237 -10 207 -5 178 6 c 1xc8
147 251 m 0xe0
 147 197 157 154 177 121 c 1
 327 393 l 1
 309 406 290 412 269 412 c 0
 230 412 200 397 179 368 c 0
 158 339 147 300 147 251 c 0xe0
393 225 m 0xc8
 393 274 384 314 366 347 c 1
 218 78 l 1
 233 69 250 64 269 64 c 0
 308 64 339 79 360 108 c 0
 382 137 393 176 393 225 c 0xc8
EndSplineSet
Validated: 1
Substitution2: "'smcp' Lowercase to Small Capitals in Latin lookup 0 subtable" oslash.sc
EndChar

